SplineFontDB: 3.2
FontName: Krub-BoldItalic
FullName: Krub Bold Italic
FamilyName: Krub
Weight: Bold
Copyright: Copyright 2018 The Krub Project Authors (https://github.com/cadsondemak/Krub)
Version: 1.000; ttfautohint (v1.6)
ItalicAngle: -8
UnderlinePosition: -100
UnderlineWidth: 50
Ascent: 800
Descent: 200
InvalidEm: 0
sfntRevision: 0x00010000
LayerCount: 2
Layer: 0 1 "Back" 1
Layer: 1 1 "Fore" 0
XUID: [1021 226 -1497385041 9982980]
StyleMap: 0x0021
FSType: 0
OS2Version: 3
OS2_WeightWidthSlopeOnly: 0
OS2_UseTypoMetrics: 0
CreationTime: 1534948280
ModificationTime: 1627862657
PfmFamily: 81
TTFWeight: 700
TTFWidth: 5
LineGap: 0
VLineGap: 0
Panose: 0 0 8 0 0 0 0 0 0 0
OS2TypoAscent: 1007
OS2TypoAOffset: 0
OS2TypoDescent: -293
OS2TypoDOffset: 0
OS2TypoLinegap: 0
OS2WinAscent: 1232
OS2WinAOffset: 0
OS2WinDescent: 507
OS2WinDOffset: 0
HheadAscent: 1007
HheadAOffset: 0
HheadDescent: -293
HheadDOffset: 0
OS2SubXSize: 650
OS2SubYSize: 600
OS2SubXOff: -11
OS2SubYOff: 75
OS2SupXSize: 650
OS2SupYSize: 600
OS2SupXOff: 49
OS2SupYOff: 350
OS2StrikeYSize: 50
OS2StrikeYPos: 330
OS2CapHeight: 700
OS2XHeight: 550
OS2Vendor: 'CDK '
OS2CodePages: 20010193.00000000
OS2UnicodeRanges: 21000007.00000001.00000000.00000000
Lookup: 1 0 0 "'aalt' Access All Alternates lookup 0" { "'aalt' Access All Alternates lookup 0 subtable"  } ['aalt' ('DFLT' <'dflt' > 'latn' <'CAT ' 'MOL ' 'ROM ' 'dflt' > 'thai' <'dflt' > ) ]
Lookup: 3 0 0 "'aalt' Access All Alternates lookup 1" { "'aalt' Access All Alternates lookup 1 subtable"  } ['aalt' ('DFLT' <'dflt' > 'latn' <'CAT ' 'MOL ' 'ROM ' 'dflt' > 'thai' <'dflt' > ) ]
Lookup: 6 0 0 "'ccmp' Glyph Composition/Decomposition in Latin lookup 2" { "'ccmp' Glyph Composition/Decomposition in Latin lookup 2 contextual 0"  "'ccmp' Glyph Composition/Decomposition in Latin lookup 2 contextual 1"  } ['ccmp' ('latn' <'dflt' > ) ]

StartChar: A
Encoding: 65 65 4
Width: 660
GlyphClass: 2
Flags: W
AnchorPoint: "Anchor-10" 0 0 basechar 0
AnchorPoint: "Anchor-9" 365 660 basechar 0
AnchorPoint: "Anchor-8" 588 0 basechar 0
AnchorPoint: "Anchor-7" 273 0 basechar 0
LayerCount: 2
Fore
SplineSet
589 58 m 0,1,2
 589 19 589 19 588 0 c 1,3,-1
 438 0 l 1,4,5
 438 85 438 85 433 173 c 1,6,-1
 158 173 l 1,7,8
 136 107 136 107 108 0 c 1,9,-1
 -42 0 l 1,10,11
 48 402 48 402 294 700 c 1,12,-1
 449 700 l 1,13,0
 589 390 589 390 589 58 c 0,1,2
424 283 m 1,14,15
 407 448 407 448 355 587 c 1,16,17
 306 518 306 518 268 445 c 128,-1,18
 230 372 230 372 196 283 c 1,19,-1
 424 283 l 1,14,15
EndSplineSet
Substitution2: "Single Substitution lookup 20 subtable" ordfeminine
Substitution2: "'aalt' Access All Alternates lookup 0 subtable" ordfeminine
EndChar

StartChar: AE
Encoding: 198 198 28
Width: 970
GlyphClass: 2
Flags: W
AnchorPoint: "Anchor-10" 0 0 basechar 0
AnchorPoint: "Anchor-9" 596 700 basechar 0
AnchorPoint: "Anchor-8" 0 0 basechar 0
AnchorPoint: "Anchor-7" 438 0 basechar 0
LayerCount: 2
Fore
SplineSet
647 600 m 1,0,-1
 619 403 l 1,1,-1
 876 403 l 1,2,-1
 862 303 l 1,3,-1
 605 303 l 1,4,-1
 577 100 l 1,5,-1
 882 100 l 1,6,7
 874 44 874 44 857 22 c 128,-1,8
 840 0 840 0 796 0 c 2,9,-1
 418 0 l 1,10,-1
 447 206 l 1,11,-1
 194 206 l 1,12,13
 148 110 148 110 112 0 c 1,14,-1
 -42 0 l 1,15,16
 30 210 30 210 142 388.5 c 128,-1,17
 254 567 254 567 431 700 c 1,18,-1
 961 700 l 1,19,-1
 947 600 l 1,20,-1
 647 600 l 1,0,-1
461 306 m 1,21,-1
 502 600 l 1,22,-1
 493 600 l 1,23,24
 356 492 356 492 247 306 c 1,25,-1
 461 306 l 1,21,-1
EndSplineSet
EndChar

StartChar: B
Encoding: 66 66 30
Width: 625
GlyphClass: 2
Flags: W
AnchorPoint: "Anchor-10" 0 0 basechar 0
AnchorPoint: "Anchor-9" 343 660 basechar 0
AnchorPoint: "Anchor-8" 0 0 basechar 0
AnchorPoint: "Anchor-7" 251 0 basechar 0
LayerCount: 2
Fore
SplineSet
539 304.5 m 128,-1,1
 565 266 565 266 565 219 c 0,2,3
 565 115 565 115 492 57.5 c 128,-1,4
 419 0 419 0 289 0 c 2,5,-1
 19 0 l 1,6,-1
 117 700 l 1,7,-1
 357 700 l 2,8,9
 421 700 421 700 471 678 c 128,-1,10
 521 656 521 656 548.5 616.5 c 128,-1,11
 576 577 576 577 576 526 c 0,12,13
 576 465 576 465 547.5 420.5 c 128,-1,14
 519 376 519 376 471 359 c 1,15,0
 513 343 513 343 539 304.5 c 128,-1,1
388.5 437 m 128,-1,17
 419 464 419 464 419 523 c 0,18,19
 419 560 419 560 393 577 c 128,-1,20
 367 594 367 594 312 594 c 2,21,-1
 256 594 l 1,22,-1
 230 410 l 1,23,-1
 293 410 l 2,24,16
 358 410 358 410 388.5 437 c 128,-1,17
350 117.5 m 128,-1,26
 381 129 381 129 395 155.5 c 128,-1,27
 409 182 409 182 409 229 c 0,28,29
 409 269 409 269 381.5 286.5 c 128,-1,30
 354 304 354 304 289 304 c 2,31,-1
 215 304 l 1,32,-1
 188 106 l 1,33,-1
 264 106 l 2,34,25
 319 106 319 106 350 117.5 c 128,-1,26
EndSplineSet
EndChar

StartChar: C
Encoding: 67 67 31
Width: 636
GlyphClass: 2
Flags: W
AnchorPoint: "Anchor-10" 0 0 basechar 0
AnchorPoint: "Anchor-9" 407 660 basechar 0
AnchorPoint: "Anchor-8" 0 0 basechar 0
AnchorPoint: "Anchor-7" 315 0 basechar 0
LayerCount: 2
Fore
SplineSet
112 67.5 m 128,-1,1
 38 145 38 145 38 287 c 0,2,3
 38 419 38 419 81.5 514 c 128,-1,4
 125 609 125 609 207 659.5 c 128,-1,5
 289 710 289 710 402 710 c 0,6,7
 470 710 470 710 528 687.5 c 128,-1,8
 586 665 586 665 627 622 c 1,9,10
 618 593 618 593 592.5 564.5 c 128,-1,11
 567 536 567 536 551 536 c 0,12,13
 537 536 537 536 521 547 c 0,14,15
 478 578 478 578 451 589 c 128,-1,16
 424 600 424 600 394 600 c 0,17,18
 333 600 333 600 288.5 562 c 128,-1,19
 244 524 244 524 220 453.5 c 128,-1,20
 196 383 196 383 196 287 c 0,21,22
 196 100 196 100 337 100 c 0,23,24
 388 100 388 100 424.5 113 c 128,-1,25
 461 126 461 126 493 156 c 1,26,27
 515 155 515 155 529.5 139 c 128,-1,28
 544 123 544 123 544 98 c 0,29,30
 544 70 544 70 513 45 c 128,-1,31
 482 20 482 20 431 5 c 128,-1,32
 380 -10 380 -10 323 -10 c 0,33,0
 186 -10 186 -10 112 67.5 c 128,-1,1
EndSplineSet
EndChar

StartChar: Ccedilla
Encoding: 199 199 34
Width: 636
GlyphClass: 2
Flags: W
AnchorPoint: "Anchor-10" 0 0 basechar 0
AnchorPoint: "Anchor-9" 0 0 basechar 0
AnchorPoint: "Anchor-8" 0 0 basechar 0
AnchorPoint: "Anchor-7" 285 -214 basechar 0
LayerCount: 2
Fore
SplineSet
528 687.5 m 128,-1,1
 586 665 586 665 627 622 c 1,2,3
 618 593 618 593 592.5 564.5 c 128,-1,4
 567 536 567 536 551 536 c 0,5,6
 537 536 537 536 521 547 c 0,7,8
 478 578 478 578 451 589 c 128,-1,9
 424 600 424 600 394 600 c 0,10,11
 333 600 333 600 288.5 562 c 128,-1,12
 244 524 244 524 220 453.5 c 128,-1,13
 196 383 196 383 196 287 c 0,14,15
 196 100 196 100 337 100 c 0,16,17
 388 100 388 100 424.5 113 c 128,-1,18
 461 126 461 126 493 156 c 1,19,20
 515 155 515 155 529.5 139 c 128,-1,21
 544 123 544 123 544 98 c 256,22,23
 544 73 544 73 519 50 c 128,-1,24
 494 27 494 27 451 11.5 c 128,-1,25
 408 -4 408 -4 358 -8 c 1,26,-1
 312 -51 l 1,27,-1
 323 -51 l 2,28,29
 364 -51 364 -51 389.5 -71 c 128,-1,30
 415 -91 415 -91 415 -124 c 0,31,32
 415 -181 415 -181 372 -210 c 128,-1,33
 329 -239 329 -239 258 -239 c 0,34,35
 206 -239 206 -239 183.5 -226 c 128,-1,36
 161 -213 161 -213 161 -192 c 0,37,38
 161 -179 161 -179 169 -163 c 1,39,40
 180 -168 180 -168 202.5 -171 c 128,-1,41
 225 -174 225 -174 251 -174 c 0,42,43
 280 -174 280 -174 295 -163.5 c 128,-1,44
 310 -153 310 -153 310 -135 c 0,45,46
 310 -112 310 -112 281 -112 c 0,47,48
 267 -112 267 -112 252 -117 c 1,49,-1
 221 -75 l 1,50,-1
 273 -7 l 1,51,52
 160 7 160 7 99 82.5 c 128,-1,53
 38 158 38 158 38 287 c 0,54,55
 38 419 38 419 81.5 514 c 128,-1,56
 125 609 125 609 207 659.5 c 128,-1,57
 289 710 289 710 402 710 c 0,58,0
 470 710 470 710 528 687.5 c 128,-1,1
EndSplineSet
EndChar

StartChar: D
Encoding: 68 68 37
Width: 682
GlyphClass: 2
Flags: W
AnchorPoint: "Anchor-10" 0 0 basechar 0
AnchorPoint: "Anchor-9" 370 660 basechar 0
AnchorPoint: "Anchor-8" 0 0 basechar 0
AnchorPoint: "Anchor-7" 279 0 basechar 0
LayerCount: 2
Fore
SplineSet
497.5 664.5 m 128,-1,1
 567 629 567 629 604.5 563.5 c 128,-1,2
 642 498 642 498 642 410 c 0,3,4
 642 289 642 289 593.5 196 c 128,-1,5
 545 103 545 103 457.5 51.5 c 128,-1,6
 370 0 370 0 256 0 c 2,7,-1
 9 0 l 1,8,-1
 107 700 l 1,9,-1
 334 700 l 2,10,0
 428 700 428 700 497.5 664.5 c 128,-1,1
372.5 142 m 128,-1,12
 428 178 428 178 458 245.5 c 128,-1,13
 488 313 488 313 488 404 c 0,14,15
 488 496 488 496 441.5 545 c 128,-1,16
 395 594 395 594 309 594 c 2,17,-1
 246 594 l 1,18,-1
 177 106 l 1,19,-1
 241 106 l 2,20,11
 317 106 317 106 372.5 142 c 128,-1,12
EndSplineSet
EndChar

StartChar: Eth
Encoding: 208 208 38
Width: 672
GlyphClass: 2
Flags: W
AnchorPoint: "Anchor-10" 0 0 basechar 0
AnchorPoint: "Anchor-9" 370 660 basechar 0
AnchorPoint: "Anchor-8" 0 0 basechar 0
AnchorPoint: "Anchor-7" 279 0 basechar 0
LayerCount: 2
Fore
SplineSet
497.5 664.5 m 128,-1,1
 567 629 567 629 604.5 563.5 c 128,-1,2
 642 498 642 498 642 410 c 0,3,4
 642 289 642 289 593.5 196 c 128,-1,5
 545 103 545 103 457.5 51.5 c 128,-1,6
 370 0 370 0 256 0 c 2,7,-1
 9 0 l 1,8,-1
 52 307 l 1,9,-1
 -13 307 l 1,10,-1
 0 404 l 1,11,-1
 66 404 l 1,12,-1
 107 700 l 1,13,-1
 334 700 l 2,14,0
 428 700 428 700 497.5 664.5 c 128,-1,1
372.5 142 m 128,-1,16
 428 178 428 178 458 245.5 c 128,-1,17
 488 313 488 313 488 404 c 0,18,19
 488 496 488 496 441.5 545 c 128,-1,20
 395 594 395 594 309 594 c 2,21,-1
 246 594 l 1,22,-1
 219 404 l 1,23,-1
 345 404 l 1,24,-1
 332 307 l 1,25,-1
 205 307 l 1,26,-1
 177 106 l 1,27,-1
 241 106 l 2,28,15
 317 106 317 106 372.5 142 c 128,-1,16
EndSplineSet
EndChar

StartChar: Dcroat
Encoding: 272 272 40
Width: 672
GlyphClass: 2
Flags: W
AnchorPoint: "Anchor-10" 0 0 basechar 0
AnchorPoint: "Anchor-9" 370 660 basechar 0
AnchorPoint: "Anchor-8" 0 0 basechar 0
AnchorPoint: "Anchor-7" 279 0 basechar 0
LayerCount: 2
Fore
SplineSet
497.5 664.5 m 128,-1,1
 567 629 567 629 604.5 563.5 c 128,-1,2
 642 498 642 498 642 410 c 0,3,4
 642 289 642 289 593.5 196 c 128,-1,5
 545 103 545 103 457.5 51.5 c 128,-1,6
 370 0 370 0 256 0 c 2,7,-1
 9 0 l 1,8,-1
 52 307 l 1,9,-1
 -13 307 l 1,10,-1
 0 404 l 1,11,-1
 66 404 l 1,12,-1
 107 700 l 1,13,-1
 334 700 l 2,14,0
 428 700 428 700 497.5 664.5 c 128,-1,1
372.5 142 m 128,-1,16
 428 178 428 178 458 245.5 c 128,-1,17
 488 313 488 313 488 404 c 0,18,19
 488 496 488 496 441.5 545 c 128,-1,20
 395 594 395 594 309 594 c 2,21,-1
 246 594 l 1,22,-1
 219 404 l 1,23,-1
 345 404 l 1,24,-1
 332 307 l 1,25,-1
 205 307 l 1,26,-1
 177 106 l 1,27,-1
 241 106 l 2,28,15
 317 106 317 106 372.5 142 c 128,-1,16
EndSplineSet
EndChar

StartChar: E
Encoding: 69 69 43
Width: 560
GlyphClass: 2
Flags: W
AnchorPoint: "Anchor-10" 0 0 basechar 0
AnchorPoint: "Anchor-9" 317 660 basechar 0
AnchorPoint: "Anchor-8" 438 10 basechar 0
AnchorPoint: "Anchor-7" 223 0 basechar 0
LayerCount: 2
Fore
SplineSet
246 594 m 1,0,-1
 221 414 l 1,1,-1
 457 414 l 1,2,-1
 442 308 l 1,3,-1
 206 308 l 1,4,-1
 178 106 l 1,5,-1
 473 106 l 1,6,7
 465 46 465 46 451 23 c 128,-1,8
 437 0 437 0 406 0 c 2,9,-1
 9 0 l 1,10,-1
 107 700 l 1,11,-1
 545 700 l 1,12,-1
 530 594 l 1,13,-1
 246 594 l 1,0,-1
EndSplineSet
EndChar

StartChar: Eogonek
Encoding: 280 280 59
Width: 560
GlyphClass: 2
Flags: W
AnchorPoint: "Anchor-10" 0 0 basechar 0
AnchorPoint: "Anchor-9" 317 660 basechar 0
AnchorPoint: "Anchor-8" 438 10 basechar 0
AnchorPoint: "Anchor-7" 223 0 basechar 0
LayerCount: 2
Fore
SplineSet
246 594 m 1,0,-1
 221 414 l 1,1,-1
 457 414 l 1,2,-1
 442 308 l 1,3,-1
 206 308 l 1,4,-1
 178 106 l 1,5,-1
 473 106 l 1,6,7
 467 62 467 62 458.5 39 c 128,-1,8
 450 16 450 16 435 7 c 1,9,10
 410 -22 410 -22 395.5 -45.5 c 128,-1,11
 381 -69 381 -69 381 -91 c 0,12,13
 381 -126 381 -126 405 -126 c 0,14,15
 423 -126 423 -126 439 -116 c 1,16,17
 455 -128 455 -128 455 -144 c 0,18,19
 455 -171 455 -171 432 -185.5 c 128,-1,20
 409 -200 409 -200 367 -200 c 0,21,22
 265 -200 265 -200 265 -132 c 0,23,24
 265 -54 265 -54 358 0 c 1,25,-1
 9 0 l 1,26,-1
 107 700 l 1,27,-1
 545 700 l 1,28,-1
 530 594 l 1,29,-1
 246 594 l 1,0,-1
EndSplineSet
EndChar

StartChar: F
Encoding: 70 70 61
Width: 530
GlyphClass: 2
Flags: W
AnchorPoint: "Anchor-10" 0 0 basechar 0
AnchorPoint: "Anchor-9" 327 660 basechar 0
AnchorPoint: "Anchor-8" 0 0 basechar 0
AnchorPoint: "Anchor-7" 65 0 basechar 0
LayerCount: 2
Fore
SplineSet
246 594 m 1,0,-1
 220 409 l 1,1,-1
 455 409 l 1,2,-1
 440 303 l 1,3,-1
 206 303 l 1,4,-1
 163 0 l 1,5,-1
 9 0 l 1,6,-1
 107 700 l 1,7,-1
 539 700 l 1,8,-1
 524 594 l 1,9,-1
 246 594 l 1,0,-1
EndSplineSet
EndChar

StartChar: G
Encoding: 71 71 62
Width: 686
GlyphClass: 2
Flags: W
AnchorPoint: "Anchor-10" 0 0 basechar 0
AnchorPoint: "Anchor-9" 412 660 basechar 0
AnchorPoint: "Anchor-8" 0 0 basechar 0
AnchorPoint: "Anchor-7" 320 0 basechar 0
LayerCount: 2
Fore
SplineSet
361 384 m 1,1,-1
 631 384 l 1,2,-1
 587 73 l 1,3,4
 534 30 534 30 473.5 10 c 128,-1,5
 413 -10 413 -10 333 -10 c 0,6,7
 244 -10 244 -10 177 26 c 128,-1,8
 110 62 110 62 73.5 127.5 c 128,-1,9
 37 193 37 193 37 281 c 0,10,11
 37 414 37 414 82 510.5 c 128,-1,12
 127 607 127 607 212 658.5 c 128,-1,13
 297 710 297 710 414 710 c 0,14,15
 491 710 491 710 559 688.5 c 128,-1,16
 627 667 627 667 663 632 c 1,17,18
 650 601 650 601 623.5 572 c 128,-1,19
 597 543 597 543 582 543 c 0,20,21
 575 543 575 543 569.5 545.5 c 128,-1,22
 564 548 564 548 556 553 c 0,23,24
 523 576 523 576 484.5 588 c 128,-1,25
 446 600 446 600 407 600 c 0,26,27
 307 600 307 600 251.5 516 c 128,-1,28
 196 432 196 432 196 280 c 0,29,30
 196 193 196 193 232.5 146.5 c 128,-1,31
 269 100 269 100 337 100 c 0,32,33
 409 100 409 100 442 122 c 1,34,-1
 464 278 l 1,35,-1
 403 278 l 2,36,37
 379 278 379 278 368 291.5 c 128,-1,38
 357 305 357 305 357 335 c 0,39,0
 357 361 357 361 361 384 c 1,1,-1
EndSplineSet
EndChar

StartChar: H
Encoding: 72 72 69
Width: 700
GlyphClass: 2
Flags: W
AnchorPoint: "Anchor-10" 0 0 basechar 0
AnchorPoint: "Anchor-9" 385 660 basechar 0
AnchorPoint: "Anchor-8" 0 0 basechar 0
AnchorPoint: "Anchor-7" 293 0 basechar 0
LayerCount: 2
Fore
SplineSet
675 700 m 1,0,-1
 577 0 l 1,1,-1
 423 0 l 1,2,-1
 465 300 l 1,3,-1
 205 300 l 1,4,-1
 163 0 l 1,5,-1
 9 0 l 1,6,-1
 107 700 l 1,7,-1
 261 700 l 1,8,-1
 220 410 l 1,9,-1
 480 410 l 1,10,-1
 521 700 l 1,11,-1
 675 700 l 1,0,-1
EndSplineSet
EndChar

StartChar: Hbar
Encoding: 294 294 70
Width: 700
GlyphClass: 2
Flags: W
AnchorPoint: "Anchor-10" 0 0 basechar 0
AnchorPoint: "Anchor-9" 395 660 basechar 0
AnchorPoint: "Anchor-8" 0 0 basechar 0
AnchorPoint: "Anchor-7" 303 0 basechar 0
LayerCount: 2
Fore
SplineSet
716 524 m 1,0,-1
 660 524 l 1,1,-1
 587 0 l 1,2,-1
 433 0 l 1,3,-1
 475 300 l 1,4,-1
 215 300 l 1,5,-1
 173 0 l 1,6,-1
 19 0 l 1,7,-1
 92 524 l 1,8,-1
 36 524 l 1,9,-1
 45 584 l 1,10,-1
 101 584 l 1,11,-1
 117 700 l 1,12,-1
 271 700 l 1,13,-1
 255 584 l 1,14,-1
 515 584 l 1,15,-1
 531 700 l 1,16,-1
 685 700 l 1,17,-1
 669 584 l 1,18,-1
 725 584 l 1,19,-1
 716 524 l 1,0,-1
506 524 m 1,20,-1
 246 524 l 1,21,-1
 230 410 l 1,22,-1
 490 410 l 1,23,-1
 506 524 l 1,20,-1
EndSplineSet
EndChar

StartChar: I
Encoding: 73 73 74
Width: 350
GlyphClass: 2
Flags: W
AnchorPoint: "Anchor-10" 0 0 basechar 0
AnchorPoint: "Anchor-9" 210 660 basechar 0
AnchorPoint: "Anchor-8" 195 0 basechar 0
AnchorPoint: "Anchor-7" 118 0 basechar 0
LayerCount: 2
Fore
SplineSet
139 700 m 1,0,-1
 293 700 l 1,1,-1
 195 0 l 1,2,-1
 41 0 l 1,3,-1
 139 700 l 1,0,-1
EndSplineSet
EndChar

StartChar: J
Encoding: 74 74 88
Width: 447
GlyphClass: 2
Flags: W
AnchorPoint: "Anchor-10" 0 0 basechar 0
AnchorPoint: "Anchor-9" 345 660 basechar 0
AnchorPoint: "Anchor-8" 0 0 basechar 0
AnchorPoint: "Anchor-7" 167 0 basechar 0
LayerCount: 2
Fore
SplineSet
20.5 -1.5 m 128,-1,1
 -25 7 -25 7 -41 17 c 1,2,3
 -28 114 -28 114 10 114 c 0,4,5
 18 114 18 114 28 112 c 128,-1,6
 38 110 38 110 43 109 c 0,7,8
 79 100 79 100 106 100 c 0,9,10
 147 100 147 100 172 124 c 128,-1,11
 197 148 197 148 203 193 c 2,12,-1
 274 700 l 1,13,-1
 428 700 l 1,14,-1
 357 193 l 2,15,16
 349 134 349 134 314 88 c 128,-1,17
 279 42 279 42 225.5 16 c 128,-1,18
 172 -10 172 -10 108 -10 c 0,19,0
 66 -10 66 -10 20.5 -1.5 c 128,-1,1
EndSplineSet
EndChar

StartChar: K
Encoding: 75 75 90
Width: 670
GlyphClass: 2
Flags: W
AnchorPoint: "Anchor-10" 0 0 basechar 0
AnchorPoint: "Anchor-9" 360 660 basechar 0
AnchorPoint: "Anchor-8" 0 0 basechar 0
AnchorPoint: "Anchor-7" 308 0 basechar 0
LayerCount: 2
Fore
SplineSet
474 279 m 2,1,-1
 598 5 l 1,2,3
 570 -10 570 -10 496 -10 c 0,4,5
 441 -10 441 -10 426 22 c 2,6,-1
 324 238 l 2,7,8
 310 267 310 267 300.5 279.5 c 128,-1,9
 291 292 291 292 277.5 296 c 128,-1,10
 264 300 264 300 236 300 c 2,11,-1
 229 300 l 1,12,-1
 187 0 l 1,13,-1
 33 0 l 1,14,-1
 131 700 l 1,15,-1
 285 700 l 1,16,-1
 243 402 l 1,17,-1
 289 402 l 1,18,-1
 525 700 l 1,19,-1
 688 700 l 1,20,-1
 412 365 l 1,21,0
 449 336 449 336 474 279 c 2,1,-1
EndSplineSet
EndChar

StartChar: L
Encoding: 76 76 92
Width: 513
GlyphClass: 2
Flags: W
AnchorPoint: "Anchor-10" 534 700 basechar 0
AnchorPoint: "Anchor-9" 198 660 basechar 0
AnchorPoint: "Anchor-8" 0 0 basechar 0
AnchorPoint: "Anchor-7" 235 0 basechar 0
LayerCount: 2
Fore
SplineSet
456 106 m 1,0,-1
 441 0 l 1,1,-1
 29 0 l 1,2,-1
 127 700 l 1,3,-1
 281 700 l 1,4,-1
 198 106 l 1,5,-1
 456 106 l 1,0,-1
EndSplineSet
EndChar

StartChar: Lslash
Encoding: 321 321 100
Width: 547
GlyphClass: 2
Flags: W
AnchorPoint: "Anchor-10" 554 700 basechar 0
AnchorPoint: "Anchor-9" 218 660 basechar 0
AnchorPoint: "Anchor-8" 0 0 basechar 0
AnchorPoint: "Anchor-7" 255 0 basechar 0
LayerCount: 2
Fore
SplineSet
476 106 m 1,0,-1
 461 0 l 1,1,-1
 49 0 l 1,2,-1
 93 313 l 1,3,-1
 -1 277 l 1,4,-1
 14 386 l 1,5,-1
 108 422 l 1,6,-1
 147 700 l 1,7,-1
 301 700 l 1,8,-1
 271 483 l 1,9,-1
 386 527 l 1,10,-1
 370 418 l 1,11,-1
 255 374 l 1,12,-1
 218 106 l 1,13,-1
 476 106 l 1,0,-1
EndSplineSet
EndChar

StartChar: M
Encoding: 77 77 101
Width: 846
GlyphClass: 2
Flags: W
AnchorPoint: "Anchor-10" 0 0 basechar 0
AnchorPoint: "Anchor-9" 440 660 basechar 0
AnchorPoint: "Anchor-8" 0 0 basechar 0
AnchorPoint: "Anchor-7" 368 0 basechar 0
LayerCount: 2
Fore
SplineSet
763 362 m 0,1,2
 763 206 763 206 739 0 c 1,3,-1
 583 0 l 1,4,5
 602 168 602 168 609.5 277 c 128,-1,6
 617 386 617 386 617 492 c 2,7,-1
 617 534 l 1,8,9
 559 414 559 414 523 328 c 128,-1,10
 487 242 487 242 439 110 c 1,11,-1
 317 110 l 1,12,13
 309 251 309 251 297.5 338.5 c 128,-1,14
 286 426 286 426 261 540 c 1,15,16
 220 416 220 416 195.5 302.5 c 128,-1,17
 171 189 171 189 145 0 c 1,18,-1
 -7 0 l 1,19,20
 27 221 27 221 70.5 380 c 128,-1,21
 114 539 114 539 186 700 c 1,22,-1
 357 700 l 1,23,24
 384 572 384 572 395.5 503 c 128,-1,25
 407 434 407 434 412 359 c 1,26,27
 453 470 453 470 486.5 544 c 128,-1,28
 520 618 520 618 565 700 c 1,29,-1
 738 700 l 1,30,0
 763 525 763 525 763 362 c 0,1,2
EndSplineSet
EndChar

StartChar: N
Encoding: 78 78 103
Width: 700
GlyphClass: 2
Flags: W
AnchorPoint: "Anchor-10" 0 0 basechar 0
AnchorPoint: "Anchor-9" 384 660 basechar 0
AnchorPoint: "Anchor-8" 0 0 basechar 0
AnchorPoint: "Anchor-7" 292 0 basechar 0
LayerCount: 2
Fore
SplineSet
671 700 m 1,0,-1
 592 137 l 2,1,2
 588 113 588 113 583 58 c 2,3,-1
 580 27 l 2,4,5
 577 0 577 0 551 0 c 2,6,-1
 421 0 l 1,7,-1
 426 35 l 2,8,9
 427 41 427 41 427 54 c 0,10,11
 427 99 427 99 403 146 c 2,12,-1
 229 486 l 1,13,-1
 161 0 l 1,14,-1
 9 0 l 1,15,-1
 107 700 l 1,16,-1
 245 700 l 2,17,18
 258 700 258 700 265.5 696.5 c 128,-1,19
 273 693 273 693 280 680 c 2,20,-1
 466 322 l 1,21,-1
 519 700 l 1,22,-1
 671 700 l 1,0,-1
EndSplineSet
EndChar

StartChar: Eng
Encoding: 330 330 109
Width: 685
Flags: W
LayerCount: 2
Fore
SplineSet
660 700 m 1,0,-1
 554 -53 l 2,1,2
 544 -124 544 -124 493 -168 c 128,-1,3
 442 -212 442 -212 358 -212 c 0,4,5
 311 -212 311 -212 277 -201 c 128,-1,6
 243 -190 243 -190 247 -164 c 0,7,8
 248 -151 248 -151 256.5 -138 c 128,-1,9
 265 -125 265 -125 272 -122 c 1,10,11
 294 -134 294 -134 332 -134 c 0,12,13
 391 -134 391 -134 401 -62 c 2,14,-1
 413 24 l 2,15,16
 415 38 415 38 415 45 c 0,17,18
 415 85 415 85 390 135 c 2,19,-1
 227 474 l 1,20,-1
 161 0 l 1,21,-1
 9 0 l 1,22,-1
 107 700 l 1,23,-1
 245 700 l 2,24,25
 259 700 259 700 266.5 696.5 c 128,-1,26
 274 693 274 693 280 680 c 2,27,-1
 455 323 l 1,28,-1
 508 700 l 1,29,-1
 660 700 l 1,0,-1
EndSplineSet
EndChar

StartChar: O
Encoding: 79 79 112
Width: 700
GlyphClass: 2
Flags: W
AnchorPoint: "Anchor-10" 525 639 basechar 0
AnchorPoint: "Anchor-9" 377 660 basechar 0
AnchorPoint: "Anchor-8" 396 31 basechar 0
AnchorPoint: "Anchor-7" 293 0 basechar 0
LayerCount: 2
Fore
SplineSet
98 64 m 128,-1,1
 23 138 23 138 23 273 c 0,2,3
 23 405 23 405 66 504 c 128,-1,4
 109 603 109 603 188.5 656.5 c 128,-1,5
 268 710 268 710 375 710 c 0,6,7
 514 710 514 710 587 638.5 c 128,-1,8
 660 567 660 567 660 433 c 256,9,10
 660 299 660 299 617 199 c 128,-1,11
 574 99 574 99 495 44.5 c 128,-1,12
 416 -10 416 -10 310 -10 c 0,13,0
 173 -10 173 -10 98 64 c 128,-1,1
453.5 186 m 128,-1,15
 504 272 504 272 504 433 c 0,16,17
 504 515 504 515 471 557.5 c 128,-1,18
 438 600 438 600 373 600 c 0,19,20
 277 600 277 600 228 517.5 c 128,-1,21
 179 435 179 435 179 272 c 0,22,23
 179 187 179 187 211.5 143.5 c 128,-1,24
 244 100 244 100 308 100 c 0,25,14
 403 100 403 100 453.5 186 c 128,-1,15
EndSplineSet
Substitution2: "Single Substitution lookup 20 subtable" ordmasculine
Substitution2: "'aalt' Access All Alternates lookup 0 subtable" ordmasculine
EndChar

StartChar: Ohorn
Encoding: 416 416 126
Width: 700
GlyphClass: 2
Flags: W
AnchorPoint: "Anchor-10" 525 639 basechar 0
AnchorPoint: "Anchor-9" 377 660 basechar 0
AnchorPoint: "Anchor-8" 396 31 basechar 0
AnchorPoint: "Anchor-7" 293 0 basechar 0
LayerCount: 2
Fore
SplineSet
708.5 808.5 m 128,-1,1
 729 789 729 789 729 757 c 0,2,3
 729 748 729 748 728 743 c 0,4,5
 714 640 714 640 612 610 c 1,6,7
 660 543 660 543 660 433 c 0,8,9
 660 299 660 299 617 199 c 128,-1,10
 574 99 574 99 495 44.5 c 128,-1,11
 416 -10 416 -10 310 -10 c 0,12,13
 173 -10 173 -10 98 64 c 128,-1,14
 23 138 23 138 23 273 c 0,15,16
 23 405 23 405 66 504 c 128,-1,17
 109 603 109 603 188.5 656.5 c 128,-1,18
 268 710 268 710 375 710 c 256,19,20
 482 710 482 710 549 668 c 1,21,22
 573 672 573 672 584.5 688.5 c 128,-1,23
 596 705 596 705 600 733 c 0,24,25
 604 764 604 764 578 785 c 1,26,27
 583 803 583 803 603 815.5 c 128,-1,28
 623 828 623 828 652 828 c 0,29,0
 688 828 688 828 708.5 808.5 c 128,-1,1
453.5 186 m 128,-1,31
 504 272 504 272 504 433 c 0,32,33
 504 515 504 515 471 557.5 c 128,-1,34
 438 600 438 600 373 600 c 0,35,36
 277 600 277 600 228 517.5 c 128,-1,37
 179 435 179 435 179 272 c 0,38,39
 179 187 179 187 211.5 143.5 c 128,-1,40
 244 100 244 100 308 100 c 0,41,30
 403 100 403 100 453.5 186 c 128,-1,31
EndSplineSet
EndChar

StartChar: Oslash
Encoding: 216 216 134
Width: 680
GlyphClass: 2
Flags: W
AnchorPoint: "Anchor-10" 525 639 basechar 0
AnchorPoint: "Anchor-9" 377 660 basechar 0
AnchorPoint: "Anchor-8" 396 31 basechar 0
AnchorPoint: "Anchor-7" 293 0 basechar 0
LayerCount: 2
Fore
SplineSet
599 626 m 1,0,1
 660 556 660 556 660 433 c 0,2,3
 660 299 660 299 617 199 c 128,-1,4
 574 99 574 99 495 44.5 c 128,-1,5
 416 -10 416 -10 310 -10 c 0,6,7
 185 -10 185 -10 112 52 c 1,8,-1
 68 0 l 1,9,-1
 -4 0 l 1,10,-1
 74 92 l 1,11,12
 23 163 23 163 23 273 c 0,13,14
 23 405 23 405 66 504 c 128,-1,15
 109 603 109 603 188.5 656.5 c 128,-1,16
 268 710 268 710 375 710 c 0,17,18
 487 710 487 710 557 663 c 1,19,-1
 590 701 l 1,20,-1
 662 701 l 1,21,-1
 599 626 l 1,0,1
183 220 m 1,23,-1
 470 559 l 1,24,25
 437 600 437 600 373 600 c 0,26,27
 277 600 277 600 228 517.5 c 128,-1,28
 179 435 179 435 179 272 c 0,29,22
 179 241 179 241 183 220 c 1,23,-1
496 505 m 1,31,-1
 202 158 l 1,32,33
 234 100 234 100 308 100 c 0,34,35
 403 100 403 100 453.5 186 c 128,-1,36
 504 272 504 272 504 433 c 0,37,30
 504 471 504 471 496 505 c 1,31,-1
EndSplineSet
EndChar

StartChar: OE
Encoding: 338 338 137
Width: 1035
GlyphClass: 2
Flags: W
AnchorPoint: "Anchor-10" 525 639 basechar 0
AnchorPoint: "Anchor-9" 792 660 basechar 0
AnchorPoint: "Anchor-8" 913 10 basechar 0
AnchorPoint: "Anchor-7" 698 0 basechar 0
LayerCount: 2
Fore
SplineSet
721 594 m 1,0,-1
 696 414 l 1,1,-1
 932 414 l 1,2,-1
 917 308 l 1,3,-1
 681 308 l 1,4,-1
 653 106 l 1,5,-1
 948 106 l 1,6,7
 940 46 940 46 926 23 c 128,-1,8
 912 0 912 0 881 0 c 2,9,-1
 484 0 l 1,10,-1
 490 41 l 1,11,12
 411 -10 411 -10 310 -10 c 0,13,14
 173 -10 173 -10 98 64 c 128,-1,15
 23 138 23 138 23 273 c 0,16,17
 23 405 23 405 66 504 c 128,-1,18
 109 603 109 603 188.5 656.5 c 128,-1,19
 268 710 268 710 375 710 c 0,20,21
 502 710 502 710 575 649 c 1,22,-1
 582 700 l 1,23,-1
 1020 700 l 1,24,-1
 1005 594 l 1,25,-1
 721 594 l 1,0,-1
453.5 186 m 128,-1,27
 504 272 504 272 504 433 c 0,28,29
 504 515 504 515 471 557.5 c 128,-1,30
 438 600 438 600 373 600 c 0,31,32
 277 600 277 600 228 517.5 c 128,-1,33
 179 435 179 435 179 272 c 0,34,35
 179 187 179 187 211.5 143.5 c 128,-1,36
 244 100 244 100 308 100 c 0,37,26
 403 100 403 100 453.5 186 c 128,-1,27
EndSplineSet
EndChar

StartChar: P
Encoding: 80 80 138
Width: 615
GlyphClass: 2
Flags: W
AnchorPoint: "Anchor-10" 0 0 basechar 0
AnchorPoint: "Anchor-9" 343 660 basechar 0
AnchorPoint: "Anchor-8" 0 0 basechar 0
AnchorPoint: "Anchor-7" 251 0 basechar 0
LayerCount: 2
Fore
SplineSet
520.5 649 m 128,-1,1
 584 598 584 598 584 499 c 0,2,3
 584 417 584 417 546.5 356.5 c 128,-1,4
 509 296 509 296 439 263.5 c 128,-1,5
 369 231 369 231 274 231 c 2,6,-1
 205 231 l 1,7,-1
 173 0 l 1,8,-1
 19 0 l 1,9,-1
 117 700 l 1,10,-1
 335 700 l 2,11,0
 457 700 457 700 520.5 649 c 128,-1,1
392 381.5 m 128,-1,13
 427 418 427 418 427 499 c 0,14,15
 427 549 427 549 398.5 572.5 c 128,-1,16
 370 596 370 596 310 596 c 2,17,-1
 256 596 l 1,18,-1
 221 345 l 1,19,-1
 280 345 l 2,20,12
 357 345 357 345 392 381.5 c 128,-1,13
EndSplineSet
EndChar

StartChar: Thorn
Encoding: 222 222 139
Width: 641
GlyphClass: 2
Flags: W
AnchorPoint: "Anchor-10" 0 0 basechar 0
AnchorPoint: "Anchor-9" 362 700 basechar 0
AnchorPoint: "Anchor-8" 0 0 basechar 0
AnchorPoint: "Anchor-7" 251 0 basechar 0
LayerCount: 2
Fore
SplineSet
502 546 m 128,-1,1
 570 492 570 492 570 394 c 0,2,3
 570 269 570 269 489 200 c 128,-1,4
 408 131 408 131 265 131 c 2,5,-1
 187 131 l 1,6,-1
 169 0 l 1,7,-1
 19 0 l 1,8,-1
 117 700 l 1,9,-1
 267 700 l 1,10,-1
 253 600 l 1,11,-1
 311 600 l 2,12,0
 434 600 434 600 502 546 c 128,-1,1
379 278 m 128,-1,14
 417 313 417 313 417 394 c 0,15,16
 417 444 417 444 387 466 c 128,-1,17
 357 488 357 488 295 488 c 2,18,-1
 237 488 l 1,19,-1
 203 243 l 1,20,-1
 261 243 l 2,21,13
 341 243 341 243 379 278 c 128,-1,14
EndSplineSet
EndChar

StartChar: Q
Encoding: 81 81 140
Width: 680
GlyphClass: 2
Flags: W
AnchorPoint: "Anchor-10" 525 639 basechar 0
AnchorPoint: "Anchor-9" 380 660 basechar 0
AnchorPoint: "Anchor-8" 396 31 basechar 0
AnchorPoint: "Anchor-7" 301 0 basechar 0
LayerCount: 2
Fore
SplineSet
606.5 177 m 128,-1,1
 553 70 553 70 458 23 c 1,2,3
 477 -1 477 -1 520 -50 c 1,4,5
 489 -92 489 -92 430 -92 c 0,6,7
 399 -92 399 -92 379.5 -82 c 128,-1,8
 360 -72 360 -72 345 -52 c 0,9,10
 333 -36 333 -36 321 -10 c 1,11,-1
 310 -10 l 2,12,13
 173 -10 173 -10 98 64 c 128,-1,14
 23 138 23 138 23 273 c 0,15,16
 23 405 23 405 66 504 c 128,-1,17
 109 603 109 603 188.5 656.5 c 128,-1,18
 268 710 268 710 375 710 c 0,19,20
 514 710 514 710 587 638.5 c 128,-1,21
 660 567 660 567 660 433 c 0,22,0
 660 284 660 284 606.5 177 c 128,-1,1
475 232.5 m 128,-1,24
 504 312 504 312 504 433 c 0,25,26
 504 515 504 515 471 557.5 c 128,-1,27
 438 600 438 600 373 600 c 0,28,29
 277 600 277 600 228 517.5 c 128,-1,30
 179 435 179 435 179 272 c 0,31,32
 179 128 179 128 271 104 c 1,33,34
 262 129 262 129 242 179 c 1,35,-1
 362 179 l 1,36,37
 370 158 370 158 390 121 c 1,38,23
 446 153 446 153 475 232.5 c 128,-1,24
EndSplineSet
EndChar

StartChar: R
Encoding: 82 82 141
Width: 640
GlyphClass: 2
Flags: W
AnchorPoint: "Anchor-10" 0 0 basechar 0
AnchorPoint: "Anchor-9" 348 660 basechar 0
AnchorPoint: "Anchor-8" 0 0 basechar 0
AnchorPoint: "Anchor-7" 258 0 basechar 0
LayerCount: 2
Fore
SplineSet
489 230 m 2,1,-1
 560 13 l 1,2,3
 549 4 549 4 523 -2 c 128,-1,4
 497 -8 497 -8 470 -8 c 0,5,6
 435 -8 435 -8 418 1 c 128,-1,7
 401 10 401 10 395 32 c 2,8,-1
 345 198 l 2,9,10
 333 235 333 235 315.5 248 c 128,-1,11
 298 261 298 261 261 261 c 2,12,-1
 209 261 l 1,13,-1
 173 0 l 1,14,-1
 19 0 l 1,15,-1
 117 700 l 1,16,-1
 355 700 l 2,17,18
 476 700 476 700 540.5 653 c 128,-1,19
 605 606 605 606 605 517 c 0,20,21
 605 439 605 439 566 383 c 128,-1,22
 527 327 527 327 454 298 c 1,23,0
 474 272 474 272 489 230 c 2,1,-1
299 369 m 2,24,25
 376 369 376 369 412 402.5 c 128,-1,26
 448 436 448 436 448 507 c 0,27,28
 448 551 448 551 420 571.5 c 128,-1,29
 392 592 392 592 330 592 c 2,30,-1
 256 592 l 1,31,-1
 225 369 l 1,32,-1
 299 369 l 2,24,25
EndSplineSet
EndChar

StartChar: S
Encoding: 83 83 148
Width: 642
GlyphClass: 2
Flags: W
AnchorPoint: "Anchor-10" 0 0 basechar 0
AnchorPoint: "Anchor-9" 356 660 basechar 0
AnchorPoint: "Anchor-8" 0 0 basechar 0
AnchorPoint: "Anchor-7" 274 0 basechar 0
LayerCount: 2
Fore
SplineSet
155.5 7 m 128,-1,1
 96 24 96 24 64 55 c 128,-1,2
 32 86 32 86 32 128 c 0,3,4
 32 174 32 174 63.5 198 c 128,-1,5
 95 222 95 222 156 223 c 1,6,7
 154 165 154 165 190 132.5 c 128,-1,8
 226 100 226 100 293 100 c 0,9,10
 358 100 358 100 393 125.5 c 128,-1,11
 428 151 428 151 428 199 c 0,12,13
 428 224 428 224 417 240 c 128,-1,14
 406 256 406 256 377.5 271 c 128,-1,15
 349 286 349 286 292 306 c 0,16,17
 217 333 217 333 173.5 361 c 128,-1,18
 130 389 130 389 111 424 c 128,-1,19
 92 459 92 459 92 508 c 0,20,21
 92 568 92 568 126 614 c 128,-1,22
 160 660 160 660 221.5 685 c 128,-1,23
 283 710 283 710 364 710 c 0,24,25
 466 710 466 710 535 668.5 c 128,-1,26
 604 627 604 627 624 555 c 1,27,28
 603 533 603 533 576 517.5 c 128,-1,29
 549 502 549 502 533 502 c 256,30,31
 517 502 517 502 508 508 c 128,-1,32
 499 514 499 514 485 534 c 0,33,34
 463 566 463 566 427.5 583 c 128,-1,35
 392 600 392 600 349 600 c 0,36,37
 301 600 301 600 276 581.5 c 128,-1,38
 251 563 251 563 251 528 c 0,39,40
 251 504 251 504 261.5 488 c 128,-1,41
 272 472 272 472 298.5 458 c 128,-1,42
 325 444 325 444 379 424 c 0,43,44
 465 393 465 393 509.5 366.5 c 128,-1,45
 554 340 554 340 572.5 309 c 128,-1,46
 591 278 591 278 591 231 c 0,47,48
 591 158 591 158 554.5 103.5 c 128,-1,49
 518 49 518 49 450.5 19.5 c 128,-1,50
 383 -10 383 -10 293 -10 c 0,51,0
 215 -10 215 -10 155.5 7 c 128,-1,1
EndSplineSet
EndChar

StartChar: Scedilla
Encoding: 350 350 151
Width: 642
GlyphClass: 2
Flags: W
AnchorPoint: "Anchor-10" 0 0 basechar 0
AnchorPoint: "Anchor-9" 0 0 basechar 0
AnchorPoint: "Anchor-8" 0 0 basechar 0
AnchorPoint: "Anchor-7" 244 -214 basechar 0
LayerCount: 2
Fore
SplineSet
276 581.5 m 128,-1,1
 251 563 251 563 251 528 c 0,2,3
 251 504 251 504 261.5 488 c 128,-1,4
 272 472 272 472 298.5 458 c 128,-1,5
 325 444 325 444 379 424 c 0,6,7
 465 393 465 393 509.5 366.5 c 128,-1,8
 554 340 554 340 572.5 309 c 128,-1,9
 591 278 591 278 591 231 c 0,10,11
 591 161 591 161 557.5 108 c 128,-1,12
 524 55 524 55 462 24.5 c 128,-1,13
 400 -6 400 -6 316 -9 c 1,14,-1
 271 -51 l 1,15,-1
 282 -51 l 2,16,17
 323 -51 323 -51 348.5 -71 c 128,-1,18
 374 -91 374 -91 374 -124 c 0,19,20
 374 -181 374 -181 331 -210 c 128,-1,21
 288 -239 288 -239 217 -239 c 0,22,23
 165 -239 165 -239 142.5 -226 c 128,-1,24
 120 -213 120 -213 120 -192 c 0,25,26
 120 -179 120 -179 128 -163 c 1,27,28
 139 -168 139 -168 161.5 -171 c 128,-1,29
 184 -174 184 -174 210 -174 c 0,30,31
 239 -174 239 -174 254 -163.5 c 128,-1,32
 269 -153 269 -153 269 -135 c 0,33,34
 269 -112 269 -112 240 -112 c 0,35,36
 226 -112 226 -112 211 -117 c 1,37,-1
 180 -75 l 1,38,-1
 232 -7 l 1,39,40
 139 2 139 2 85.5 38 c 128,-1,41
 32 74 32 74 32 128 c 0,42,43
 32 174 32 174 63.5 198 c 128,-1,44
 95 222 95 222 156 223 c 1,45,46
 154 165 154 165 190 132.5 c 128,-1,47
 226 100 226 100 293 100 c 0,48,49
 358 100 358 100 393 125.5 c 128,-1,50
 428 151 428 151 428 199 c 0,51,52
 428 224 428 224 417 240 c 128,-1,53
 406 256 406 256 377.5 271 c 128,-1,54
 349 286 349 286 292 306 c 0,55,56
 217 333 217 333 173.5 361 c 128,-1,57
 130 389 130 389 111 424 c 128,-1,58
 92 459 92 459 92 508 c 0,59,60
 92 568 92 568 126 614 c 128,-1,61
 160 660 160 660 221.5 685 c 128,-1,62
 283 710 283 710 364 710 c 0,63,64
 466 710 466 710 535 668.5 c 128,-1,65
 604 627 604 627 624 555 c 1,66,67
 603 533 603 533 576 517.5 c 128,-1,68
 549 502 549 502 533 502 c 256,69,70
 517 502 517 502 508 508 c 128,-1,71
 499 514 499 514 485 534 c 0,72,73
 463 566 463 566 427.5 583 c 128,-1,74
 392 600 392 600 349 600 c 0,75,0
 301 600 301 600 276 581.5 c 128,-1,1
EndSplineSet
Substitution2: "'locl' Localized Forms in Latin lookup 7 subtable" uni0218
Substitution2: "'locl' Localized Forms in Latin lookup 6 subtable" uni0218
Substitution2: "'aalt' Access All Alternates lookup 0 subtable" uni0218
EndChar

StartChar: uni1E9E
Encoding: 7838 7838 156
Width: 730
Flags: W
LayerCount: 2
Fore
SplineSet
605.5 330 m 128,-1,1
 648 293 648 293 648 225 c 0,2,3
 648 154 648 154 612.5 100.5 c 128,-1,4
 577 47 577 47 516 18.5 c 128,-1,5
 455 -10 455 -10 379 -10 c 0,6,7
 305 -10 305 -10 255.5 11.5 c 128,-1,8
 206 33 206 33 206 77 c 0,9,10
 206 101 206 101 221 120.5 c 128,-1,11
 236 140 236 140 260 142 c 1,12,13
 280 118 280 118 311 105 c 128,-1,14
 342 92 342 92 378 92 c 0,15,16
 430 92 430 92 462 125.5 c 128,-1,17
 494 159 494 159 494 218 c 0,18,19
 494 261 494 261 469.5 278.5 c 128,-1,20
 445 296 445 296 398 296 c 0,21,22
 358 296 358 296 337 316 c 128,-1,23
 316 336 316 336 320 368 c 1,24,-1
 488 540 l 1,25,26
 461 606 461 606 373 606 c 0,27,28
 311 606 311 606 272 569.5 c 128,-1,29
 233 533 233 533 223 459 c 2,30,-1
 159 0 l 1,31,-1
 7 0 l 1,32,-1
 71 459 l 2,33,34
 87 575 87 575 168 641.5 c 128,-1,35
 249 708 249 708 380 708 c 0,36,37
 459 708 459 708 518.5 683.5 c 128,-1,38
 578 659 578 659 611 618 c 128,-1,39
 644 577 644 577 648 529 c 1,40,-1
 495 382 l 1,41,0
 563 367 563 367 605.5 330 c 128,-1,1
EndSplineSet
EndChar

StartChar: uni018F
Encoding: 399 399 157
Width: 722
Flags: W
LayerCount: 2
Fore
SplineSet
522.5 680.5 m 128,-1,1
 586 651 586 651 624 589.5 c 128,-1,2
 662 528 662 528 662 435 c 0,3,4
 662 307 662 307 621.5 206.5 c 128,-1,5
 581 106 581 106 499.5 48 c 128,-1,6
 418 -10 418 -10 299 -10 c 0,7,8
 179 -10 179 -10 106 51.5 c 128,-1,9
 33 113 33 113 33 240 c 0,10,11
 33 262 33 262 37 296 c 128,-1,12
 41 330 41 330 49 383 c 1,13,-1
 508 383 l 1,14,15
 510 419 510 419 510 437 c 0,16,17
 510 519 510 519 477 563 c 128,-1,18
 444 607 444 607 371 607 c 0,19,20
 318 607 318 607 280.5 587 c 128,-1,21
 243 567 243 567 219 547 c 128,-1,22
 195 527 195 527 188 522 c 0,23,24
 180 516 180 516 170 516 c 0,25,26
 148 516 148 516 125.5 540.5 c 128,-1,27
 103 565 103 565 92 603 c 1,28,29
 142 652 142 652 210.5 681 c 128,-1,30
 279 710 279 710 381 710 c 0,31,0
 459 710 459 710 522.5 680.5 c 128,-1,1
422 144 m 128,-1,33
 469 195 469 195 491 281 c 1,34,-1
 186 281 l 1,35,36
 182 256 182 256 182 225 c 0,37,38
 182 163 182 163 210 128 c 128,-1,39
 238 93 238 93 305 93 c 0,40,32
 375 93 375 93 422 144 c 128,-1,33
EndSplineSet
EndChar

StartChar: T
Encoding: 84 84 158
Width: 534
GlyphClass: 2
Flags: W
AnchorPoint: "Anchor-10" 0 0 basechar 0
AnchorPoint: "Anchor-9" 303 660 basechar 0
AnchorPoint: "Anchor-8" 0 0 basechar 0
AnchorPoint: "Anchor-7" 211 0 basechar 0
LayerCount: 2
Fore
SplineSet
558 656 m 0,1,2
 553 623 553 623 540.5 606.5 c 128,-1,3
 528 590 528 590 503 590 c 2,4,-1
 368 590 l 1,5,-1
 286 0 l 1,6,-1
 134 0 l 1,7,-1
 216 590 l 1,8,-1
 41 590 l 1,9,-1
 56 700 l 1,10,-1
 560 700 l 1,11,0
 562 684 562 684 558 656 c 0,1,2
EndSplineSet
EndChar

StartChar: Tbar
Encoding: 358 358 159
Width: 533
GlyphClass: 2
Flags: W
AnchorPoint: "Anchor-10" 0 0 basechar 0
AnchorPoint: "Anchor-9" 303 660 basechar 0
AnchorPoint: "Anchor-8" 0 0 basechar 0
AnchorPoint: "Anchor-7" 211 0 basechar 0
LayerCount: 2
Fore
SplineSet
558 656 m 0,1,2
 553 623 553 623 540.5 606.5 c 128,-1,3
 528 590 528 590 503 590 c 2,4,-1
 368 590 l 1,5,-1
 337 363 l 1,6,-1
 438 363 l 1,7,-1
 424 265 l 1,8,-1
 323 265 l 1,9,-1
 286 0 l 1,10,-1
 134 0 l 1,11,-1
 171 265 l 1,12,-1
 72 265 l 1,13,-1
 86 363 l 1,14,-1
 185 363 l 1,15,-1
 216 590 l 1,16,-1
 41 590 l 1,17,-1
 56 700 l 1,18,-1
 560 700 l 1,19,0
 562 684 562 684 558 656 c 0,1,2
EndSplineSet
EndChar

StartChar: U
Encoding: 85 85 165
Width: 711
GlyphClass: 2
Flags: W
AnchorPoint: "Anchor-10" 662 673 basechar 0
AnchorPoint: "Anchor-9" 391 670 basechar 0
AnchorPoint: "Anchor-8" 389 10 basechar 0
AnchorPoint: "Anchor-7" 299 0 basechar 0
LayerCount: 2
Fore
SplineSet
112 42.5 m 128,-1,1
 50 94 50 94 50 195 c 0,2,3
 50 225 50 225 54 252 c 2,4,-1
 117 700 l 1,5,-1
 271 700 l 1,6,-1
 205 230 l 2,7,8
 203 212 203 212 203 203 c 0,9,10
 203 153 203 153 231 127 c 128,-1,11
 259 101 259 101 313 101 c 0,12,13
 438 101 438 101 456 230 c 2,14,-1
 522 700 l 1,15,-1
 676 700 l 1,16,-1
 613 252 l 2,17,18
 595 120 595 120 516.5 55.5 c 128,-1,19
 438 -9 438 -9 297 -9 c 0,20,0
 174 -9 174 -9 112 42.5 c 128,-1,1
EndSplineSet
EndChar

StartChar: Uhorn
Encoding: 431 431 178
Width: 711
GlyphClass: 2
Flags: W
AnchorPoint: "Anchor-10" 662 673 basechar 0
AnchorPoint: "Anchor-9" 391 670 basechar 0
AnchorPoint: "Anchor-8" 389 10 basechar 0
AnchorPoint: "Anchor-7" 299 0 basechar 0
LayerCount: 2
Fore
SplineSet
845.5 842.5 m 128,-1,1
 866 823 866 823 866 791 c 0,2,3
 866 782 866 782 865 777 c 0,4,5
 856 713 856 713 810 674.5 c 128,-1,6
 764 636 764 636 666 630 c 1,7,-1
 613 252 l 2,8,9
 595 120 595 120 516.5 55.5 c 128,-1,10
 438 -9 438 -9 297 -9 c 0,11,12
 174 -9 174 -9 112 42.5 c 128,-1,13
 50 94 50 94 50 195 c 0,14,15
 50 225 50 225 54 252 c 2,16,-1
 117 700 l 1,17,-1
 271 700 l 1,18,-1
 205 230 l 2,19,20
 203 212 203 212 203 203 c 0,21,22
 203 153 203 153 231 127 c 128,-1,23
 259 101 259 101 313 101 c 0,24,25
 438 101 438 101 456 230 c 2,26,-1
 522 700 l 1,27,-1
 666 700 l 2,28,29
 701 700 701 700 716.5 716.5 c 128,-1,30
 732 733 732 733 737 767 c 0,31,32
 741 798 741 798 715 819 c 1,33,34
 720 837 720 837 740 849.5 c 128,-1,35
 760 862 760 862 789 862 c 0,36,0
 825 862 825 862 845.5 842.5 c 128,-1,1
EndSplineSet
EndChar

StartChar: Uogonek
Encoding: 370 370 186
Width: 711
GlyphClass: 2
Flags: W
AnchorPoint: "Anchor-10" 662 673 basechar 0
AnchorPoint: "Anchor-9" 391 670 basechar 0
AnchorPoint: "Anchor-8" 389 10 basechar 0
AnchorPoint: "Anchor-7" 299 0 basechar 0
LayerCount: 2
Fore
SplineSet
676 700 m 1,0,-1
 613 252 l 2,1,2
 583 30 583 30 377 -3 c 1,3,4
 332 -55 332 -55 332 -91 c 0,5,6
 332 -126 332 -126 356 -126 c 0,7,8
 374 -126 374 -126 390 -116 c 1,9,10
 406 -128 406 -128 406 -144 c 0,11,12
 406 -171 406 -171 383 -185.5 c 128,-1,13
 360 -200 360 -200 318 -200 c 0,14,15
 216 -200 216 -200 216 -132 c 0,16,17
 216 -61 216 -61 295 -9 c 1,18,19
 173 -8 173 -8 111.5 43.5 c 128,-1,20
 50 95 50 95 50 195 c 0,21,22
 50 225 50 225 54 252 c 2,23,-1
 117 700 l 1,24,-1
 271 700 l 1,25,-1
 205 230 l 2,26,27
 203 212 203 212 203 203 c 0,28,29
 203 153 203 153 231 127 c 128,-1,30
 259 101 259 101 313 101 c 0,31,32
 438 101 438 101 456 230 c 2,33,-1
 522 700 l 1,34,-1
 676 700 l 1,0,-1
EndSplineSet
EndChar

StartChar: V
Encoding: 86 86 189
Width: 638
GlyphClass: 2
Flags: W
AnchorPoint: "Anchor-10" 0 0 basechar 0
AnchorPoint: "Anchor-9" 354 660 basechar 0
AnchorPoint: "Anchor-8" 0 0 basechar 0
AnchorPoint: "Anchor-7" 262 0 basechar 0
LayerCount: 2
Fore
SplineSet
659 700 m 1,0,1
 609 492 609 492 528.5 320 c 128,-1,2
 448 148 448 148 330 0 c 1,3,-1
 195 0 l 1,4,5
 126 131 126 131 92.5 281.5 c 128,-1,6
 59 432 59 432 59 611 c 0,7,8
 59 640 59 640 61 700 c 1,9,-1
 219 700 l 1,10,11
 218 673 218 673 218 620 c 0,12,13
 218 327 218 327 284 159 c 1,14,15
 348 254 348 254 403.5 392 c 128,-1,16
 459 530 459 530 501 700 c 1,17,-1
 659 700 l 1,0,1
EndSplineSet
EndChar

StartChar: W
Encoding: 87 87 190
Width: 896
GlyphClass: 2
Flags: W
AnchorPoint: "Anchor-10" 0 0 basechar 0
AnchorPoint: "Anchor-9" 490 670 basechar 0
AnchorPoint: "Anchor-8" 0 0 basechar 0
AnchorPoint: "Anchor-7" 396 0 basechar 0
LayerCount: 2
Fore
SplineSet
922 700 m 1,0,1
 867 476 867 476 808 313 c 128,-1,2
 749 150 749 150 669 0 c 1,3,-1
 507 0 l 1,4,5
 480 138 480 138 468.5 226.5 c 128,-1,6
 457 315 457 315 454 419 c 1,7,8
 420 308 420 308 384 219 c 128,-1,9
 348 130 348 130 285 0 c 1,10,-1
 123 0 l 1,11,12
 87 130 87 130 71 270.5 c 128,-1,13
 55 411 55 411 55 597 c 0,14,15
 55 664 55 664 56 700 c 1,16,-1
 208 700 l 1,17,18
 203 543 203 543 203 467 c 0,19,20
 203 376 203 376 208 305.5 c 128,-1,21
 213 235 213 235 225 155 c 1,22,23
 282 279 282 279 320.5 380.5 c 128,-1,24
 359 482 359 482 431 700 c 1,25,-1
 553 700 l 1,26,27
 568 470 568 470 578.5 372 c 128,-1,28
 589 274 589 274 610 158 c 1,29,30
 660 275 660 275 692.5 383 c 128,-1,31
 725 491 725 491 774 700 c 1,32,-1
 922 700 l 1,0,1
EndSplineSet
EndChar

StartChar: X
Encoding: 88 88 195
Width: 602
GlyphClass: 2
Flags: W
AnchorPoint: "Anchor-10" 0 0 basechar 0
AnchorPoint: "Anchor-9" 326 660 basechar 0
AnchorPoint: "Anchor-8" 0 0 basechar 0
AnchorPoint: "Anchor-7" 234 0 basechar 0
LayerCount: 2
Fore
SplineSet
533 529 m 128,-1,1
 475 456 475 456 383 371 c 1,2,3
 430 312 430 312 462 262.5 c 128,-1,4
 494 213 494 213 516 147.5 c 128,-1,5
 538 82 538 82 541 0 c 1,6,-1
 384 0 l 1,7,8
 382 81 382 81 355.5 146.5 c 128,-1,9
 329 212 329 212 283 276 c 1,10,11
 219 212 219 212 174 146.5 c 128,-1,12
 129 81 129 81 104 0 c 1,13,-1
 -53 0 l 1,14,15
 -27 82 -27 82 13.5 147.5 c 128,-1,16
 54 213 54 213 99.5 263 c 128,-1,17
 145 313 145 313 209 371 c 1,18,19
 164 427 164 427 134.5 472.5 c 128,-1,20
 105 518 105 518 84.5 575 c 128,-1,21
 64 632 64 632 60 700 c 1,22,-1
 215 700 l 1,23,24
 220 631 220 631 244 575 c 128,-1,25
 268 519 268 519 309 463 c 1,26,27
 365 519 365 519 405 575 c 128,-1,28
 445 631 445 631 469 700 c 1,29,-1
 624 700 l 1,30,0
 591 602 591 602 533 529 c 128,-1,1
EndSplineSet
EndChar

StartChar: Y
Encoding: 89 89 196
Width: 590
GlyphClass: 2
Flags: W
AnchorPoint: "Anchor-10" 0 0 basechar 0
AnchorPoint: "Anchor-9" 330 660 basechar 0
AnchorPoint: "Anchor-8" 0 0 basechar 0
AnchorPoint: "Anchor-7" 238 0 basechar 0
LayerCount: 2
Fore
SplineSet
621 700 m 1,0,-1
 355 294 l 1,1,-1
 314 0 l 1,2,-1
 162 0 l 1,3,-1
 203 294 l 1,4,-1
 51 700 l 1,5,-1
 209 700 l 1,6,-1
 299 430 l 1,7,-1
 464 700 l 1,8,-1
 621 700 l 1,0,-1
EndSplineSet
EndChar

StartChar: Z
Encoding: 90 90 205
Width: 580
GlyphClass: 2
Flags: W
AnchorPoint: "Anchor-10" 0 0 basechar 0
AnchorPoint: "Anchor-9" 315 660 basechar 0
AnchorPoint: "Anchor-8" 0 0 basechar 0
AnchorPoint: "Anchor-7" 223 0 basechar 0
LayerCount: 2
Fore
SplineSet
556 596 m 1,0,-1
 170 100 l 1,1,-1
 495 100 l 1,2,-1
 481 0 l 1,3,-1
 -13 0 l 1,4,-1
 1 100 l 1,5,-1
 393 600 l 1,6,-1
 69 600 l 1,7,-1
 83 700 l 1,8,-1
 571 700 l 1,9,-1
 556 596 l 1,0,-1
EndSplineSet
EndChar

StartChar: a
Encoding: 97 97 210
Width: 568
GlyphClass: 2
Flags: W
AnchorPoint: "Anchor-10" 0 0 basechar 0
AnchorPoint: "Anchor-9" 297 550 basechar 0
AnchorPoint: "Anchor-8" 446 10 basechar 0
AnchorPoint: "Anchor-7" 222 0 basechar 0
LayerCount: 2
Fore
SplineSet
478 207 m 2,0,1
 468 138 468 138 468 98 c 0,2,3
 468 54 468 54 485 27 c 1,4,5
 462 13 462 13 428.5 3 c 128,-1,6
 395 -7 395 -7 367 -7 c 0,7,8
 341 -7 341 -7 328.5 11.5 c 128,-1,9
 316 30 316 30 315 68 c 1,10,11
 285 28 285 28 245.5 9 c 128,-1,12
 206 -10 206 -10 145 -10 c 256,13,14
 84 -10 84 -10 43 28 c 128,-1,15
 2 66 2 66 2 134 c 0,16,17
 2 226 2 226 88.5 269.5 c 128,-1,18
 175 313 175 313 346 321 c 1,19,-1
 353 373 l 2,20,21
 354 380 354 380 354 392 c 0,22,23
 354 423 354 423 336 438.5 c 128,-1,24
 318 454 318 454 278 454 c 0,25,26
 239 454 239 454 205.5 439.5 c 128,-1,27
 172 425 172 425 129 398 c 0,28,29
 122 394 122 394 115 394 c 0,30,31
 96 394 96 394 78.5 418 c 128,-1,32
 61 442 61 442 51 481 c 1,33,34
 91 512 91 512 163 536 c 128,-1,35
 235 560 235 560 311 560 c 0,36,37
 406 560 406 560 454.5 520 c 128,-1,38
 503 480 503 480 503 407 c 0,39,40
 503 385 503 385 501 373 c 2,41,-1
 478 207 l 2,0,1
325 171 m 1,43,-1
 335 246 l 1,44,45
 234 243 234 243 194.5 218 c 128,-1,46
 155 193 155 193 155 150 c 0,47,48
 155 120 155 120 169 103 c 128,-1,49
 183 86 183 86 211 86 c 0,50,42
 271 86 271 86 325 171 c 1,43,-1
EndSplineSet
Substitution2: "Single Substitution lookup 20 subtable" ordfeminine
Substitution2: "'aalt' Access All Alternates lookup 0 subtable" ordfeminine
EndChar

StartChar: uni0251
Encoding: 593 593 229
Width: 599
Flags: W
LayerCount: 2
Fore
SplineSet
540 423 m 2,0,1
 519 275 519 275 509.5 200.5 c 128,-1,2
 500 126 500 126 500 98 c 0,3,4
 500 54 500 54 517 27 c 1,5,6
 491 13 491 13 458.5 3 c 128,-1,7
 426 -7 426 -7 394 -7 c 0,8,9
 357 -7 357 -7 349 42 c 1,10,11
 295 -10 295 -10 215 -10 c 0,12,13
 126 -10 126 -10 66.5 43.5 c 128,-1,14
 7 97 7 97 7 205 c 0,15,16
 7 310 7 310 41.5 390 c 128,-1,17
 76 470 76 470 143 515 c 128,-1,18
 210 560 210 560 304 560 c 0,19,20
 332 560 332 560 360 553 c 128,-1,21
 388 546 388 546 408 534 c 1,22,23
 408 538 408 538 410 550 c 1,24,-1
 558 550 l 1,25,-1
 540 423 l 2,0,1
353 145 m 1,27,28
 361 207 361 207 384 367 c 2,29,-1
 394 436 l 1,30,31
 379 451 379 451 356 458.5 c 128,-1,32
 333 466 333 466 307 466 c 0,33,34
 255 466 255 466 221.5 428.5 c 128,-1,35
 188 391 188 391 172.5 334 c 128,-1,36
 157 277 157 277 157 216 c 0,37,38
 157 148 157 148 181 117 c 128,-1,39
 205 86 205 86 244 86 c 0,40,26
 306 86 306 86 353 145 c 1,27,28
EndSplineSet
EndChar

StartChar: aogonek
Encoding: 261 261 231
Width: 568
GlyphClass: 2
Flags: W
AnchorPoint: "Anchor-10" 0 0 basechar 0
AnchorPoint: "Anchor-9" 297 550 basechar 0
AnchorPoint: "Anchor-8" 446 10 basechar 0
AnchorPoint: "Anchor-7" 222 0 basechar 0
LayerCount: 2
Fore
SplineSet
478 207 m 2,0,1
 468 138 468 138 468 98 c 0,2,3
 468 54 468 54 485 27 c 1,4,5
 466 15 466 15 444 8 c 1,6,7
 389 -53 389 -53 389 -91 c 0,8,9
 389 -126 389 -126 413 -126 c 0,10,11
 431 -126 431 -126 447 -116 c 1,12,13
 463 -128 463 -128 463 -144 c 0,14,15
 463 -171 463 -171 440 -185.5 c 128,-1,16
 417 -200 417 -200 375 -200 c 0,17,18
 273 -200 273 -200 273 -132 c 0,19,20
 273 -58 273 -58 356 -6 c 1,21,22
 316 1 316 1 315 68 c 1,23,24
 285 28 285 28 245.5 9 c 128,-1,25
 206 -10 206 -10 145 -10 c 256,26,27
 84 -10 84 -10 43 28 c 128,-1,28
 2 66 2 66 2 134 c 0,29,30
 2 226 2 226 88.5 269.5 c 128,-1,31
 175 313 175 313 346 321 c 1,32,-1
 353 373 l 2,33,34
 354 380 354 380 354 392 c 0,35,36
 354 423 354 423 336 438.5 c 128,-1,37
 318 454 318 454 278 454 c 0,38,39
 239 454 239 454 205.5 439.5 c 128,-1,40
 172 425 172 425 129 398 c 0,41,42
 122 394 122 394 115 394 c 0,43,44
 96 394 96 394 78.5 418 c 128,-1,45
 61 442 61 442 51 481 c 1,46,47
 91 512 91 512 163 536 c 128,-1,48
 235 560 235 560 311 560 c 0,49,50
 406 560 406 560 454.5 520 c 128,-1,51
 503 480 503 480 503 407 c 0,52,53
 503 385 503 385 501 373 c 2,54,-1
 478 207 l 2,0,1
325 171 m 1,56,-1
 335 246 l 1,57,58
 234 243 234 243 194.5 218 c 128,-1,59
 155 193 155 193 155 150 c 0,60,61
 155 120 155 120 169 103 c 128,-1,62
 183 86 183 86 211 86 c 0,63,55
 271 86 271 86 325 171 c 1,56,-1
EndSplineSet
EndChar

StartChar: ae
Encoding: 230 230 235
Width: 900
GlyphClass: 2
Flags: W
AnchorPoint: "Anchor-10" 0 0 basechar 0
AnchorPoint: "Anchor-9" 473 550 basechar 0
AnchorPoint: "Anchor-8" 0 0 basechar 0
AnchorPoint: "Anchor-7" 396 0 basechar 0
LayerCount: 2
Fore
SplineSet
490 248 m 1,0,1
 489 234 489 234 489 208 c 0,2,3
 489 144 489 144 516.5 115 c 128,-1,4
 544 86 544 86 586 86 c 0,5,6
 626 86 626 86 650 101.5 c 128,-1,7
 674 117 674 117 701 147 c 2,8,-1
 717 164 l 2,9,10
 726 173 726 173 739 173 c 0,11,12
 758 173 758 173 782 160 c 128,-1,13
 806 147 806 147 827 128 c 1,14,15
 787 63 787 63 729 25.5 c 128,-1,16
 671 -12 671 -12 576 -12 c 0,17,18
 522 -12 522 -12 476 5.5 c 128,-1,19
 430 23 430 23 397 56 c 1,20,21
 315 -12 315 -12 184 -12 c 0,22,23
 103 -12 103 -12 53.5 31 c 128,-1,24
 4 74 4 74 4 145 c 0,25,26
 4 250 4 250 97.5 291 c 128,-1,27
 191 332 191 332 352 330 c 1,28,29
 358 366 358 366 358 388 c 0,30,31
 358 419 358 419 336.5 436.5 c 128,-1,32
 315 454 315 454 279 454 c 0,33,34
 250 454 250 454 227 445 c 128,-1,35
 204 436 204 436 170 416 c 2,36,-1
 128 393 l 2,37,38
 120 389 120 389 114 389 c 0,39,40
 96 389 96 389 80.5 414 c 128,-1,41
 65 439 65 439 54 481 c 1,42,43
 106 514 106 514 170 537 c 128,-1,44
 234 560 234 560 302 560 c 0,45,46
 354 560 354 560 396 546 c 128,-1,47
 438 532 438 532 466 505 c 1,48,49
 538 560 538 560 641 560 c 0,50,51
 851 560 851 560 851 352 c 0,52,53
 851 325 851 325 846.5 296 c 128,-1,54
 842 267 842 267 835 248 c 1,55,-1
 490 248 l 1,0,1
548 428.5 m 128,-1,57
 518 391 518 391 503 330 c 1,58,-1
 706 330 l 1,59,60
 709 353 709 353 709 374 c 0,61,62
 709 418 709 418 687.5 442 c 128,-1,63
 666 466 666 466 625 466 c 0,64,56
 578 466 578 466 548 428.5 c 128,-1,57
345 155 m 1,66,67
 339 181 339 181 339 211 c 0,68,69
 339 234 339 234 340 246 c 1,70,71
 241 243 241 243 198.5 216 c 128,-1,72
 156 189 156 189 156 148 c 0,73,74
 156 119 156 119 173.5 101.5 c 128,-1,75
 191 84 191 84 222 84 c 0,76,65
 295 84 295 84 345 155 c 1,66,67
EndSplineSet
EndChar

StartChar: b
Encoding: 98 98 237
Width: 610
Flags: W
LayerCount: 2
Fore
SplineSet
462.5 532.5 m 128,-1,1
 507 505 507 505 531.5 454.5 c 128,-1,2
 556 404 556 404 556 337 c 0,3,4
 556 236 556 236 523.5 157 c 128,-1,5
 491 78 491 78 433 34 c 128,-1,6
 375 -10 375 -10 300 -10 c 0,7,8
 256 -10 256 -10 216.5 10.5 c 128,-1,9
 177 31 177 31 157 64 c 1,10,11
 146 27 146 27 130 10 c 128,-1,12
 114 -7 114 -7 91 -7 c 0,13,14
 63 -7 63 -7 32 2 c 128,-1,15
 1 11 1 11 -24 27 c 1,16,17
 -1 53 -1 53 11.5 90 c 128,-1,18
 24 127 24 127 35 207 c 2,19,-1
 117 791 l 1,20,-1
 265 791 l 1,21,-1
 226 515 l 1,22,23
 286 560 286 560 359 560 c 0,24,0
 418 560 418 560 462.5 532.5 c 128,-1,1
346 116.5 m 128,-1,26
 375 147 375 147 391 202.5 c 128,-1,27
 407 258 407 258 407 332 c 0,28,29
 407 396 407 396 384 431 c 128,-1,30
 361 466 361 466 320 466 c 0,31,32
 292 466 292 466 263.5 454 c 128,-1,33
 235 442 235 442 213 420 c 1,34,-1
 176 163 l 1,35,36
 193 124 193 124 218 105 c 128,-1,37
 243 86 243 86 279 86 c 0,38,25
 317 86 317 86 346 116.5 c 128,-1,26
EndSplineSet
EndChar

StartChar: c
Encoding: 99 99 238
Width: 577
GlyphClass: 2
Flags: W
AnchorPoint: "Anchor-10" 0 0 basechar 0
AnchorPoint: "Anchor-9" 327 550 basechar 0
AnchorPoint: "Anchor-8" 0 0 basechar 0
AnchorPoint: "Anchor-7" 250 0 basechar 0
LayerCount: 2
Fore
SplineSet
72 51 m 128,-1,1
 7 112 7 112 7 225 c 0,2,3
 7 385 7 385 86 472.5 c 128,-1,4
 165 560 165 560 308 560 c 0,5,6
 409 560 409 560 468 509.5 c 128,-1,7
 527 459 527 459 528 370 c 1,8,9
 490 352 490 352 470.5 345.5 c 128,-1,10
 451 339 451 339 433 339 c 0,11,12
 417 339 417 339 408 349 c 128,-1,13
 399 359 399 359 395 381 c 0,14,15
 379 464 379 464 305 464 c 0,16,17
 230 464 230 464 193.5 406.5 c 128,-1,18
 157 349 157 349 157 231 c 0,19,20
 157 162 157 162 183.5 126 c 128,-1,21
 210 90 210 90 261 90 c 0,22,23
 308 90 308 90 337.5 117.5 c 128,-1,24
 367 145 367 145 392 213 c 1,25,26
 485 213 485 213 485 132 c 0,27,28
 485 91 485 91 456 58.5 c 128,-1,29
 427 26 427 26 375 8 c 128,-1,30
 323 -10 323 -10 257 -10 c 0,31,0
 137 -10 137 -10 72 51 c 128,-1,1
EndSplineSet
EndChar

StartChar: ccedilla
Encoding: 231 231 241
Width: 577
GlyphClass: 2
Flags: W
AnchorPoint: "Anchor-10" 0 0 basechar 0
AnchorPoint: "Anchor-9" 0 0 basechar 0
AnchorPoint: "Anchor-8" 0 0 basechar 0
AnchorPoint: "Anchor-7" 220 -214 basechar 0
LayerCount: 2
Fore
SplineSet
485 132 m 0,1,2
 485 75 485 75 432 37 c 128,-1,3
 379 -1 379 -1 293 -9 c 1,4,-1
 247 -51 l 1,5,-1
 258 -51 l 2,6,7
 299 -51 299 -51 324.5 -71 c 128,-1,8
 350 -91 350 -91 350 -124 c 0,9,10
 350 -181 350 -181 307 -210 c 128,-1,11
 264 -239 264 -239 193 -239 c 0,12,13
 141 -239 141 -239 118.5 -226 c 128,-1,14
 96 -213 96 -213 96 -192 c 0,15,16
 96 -179 96 -179 104 -163 c 1,17,18
 115 -168 115 -168 137.5 -171 c 128,-1,19
 160 -174 160 -174 186 -174 c 0,20,21
 215 -174 215 -174 230 -163.5 c 128,-1,22
 245 -153 245 -153 245 -135 c 0,23,24
 245 -112 245 -112 216 -112 c 0,25,26
 202 -112 202 -112 187 -117 c 1,27,-1
 156 -75 l 1,28,-1
 208 -7 l 1,29,30
 111 5 111 5 59 65 c 128,-1,31
 7 125 7 125 7 225 c 0,32,33
 7 385 7 385 86 472.5 c 128,-1,34
 165 560 165 560 308 560 c 0,35,36
 409 560 409 560 468 509.5 c 128,-1,37
 527 459 527 459 528 370 c 1,38,39
 490 352 490 352 470.5 345.5 c 128,-1,40
 451 339 451 339 433 339 c 0,41,42
 417 339 417 339 408 349 c 128,-1,43
 399 359 399 359 395 381 c 0,44,45
 379 464 379 464 305 464 c 0,46,47
 230 464 230 464 193.5 406.5 c 128,-1,48
 157 349 157 349 157 231 c 0,49,50
 157 162 157 162 183.5 126 c 128,-1,51
 210 90 210 90 261 90 c 0,52,53
 308 90 308 90 337.5 117.5 c 128,-1,54
 367 145 367 145 392 213 c 1,55,0
 485 213 485 213 485 132 c 0,1,2
EndSplineSet
EndChar

StartChar: d
Encoding: 100 100 244
Width: 598
GlyphClass: 2
Flags: W
AnchorPoint: "Anchor-10" 598 550 basechar 0
AnchorPoint: "Anchor-9" 347 750 basechar 0
AnchorPoint: "Anchor-8" 0 0 basechar 0
AnchorPoint: "Anchor-7" 242 0 basechar 0
LayerCount: 2
Fore
SplineSet
499 98 m 0,1,2
 499 54 499 54 516 27 c 1,3,4
 486 11 486 11 453.5 2 c 128,-1,5
 421 -7 421 -7 393 -7 c 0,6,7
 370 -7 370 -7 358.5 10 c 128,-1,8
 347 27 347 27 346 62 c 1,9,10
 318 26 318 26 279 8 c 128,-1,11
 240 -10 240 -10 194 -10 c 0,12,13
 104 -10 104 -10 55 45.5 c 128,-1,14
 6 101 6 101 6 202 c 0,15,16
 6 307 6 307 43.5 388.5 c 128,-1,17
 81 470 81 470 148.5 515 c 128,-1,18
 216 560 216 560 303 560 c 0,19,20
 332 560 332 560 359 553 c 128,-1,21
 386 546 386 546 407 534 c 1,22,-1
 443 791 l 1,23,-1
 591 791 l 1,24,-1
 509 207 l 2,25,0
 499 140 499 140 499 98 c 0,1,2
300.5 103 m 128,-1,27
 329 120 329 120 354 159 c 1,28,-1
 393 436 l 1,29,30
 363 466 363 466 306 466 c 0,31,32
 262 466 262 466 227.5 432 c 128,-1,33
 193 398 193 398 174 337.5 c 128,-1,34
 155 277 155 277 155 199 c 0,35,36
 155 141 155 141 174 113.5 c 128,-1,37
 193 86 193 86 233 86 c 0,38,26
 272 86 272 86 300.5 103 c 128,-1,27
EndSplineSet
EndChar

StartChar: eth
Encoding: 240 240 245
Width: 607
Flags: W
LayerCount: 2
Fore
SplineSet
532.5 544 m 128,-1,1
 559 464 559 464 559 377 c 0,2,3
 559 196 559 196 485 92 c 128,-1,4
 411 -12 411 -12 255 -12 c 0,5,6
 140 -12 140 -12 78 46.5 c 128,-1,7
 16 105 16 105 16 207 c 0,8,9
 16 303 16 303 51 378.5 c 128,-1,10
 86 454 86 454 153.5 497 c 128,-1,11
 221 540 221 540 313 540 c 0,12,13
 346 540 346 540 374 530 c 1,14,15
 354 575 354 575 326 614 c 1,16,-1
 245 565 l 1,17,-1
 210 626 l 1,18,-1
 281 669 l 1,19,20
 253 700 253 700 217 727 c 1,21,-1
 334 804 l 1,22,23
 373 777 373 777 406 744 c 1,24,-1
 490 795 l 1,25,-1
 525 733 l 1,26,-1
 454 691 l 1,27,0
 506 624 506 624 532.5 544 c 128,-1,1
369 149 m 128,-1,29
 402 216 402 216 402 322 c 0,30,31
 402 382 402 382 379 414 c 128,-1,32
 356 446 356 446 309 446 c 0,33,34
 232 446 232 446 198 378 c 128,-1,35
 164 310 164 310 164 203 c 0,36,37
 164 142 164 142 187 112 c 128,-1,38
 210 82 210 82 258 82 c 0,39,28
 336 82 336 82 369 149 c 128,-1,29
EndSplineSet
EndChar

StartChar: dcroat
Encoding: 273 273 247
Width: 602
GlyphClass: 2
Flags: W
AnchorPoint: "Anchor-10" 598 550 basechar 0
AnchorPoint: "Anchor-9" 347 750 basechar 0
AnchorPoint: "Anchor-8" 0 0 basechar 0
AnchorPoint: "Anchor-7" 242 0 basechar 0
LayerCount: 2
Fore
SplineSet
509 207 m 2,0,1
 499 140 499 140 499 98 c 0,2,3
 499 54 499 54 516 27 c 1,4,5
 486 11 486 11 453.5 2 c 128,-1,6
 421 -7 421 -7 393 -7 c 0,7,8
 370 -7 370 -7 358.5 10 c 128,-1,9
 347 27 347 27 346 62 c 1,10,11
 318 26 318 26 279 8 c 128,-1,12
 240 -10 240 -10 194 -10 c 0,13,14
 104 -10 104 -10 55 45.5 c 128,-1,15
 6 101 6 101 6 202 c 0,16,17
 6 307 6 307 43.5 388.5 c 128,-1,18
 81 470 81 470 148.5 515 c 128,-1,19
 216 560 216 560 303 560 c 0,20,21
 332 560 332 560 359 553 c 128,-1,22
 386 546 386 546 407 534 c 1,23,-1
 420 630 l 1,24,-1
 322 630 l 1,25,-1
 335 720 l 1,26,-1
 433 720 l 1,27,-1
 443 791 l 1,28,-1
 591 791 l 1,29,-1
 581 720 l 1,30,-1
 646 720 l 1,31,-1
 633 630 l 1,32,-1
 568 630 l 1,33,-1
 509 207 l 2,0,1
300.5 103 m 128,-1,35
 329 120 329 120 354 159 c 1,36,-1
 393 436 l 1,37,38
 363 466 363 466 306 466 c 0,39,40
 262 466 262 466 227.5 432 c 128,-1,41
 193 398 193 398 174 337.5 c 128,-1,42
 155 277 155 277 155 199 c 0,43,44
 155 141 155 141 174 113.5 c 128,-1,45
 193 86 193 86 233 86 c 0,46,34
 272 86 272 86 300.5 103 c 128,-1,35
EndSplineSet
EndChar

StartChar: e
Encoding: 101 101 250
Width: 580
GlyphClass: 2
Flags: W
AnchorPoint: "Anchor-10" 0 0 basechar 0
AnchorPoint: "Anchor-9" 316 550 basechar 0
AnchorPoint: "Anchor-8" 345 10 basechar 0
AnchorPoint: "Anchor-7" 243 0 basechar 0
LayerCount: 2
Fore
SplineSet
167 248 m 1,0,-1
 167 227 l 2,1,2
 167 161 167 161 192.5 124.5 c 128,-1,3
 218 88 218 88 265 88 c 0,4,5
 303 88 303 88 330 103 c 128,-1,6
 357 118 357 118 390 157 c 0,7,8
 399 168 399 168 412 168 c 0,9,10
 429 168 429 168 452.5 156 c 128,-1,11
 476 144 476 144 500 123 c 1,12,13
 461 55 461 55 400.5 22.5 c 128,-1,14
 340 -10 340 -10 252 -10 c 0,15,16
 183 -10 183 -10 129.5 19.5 c 128,-1,17
 76 49 76 49 46.5 102 c 128,-1,18
 17 155 17 155 17 224 c 0,19,20
 17 327 17 327 53.5 403 c 128,-1,21
 90 479 90 479 158 519.5 c 128,-1,22
 226 560 226 560 319 560 c 0,23,24
 431 560 431 560 482.5 508.5 c 128,-1,25
 534 457 534 457 534 346 c 0,26,27
 534 308 534 308 524 248 c 1,28,-1
 167 248 l 1,0,-1
229 431 m 128,-1,30
 194 396 194 396 178 332 c 1,31,-1
 389 332 l 1,32,33
 392 355 392 355 392 374 c 0,34,35
 392 466 392 466 314 466 c 0,36,29
 264 466 264 466 229 431 c 128,-1,30
EndSplineSet
EndChar

StartChar: eogonek
Encoding: 281 281 266
Width: 580
GlyphClass: 2
Flags: W
AnchorPoint: "Anchor-10" 0 0 basechar 0
AnchorPoint: "Anchor-9" 316 550 basechar 0
AnchorPoint: "Anchor-8" 345 10 basechar 0
AnchorPoint: "Anchor-7" 243 0 basechar 0
LayerCount: 2
Fore
SplineSet
167 248 m 1,0,-1
 167 227 l 2,1,2
 167 161 167 161 192.5 124.5 c 128,-1,3
 218 88 218 88 265 88 c 0,4,5
 303 88 303 88 330 103 c 128,-1,6
 357 118 357 118 390 157 c 0,7,8
 399 168 399 168 412 168 c 0,9,10
 429 168 429 168 452.5 156 c 128,-1,11
 476 144 476 144 500 123 c 1,12,13
 471 72 471 72 430.5 41.5 c 128,-1,14
 390 11 390 11 335 -2 c 1,15,16
 288 -54 288 -54 288 -91 c 0,17,18
 288 -126 288 -126 312 -126 c 0,19,20
 330 -126 330 -126 346 -116 c 1,21,22
 362 -128 362 -128 362 -144 c 0,23,24
 362 -171 362 -171 339 -185.5 c 128,-1,25
 316 -200 316 -200 274 -200 c 0,26,27
 172 -200 172 -200 172 -132 c 0,28,29
 172 -62 172 -62 249 -10 c 1,30,31
 181 -10 181 -10 128 19.5 c 128,-1,32
 75 49 75 49 46 102 c 128,-1,33
 17 155 17 155 17 224 c 0,34,35
 17 327 17 327 53.5 403 c 128,-1,36
 90 479 90 479 158 519.5 c 128,-1,37
 226 560 226 560 319 560 c 0,38,39
 431 560 431 560 482.5 508.5 c 128,-1,40
 534 457 534 457 534 346 c 0,41,42
 534 308 534 308 524 248 c 1,43,-1
 167 248 l 1,0,-1
229 431 m 128,-1,45
 194 396 194 396 178 332 c 1,46,-1
 389 332 l 1,47,48
 392 355 392 355 392 374 c 0,49,50
 392 466 392 466 314 466 c 0,51,44
 264 466 264 466 229 431 c 128,-1,45
EndSplineSet
EndChar

StartChar: uni0259
Encoding: 601 601 268
Width: 580
GlyphClass: 2
Flags: W
AnchorPoint: "Anchor-10" 0 0 basechar 0
AnchorPoint: "Anchor-9" 337 550 basechar 0
AnchorPoint: "Anchor-8" 235 540 basechar 0
AnchorPoint: "Anchor-7" 264 0 basechar 0
LayerCount: 2
Fore
SplineSet
450.5 530.5 m 128,-1,1
 504 501 504 501 533.5 448 c 128,-1,2
 563 395 563 395 563 326 c 0,3,4
 563 223 563 223 526.5 147 c 128,-1,5
 490 71 490 71 422 30.5 c 128,-1,6
 354 -10 354 -10 261 -10 c 0,7,8
 149 -10 149 -10 97.5 41.5 c 128,-1,9
 46 93 46 93 46 204 c 0,10,11
 46 242 46 242 56 302 c 1,12,-1
 413 302 l 1,13,-1
 413 323 l 2,14,15
 413 389 413 389 387.5 425.5 c 128,-1,16
 362 462 362 462 315 462 c 0,17,18
 277 462 277 462 250 447 c 128,-1,19
 223 432 223 432 190 393 c 0,20,21
 181 382 181 382 168 382 c 0,22,23
 151 382 151 382 127.5 394 c 128,-1,24
 104 406 104 406 80 427 c 1,25,26
 119 495 119 495 179.5 527.5 c 128,-1,27
 240 560 240 560 328 560 c 0,28,0
 397 560 397 560 450.5 530.5 c 128,-1,1
351 119 m 128,-1,30
 386 154 386 154 402 218 c 1,31,-1
 191 218 l 1,32,33
 188 196 188 196 188 176 c 0,34,35
 188 84 188 84 266 84 c 0,36,29
 316 84 316 84 351 119 c 128,-1,30
EndSplineSet
EndChar

StartChar: f
Encoding: 102 102 269
Width: 365
Flags: W
LayerCount: 2
Fore
SplineSet
397 774 m 128,-1,1
 428 756 428 756 428 725 c 0,2,3
 428 711 428 711 421.5 698.5 c 128,-1,4
 415 686 415 686 406 679 c 1,5,6
 373 694 373 694 329 694 c 0,7,8
 302 694 302 694 285 673 c 128,-1,9
 268 652 268 652 262 613 c 2,10,-1
 253 550 l 1,11,-1
 357 550 l 1,12,-1
 344 458 l 1,13,-1
 240 458 l 1,14,-1
 176 0 l 1,15,-1
 28 0 l 1,16,-1
 92 458 l 1,17,-1
 9 458 l 1,18,-1
 22 550 l 1,19,-1
 105 550 l 1,20,-1
 114 614 l 2,21,22
 126 699 126 699 177 745.5 c 128,-1,23
 228 792 228 792 311 792 c 0,24,0
 366 792 366 792 397 774 c 128,-1,1
EndSplineSet
EndChar

StartChar: g
Encoding: 103 103 270
Width: 585
GlyphClass: 2
Flags: W
AnchorPoint: "Anchor-10" 0 0 basechar 0
AnchorPoint: "Anchor-9" 313 550 basechar 0
AnchorPoint: "Anchor-8" 0 0 basechar 0
AnchorPoint: "Anchor-7" 207 -187 basechar 0
LayerCount: 2
Fore
SplineSet
597 495 m 1,1,2
 525 495 525 495 491 476 c 1,3,4
 518 436 518 436 518 391 c 0,5,6
 518 289 518 289 452 236.5 c 128,-1,7
 386 184 386 184 258 184 c 0,8,9
 208 184 208 184 186.5 177 c 128,-1,10
 165 170 165 170 162 153 c 0,11,12
 160 141 160 141 167.5 135 c 128,-1,13
 175 129 175 129 197.5 127 c 128,-1,14
 220 125 220 125 269 125 c 0,15,16
 380 125 380 125 438 88 c 128,-1,17
 496 51 496 51 496 -19 c 0,18,19
 496 -108 496 -108 421 -157.5 c 128,-1,20
 346 -207 346 -207 213 -207 c 0,21,22
 94 -207 94 -207 29 -171.5 c 128,-1,23
 -36 -136 -36 -136 -36 -71 c 0,24,25
 -36 37 -36 37 114 52 c 1,26,-1
 114 55 l 1,27,28
 78 62 78 62 58 80 c 128,-1,29
 38 98 38 98 38 124 c 0,30,31
 38 153 38 153 63 176 c 128,-1,32
 88 199 88 199 129 210 c 1,33,34
 88 230 88 230 66 264.5 c 128,-1,35
 44 299 44 299 44 343 c 0,36,37
 44 446 44 446 112 503 c 128,-1,38
 180 560 180 560 303 560 c 0,39,40
 368 560 368 560 420 535 c 1,41,42
 450 568 450 568 484.5 588.5 c 128,-1,43
 519 609 519 609 548 609 c 0,44,45
 576 609 576 609 588.5 594 c 128,-1,46
 601 579 601 579 601 544 c 0,47,0
 601 518 601 518 597 495 c 1,1,2
341 310 m 128,-1,49
 366 340 366 340 366 398 c 0,50,51
 366 466 366 466 293 466 c 0,52,53
 246 466 246 466 220.5 435 c 128,-1,54
 195 404 195 404 195 348 c 0,55,56
 195 313 195 313 212.5 296.5 c 128,-1,57
 230 280 230 280 267 280 c 0,58,48
 316 280 316 280 341 310 c 128,-1,49
118 -53 m 0,60,61
 118 -84 118 -84 141.5 -97.5 c 128,-1,62
 165 -111 165 -111 216 -111 c 0,63,64
 281 -111 281 -111 317.5 -89 c 128,-1,65
 354 -67 354 -67 354 -27 c 0,66,67
 354 33 354 33 240 33 c 0,68,59
 118 33 118 33 118 -53 c 0,60,61
EndSplineSet
EndChar

StartChar: h
Encoding: 104 104 277
Width: 630
GlyphClass: 2
Flags: W
AnchorPoint: "Anchor-10" 0 0 basechar 0
AnchorPoint: "Anchor-9" 173 750 basechar 0
AnchorPoint: "Anchor-8" 0 0 basechar 0
AnchorPoint: "Anchor-7" 258 0 basechar 0
LayerCount: 2
Fore
SplineSet
513.5 525 m 128,-1,1
 549 490 549 490 549 428 c 0,2,3
 549 407 549 407 547 396 c 2,4,-1
 492 0 l 1,5,-1
 344 0 l 1,6,-1
 397 379 l 2,7,8
 399 395 399 395 399 401 c 0,9,10
 399 429 399 429 386 441.5 c 128,-1,11
 373 454 373 454 344 454 c 0,12,13
 277 454 277 454 198 396 c 1,14,-1
 142 0 l 1,15,-1
 -6 0 l 1,16,-1
 105 791 l 1,17,-1
 253 791 l 1,18,-1
 210 483 l 1,19,20
 254 519 254 519 308.5 539.5 c 128,-1,21
 363 560 363 560 414 560 c 0,22,0
 478 560 478 560 513.5 525 c 128,-1,1
EndSplineSet
EndChar

StartChar: hbar
Encoding: 295 295 278
Width: 669
GlyphClass: 2
Flags: W
AnchorPoint: "Anchor-10" 0 0 basechar 0
AnchorPoint: "Anchor-9" 212 750 basechar 0
AnchorPoint: "Anchor-8" 0 0 basechar 0
AnchorPoint: "Anchor-7" 297 0 basechar 0
LayerCount: 2
Fore
SplineSet
552.5 525 m 128,-1,1
 588 490 588 490 588 428 c 0,2,3
 588 407 588 407 586 396 c 2,4,-1
 531 0 l 1,5,-1
 383 0 l 1,6,-1
 436 379 l 2,7,8
 438 395 438 395 438 401 c 0,9,10
 438 429 438 429 425 441.5 c 128,-1,11
 412 454 412 454 383 454 c 0,12,13
 316 454 316 454 237 396 c 1,14,-1
 181 0 l 1,15,-1
 33 0 l 1,16,-1
 121 629 l 1,17,-1
 70 629 l 1,18,-1
 81 704 l 1,19,-1
 132 704 l 1,20,-1
 144 791 l 1,21,-1
 292 791 l 1,22,-1
 280 704 l 1,23,-1
 380 704 l 1,24,-1
 369 629 l 1,25,-1
 269 629 l 1,26,-1
 249 483 l 1,27,28
 293 519 293 519 347.5 539.5 c 128,-1,29
 402 560 402 560 453 560 c 0,30,0
 517 560 517 560 552.5 525 c 128,-1,1
EndSplineSet
EndChar

StartChar: dotlessi
Encoding: 305 305 283
Width: 288
GlyphClass: 2
Flags: W
AnchorPoint: "Anchor-10" 0 0 basechar 0
AnchorPoint: "Anchor-9" 164 550 basechar 0
AnchorPoint: "Anchor-8" 161 0 basechar 0
AnchorPoint: "Anchor-7" 87 0 basechar 0
LayerCount: 2
Fore
SplineSet
90 550 m 1,0,-1
 238 550 l 1,1,-1
 161 0 l 1,2,-1
 13 0 l 1,3,-1
 90 550 l 1,0,-1
EndSplineSet
EndChar

StartChar: uni0237
Encoding: 567 567 297
Width: 270
GlyphClass: 2
Flags: W
AnchorPoint: "Anchor-10" 0 0 basechar 0
AnchorPoint: "Anchor-9" 154 550 basechar 0
AnchorPoint: "Anchor-8" 0 0 basechar 0
AnchorPoint: "Anchor-7" -53 -212 basechar 0
LayerCount: 2
Fore
SplineSet
-120.5 -204.5 m 128,-1,1
 -149 -197 -149 -197 -159 -185 c 0,2,3
 -165 -179 -165 -179 -165 -169 c 0,4,5
 -165 -156 -165 -156 -155.5 -141.5 c 128,-1,6
 -146 -127 -146 -127 -139 -122 c 1,7,8
 -128 -128 -128 -128 -115 -131 c 128,-1,9
 -102 -134 -102 -134 -79 -134 c 0,10,11
 -49 -134 -49 -134 -30 -116 c 128,-1,12
 -11 -98 -11 -98 -6 -62 c 2,13,-1
 80 550 l 1,14,-1
 228 550 l 1,15,-1
 143 -53 l 2,16,17
 133 -124 133 -124 82 -168 c 128,-1,18
 31 -212 31 -212 -53 -212 c 0,19,0
 -92 -212 -92 -212 -120.5 -204.5 c 128,-1,1
EndSplineSet
EndChar

StartChar: k
Encoding: 107 107 299
Width: 617
Flags: W
LayerCount: 2
Fore
SplineSet
428 259 m 128,-1,1
 443 245 443 245 454 219 c 2,2,-1
 551 0 l 1,3,4
 536 0 536 0 476 -3 c 2,5,-1
 440 -5 l 2,6,7
 412 -5 412 -5 398 4.5 c 128,-1,8
 384 14 384 14 375 35 c 2,9,-1
 316 176 l 2,10,11
 305 204 305 204 285.5 215.5 c 128,-1,12
 266 227 266 227 219 224 c 2,13,-1
 193 222 l 1,14,-1
 162 0 l 1,15,-1
 14 0 l 1,16,-1
 125 791 l 1,17,-1
 273 791 l 1,18,-1
 207 324 l 1,19,-1
 229 325 l 2,20,21
 266 326 266 326 285.5 338.5 c 128,-1,22
 305 351 305 351 328 386 c 2,23,-1
 431 550 l 1,24,-1
 595 550 l 1,25,-1
 457 353 l 2,26,27
 438 324 438 324 423 308.5 c 128,-1,28
 408 293 408 293 384 281 c 1,29,0
 413 273 413 273 428 259 c 128,-1,1
EndSplineSet
EndChar

StartChar: kgreenlandic
Encoding: 312 312 301
Width: 617
Flags: W
LayerCount: 2
Fore
SplineSet
434 219 m 2,1,-1
 546 15 l 1,2,3
 479 -4 479 -4 443 -4 c 0,4,5
 417 -4 417 -4 401.5 5.5 c 128,-1,6
 386 15 386 15 375 35 c 2,7,-1
 296 176 l 2,8,9
 293 181 293 181 284.5 197.5 c 128,-1,10
 276 214 276 214 258.5 220 c 128,-1,11
 241 226 241 226 209 224 c 2,12,-1
 193 223 l 1,13,-1
 162 0 l 1,14,-1
 14 0 l 1,15,-1
 91 550 l 1,16,-1
 239 550 l 1,17,-1
 207 324 l 1,18,-1
 216 325 l 2,19,20
 240 326 240 326 254 332 c 128,-1,21
 268 338 268 338 277.5 348.5 c 128,-1,22
 287 359 287 359 308 387 c 2,23,-1
 431 550 l 1,24,-1
 595 550 l 1,25,-1
 431 344 l 2,26,27
 401 307 401 307 369 281 c 1,28,0
 410 264 410 264 434 219 c 2,1,-1
EndSplineSet
EndChar

StartChar: l
Encoding: 108 108 302
Width: 268
GlyphClass: 2
Flags: W
AnchorPoint: "Anchor-10" 268 550 basechar 0
AnchorPoint: "Anchor-9" 182 750 basechar 0
AnchorPoint: "Anchor-8" 0 0 basechar 0
AnchorPoint: "Anchor-7" 77 0 basechar 0
LayerCount: 2
Fore
SplineSet
114 791 m 1,0,-1
 262 791 l 1,1,-1
 151 0 l 1,2,-1
 3 0 l 1,3,-1
 114 791 l 1,0,-1
EndSplineSet
EndChar

StartChar: lslash
Encoding: 322 322 310
Width: 268
GlyphClass: 2
Flags: W
AnchorPoint: "Anchor-10" 268 550 basechar 0
AnchorPoint: "Anchor-9" 182 750 basechar 0
AnchorPoint: "Anchor-8" 0 0 basechar 0
AnchorPoint: "Anchor-7" 77 0 basechar 0
LayerCount: 2
Fore
SplineSet
268 405 m 1,0,-1
 204 377 l 1,1,-1
 151 0 l 1,2,-1
 3 0 l 1,3,-1
 46 308 l 1,4,-1
 -18 280 l 1,5,-1
 -2 390 l 1,6,-1
 62 418 l 1,7,-1
 114 791 l 1,8,-1
 262 791 l 1,9,-1
 219 486 l 1,10,-1
 283 514 l 1,11,-1
 268 405 l 1,0,-1
EndSplineSet
EndChar

StartChar: m
Encoding: 109 109 311
Width: 912
GlyphClass: 2
Flags: W
AnchorPoint: "Anchor-10" 0 0 basechar 0
AnchorPoint: "Anchor-9" 476 550 basechar 0
AnchorPoint: "Anchor-8" 0 0 basechar 0
AnchorPoint: "Anchor-7" 399 0 basechar 0
LayerCount: 2
Fore
SplineSet
801 523 m 128,-1,1
 840 486 840 486 840 419 c 0,2,3
 840 397 840 397 838 385 c 2,4,-1
 784 0 l 1,5,-1
 635 0 l 1,6,-1
 688 382 l 2,7,8
 691 402 691 402 691 417 c 0,9,10
 691 445 691 445 678.5 455.5 c 128,-1,11
 666 466 666 466 635 466 c 0,12,13
 579 466 579 466 531 415 c 1,14,15
 531 408 531 408 530 404 c 2,16,-1
 474 0 l 1,17,-1
 326 0 l 1,18,-1
 381 392 l 2,19,20
 383 414 383 414 383 420 c 0,21,22
 383 445 383 445 372.5 455.5 c 128,-1,23
 362 466 362 466 337 466 c 0,24,25
 284 466 284 466 220 402 c 1,26,-1
 163 0 l 1,27,-1
 15 0 l 1,28,-1
 64 353 l 2,29,30
 80 455 80 455 80 500 c 0,31,32
 80 519 80 519 77 528 c 1,33,34
 99 539 99 539 128.5 546.5 c 128,-1,35
 158 554 158 554 182 554 c 0,36,37
 209 554 209 554 220.5 538 c 128,-1,38
 232 522 232 522 230 485 c 1,39,40
 273 525 273 525 313.5 542.5 c 128,-1,41
 354 560 354 560 402 560 c 0,42,43
 448 560 448 560 479 541.5 c 128,-1,44
 510 523 510 523 524 488 c 1,45,46
 589 560 589 560 692 560 c 0,47,0
 762 560 762 560 801 523 c 128,-1,1
EndSplineSet
EndChar

StartChar: n
Encoding: 110 110 313
Width: 610
GlyphClass: 2
Flags: W
AnchorPoint: "Anchor-10" 0 0 basechar 0
AnchorPoint: "Anchor-9" 325 550 basechar 0
AnchorPoint: "Anchor-8" 0 0 basechar 0
AnchorPoint: "Anchor-7" 248 0 basechar 0
LayerCount: 2
Fore
SplineSet
502 138 m 2,0,1
 495 93 495 93 495 66 c 0,2,3
 495 38 495 38 504 17 c 1,4,5
 441 -5 441 -5 379 -5 c 0,6,7
 361 -5 361 -5 352.5 7.5 c 128,-1,8
 344 20 344 20 344 48 c 0,9,10
 344 67 344 67 349 102 c 2,11,-1
 386 363 l 2,12,13
 389 383 389 383 389 398 c 0,14,15
 389 429 389 429 375 442.5 c 128,-1,16
 361 456 361 456 329 456 c 0,17,18
 278 456 278 456 207 405 c 1,19,-1
 151 0 l 1,20,-1
 3 0 l 1,21,-1
 55 370 l 2,22,23
 68 468 68 468 68 500 c 0,24,25
 68 518 68 518 65 531 c 1,26,27
 145 554 145 554 190 554 c 0,28,29
 207 554 207 554 214.5 545 c 128,-1,30
 222 536 222 536 222 517 c 0,31,32
 222 512 222 512 220 496 c 2,33,-1
 218 483 l 1,34,35
 276 527 276 527 313.5 543.5 c 128,-1,36
 351 560 351 560 390 560 c 0,37,38
 539 560 539 560 539 420 c 0,39,40
 539 406 539 406 535 372 c 2,41,-1
 502 138 l 2,0,1
EndSplineSet
EndChar

StartChar: eng
Encoding: 331 331 320
Width: 609
Flags: W
LayerCount: 2
Fore
SplineSet
539 420 m 0,1,2
 539 406 539 406 535 372 c 2,3,-1
 483 0 l 1,4,-1
 475 -53 l 2,5,6
 465 -124 465 -124 414 -168 c 128,-1,7
 363 -212 363 -212 279 -212 c 0,8,9
 232 -212 232 -212 198 -201 c 128,-1,10
 164 -190 164 -190 168 -164 c 0,11,12
 169 -151 169 -151 177.5 -138 c 128,-1,13
 186 -125 186 -125 193 -122 c 1,14,15
 204 -128 204 -128 217 -131 c 128,-1,16
 230 -134 230 -134 253 -134 c 0,17,18
 283 -134 283 -134 302 -116 c 128,-1,19
 321 -98 321 -98 326 -62 c 2,20,-1
 335 0 l 1,21,-1
 386 363 l 2,22,23
 389 383 389 383 389 399 c 0,24,25
 389 428 389 428 375.5 442 c 128,-1,26
 362 456 362 456 329 456 c 0,27,28
 277 456 277 456 207 404 c 1,29,-1
 151 0 l 1,30,-1
 3 0 l 1,31,-1
 55 370 l 1,32,-1
 58 394 l 2,33,34
 59 402 59 402 63 436.5 c 128,-1,35
 67 471 67 471 67 498 c 0,36,37
 67 521 67 521 65 531 c 1,38,39
 144 554 144 554 190 554 c 0,40,41
 207 554 207 554 214.5 545.5 c 128,-1,42
 222 537 222 537 222 518 c 0,43,44
 222 512 222 512 220 496 c 2,45,-1
 218 485 l 1,46,47
 263 520 263 520 304 540 c 128,-1,48
 345 560 345 560 390 560 c 0,49,0
 539 560 539 560 539 420 c 0,1,2
EndSplineSet
EndChar

StartChar: o
Encoding: 111 111 323
Width: 568
GlyphClass: 2
Flags: W
AnchorPoint: "Anchor-10" 432 474 basechar 0
AnchorPoint: "Anchor-9" 304 550 basechar 0
AnchorPoint: "Anchor-8" 313 10 basechar 0
AnchorPoint: "Anchor-7" 227 0 basechar 0
LayerCount: 2
Fore
SplineSet
65.5 48.5 m 128,-1,1
 6 107 6 107 6 214 c 0,2,3
 6 318 6 318 41.5 396.5 c 128,-1,4
 77 475 77 475 142.5 517.5 c 128,-1,5
 208 560 208 560 295 560 c 0,6,7
 405 560 405 560 464.5 503 c 128,-1,8
 524 446 524 446 524 340 c 0,9,10
 524 236 524 236 488 156.5 c 128,-1,11
 452 77 452 77 386.5 33.5 c 128,-1,12
 321 -10 321 -10 235 -10 c 0,13,0
 125 -10 125 -10 65.5 48.5 c 128,-1,1
338.5 156 m 128,-1,15
 375 226 375 226 375 346 c 0,16,17
 375 464 375 464 292 464 c 0,18,19
 228 464 228 464 191.5 395 c 128,-1,20
 155 326 155 326 155 205 c 0,21,22
 155 145 155 145 175.5 115.5 c 128,-1,23
 196 86 196 86 239 86 c 0,24,14
 302 86 302 86 338.5 156 c 128,-1,15
EndSplineSet
Substitution2: "Single Substitution lookup 20 subtable" ordmasculine
Substitution2: "'aalt' Access All Alternates lookup 0 subtable" ordmasculine
EndChar

StartChar: ohorn
Encoding: 417 417 337
Width: 568
GlyphClass: 2
Flags: W
AnchorPoint: "Anchor-10" 432 474 basechar 0
AnchorPoint: "Anchor-9" 294 550 basechar 0
AnchorPoint: "Anchor-8" 313 10 basechar 0
AnchorPoint: "Anchor-7" 217 0 basechar 0
LayerCount: 2
Fore
SplineSet
615.5 643.5 m 128,-1,1
 636 624 636 624 636 592 c 0,2,3
 636 583 636 583 635 578 c 0,4,5
 628 527 628 527 598 492 c 128,-1,6
 568 457 568 457 506 441 c 1,7,8
 524 398 524 398 524 340 c 0,9,10
 524 236 524 236 488 156.5 c 128,-1,11
 452 77 452 77 386.5 33.5 c 128,-1,12
 321 -10 321 -10 235 -10 c 0,13,14
 125 -10 125 -10 65.5 48.5 c 128,-1,15
 6 107 6 107 6 214 c 0,16,17
 6 318 6 318 41.5 396.5 c 128,-1,18
 77 475 77 475 142.5 517.5 c 128,-1,19
 208 560 208 560 295 560 c 0,20,21
 404 560 404 560 463 504 c 1,22,23
 483 510 483 510 493 525.5 c 128,-1,24
 503 541 503 541 507 568 c 0,25,26
 511 599 511 599 485 620 c 1,27,28
 490 638 490 638 510 650.5 c 128,-1,29
 530 663 530 663 559 663 c 0,30,0
 595 663 595 663 615.5 643.5 c 128,-1,1
338.5 156 m 128,-1,32
 375 226 375 226 375 346 c 0,33,34
 375 464 375 464 292 464 c 0,35,36
 228 464 228 464 191.5 395 c 128,-1,37
 155 326 155 326 155 205 c 0,38,39
 155 145 155 145 175.5 115.5 c 128,-1,40
 196 86 196 86 239 86 c 0,41,31
 302 86 302 86 338.5 156 c 128,-1,32
EndSplineSet
EndChar

StartChar: oslash
Encoding: 248 248 345
Width: 568
GlyphClass: 2
Flags: W
AnchorPoint: "Anchor-10" 432 474 basechar 0
AnchorPoint: "Anchor-9" 304 550 basechar 0
AnchorPoint: "Anchor-8" 313 10 basechar 0
AnchorPoint: "Anchor-7" 227 0 basechar 0
LayerCount: 2
Fore
SplineSet
481 485 m 1,0,1
 524 428 524 428 524 340 c 0,2,3
 524 236 524 236 488 156.5 c 128,-1,4
 452 77 452 77 386.5 33.5 c 128,-1,5
 321 -10 321 -10 235 -10 c 0,6,7
 141 -10 141 -10 85 32 c 1,8,-1
 57 0 l 1,9,-1
 -27 0 l 1,10,-1
 41 78 l 1,11,12
 6 131 6 131 6 214 c 0,13,14
 6 318 6 318 41.5 396.5 c 128,-1,15
 77 475 77 475 142.5 517.5 c 128,-1,16
 208 560 208 560 295 560 c 0,17,18
 380 560 380 560 433 526 c 1,19,-1
 454 550 l 1,20,-1
 538 550 l 1,21,-1
 481 485 l 1,0,1
192.5 395.5 m 128,-1,23
 156 327 156 327 155 208 c 1,24,-1
 354 435 l 1,25,26
 333 464 333 464 292 464 c 0,27,22
 229 464 229 464 192.5 395.5 c 128,-1,23
375 363 m 1,28,-1
 169 128 l 1,29,30
 189 86 189 86 239 86 c 0,31,32
 302 86 302 86 338.5 156 c 128,-1,33
 375 226 375 226 375 346 c 2,34,-1
 375 363 l 1,28,-1
EndSplineSet
EndChar

StartChar: oe
Encoding: 339 339 348
Width: 930
GlyphClass: 2
Flags: W
AnchorPoint: "Anchor-10" 432 474 basechar 0
AnchorPoint: "Anchor-9" 666 550 basechar 0
AnchorPoint: "Anchor-8" 695 10 basechar 0
AnchorPoint: "Anchor-7" 593 0 basechar 0
LayerCount: 2
Fore
SplineSet
517 248 m 1,0,-1
 517 227 l 2,1,2
 517 161 517 161 542.5 124.5 c 128,-1,3
 568 88 568 88 615 88 c 0,4,5
 653 88 653 88 680 103 c 128,-1,6
 707 118 707 118 740 157 c 0,7,8
 749 168 749 168 762 168 c 0,9,10
 779 168 779 168 802.5 156 c 128,-1,11
 826 144 826 144 850 123 c 1,12,13
 811 55 811 55 750.5 22.5 c 128,-1,14
 690 -10 690 -10 602 -10 c 0,15,16
 546 -10 546 -10 500.5 9 c 128,-1,17
 455 28 455 28 424 63 c 1,18,19
 348 -10 348 -10 235 -10 c 0,20,21
 125 -10 125 -10 65.5 48.5 c 128,-1,22
 6 107 6 107 6 214 c 0,23,24
 6 318 6 318 41.5 396.5 c 128,-1,25
 77 475 77 475 142.5 517.5 c 128,-1,26
 208 560 208 560 295 560 c 0,27,28
 413 560 413 560 473 494 c 1,29,30
 550 560 550 560 669 560 c 0,31,32
 781 560 781 560 832.5 508.5 c 128,-1,33
 884 457 884 457 884 346 c 0,34,35
 884 308 884 308 874 248 c 1,36,-1
 517 248 l 1,0,-1
579 431 m 128,-1,38
 544 396 544 396 528 332 c 1,39,-1
 739 332 l 1,40,41
 742 355 742 355 742 374 c 0,42,43
 742 466 742 466 664 466 c 0,44,37
 614 466 614 466 579 431 c 128,-1,38
320.5 129 m 128,-1,46
 354 172 354 172 368 249 c 0,47,48
 370 281 370 281 374 309 c 0,49,50
 375 321 375 321 375 346 c 0,51,52
 375 464 375 464 292 464 c 0,53,54
 228 464 228 464 191.5 395 c 128,-1,55
 155 326 155 326 155 205 c 0,56,57
 155 145 155 145 175.5 115.5 c 128,-1,58
 196 86 196 86 239 86 c 0,59,45
 287 86 287 86 320.5 129 c 128,-1,46
EndSplineSet
EndChar

StartChar: p
Encoding: 112 112 349
Width: 598
Flags: W
LayerCount: 2
Fore
SplineSet
506.5 500 m 128,-1,1
 556 440 556 440 556 333 c 0,2,3
 556 228 556 228 521 150.5 c 128,-1,4
 486 73 486 73 421 31.5 c 128,-1,5
 356 -10 356 -10 268 -10 c 0,6,7
 209 -10 209 -10 155 8 c 1,8,-1
 122 -228 l 1,9,-1
 -26 -228 l 1,10,-1
 54 346 l 2,11,12
 64 417 64 417 64 450 c 0,13,14
 64 493 64 493 47 520 c 1,15,16
 77 536 77 536 109.5 545 c 128,-1,17
 142 554 142 554 170 554 c 0,18,19
 210 554 210 554 216 499 c 1,20,21
 277 560 277 560 369 560 c 0,22,0
 457 560 457 560 506.5 500 c 128,-1,1
364.5 153 m 128,-1,24
 408 220 408 220 408 332 c 0,25,26
 408 395 408 395 384.5 430.5 c 128,-1,27
 361 466 361 466 320 466 c 0,28,29
 292 466 292 466 263 451 c 128,-1,30
 234 436 234 436 211 409 c 1,31,-1
 211 407 l 1,32,-1
 169 105 l 1,33,34
 204 86 204 86 247 86 c 0,35,23
 321 86 321 86 364.5 153 c 128,-1,24
EndSplineSet
EndChar

StartChar: thorn
Encoding: 254 254 350
Width: 609
Flags: W
LayerCount: 2
Fore
SplineSet
507.5 509.5 m 128,-1,1
 557 459 557 459 557 351 c 0,2,3
 557 316 557 316 551 272 c 0,4,5
 530 127 530 127 451 57.5 c 128,-1,6
 372 -12 372 -12 258 -12 c 0,7,8
 209 -12 209 -12 155 11 c 1,9,-1
 122 -228 l 1,10,-1
 -26 -228 l 1,11,-1
 115 780 l 1,12,-1
 263 780 l 1,13,-1
 225 505 l 1,14,15
 253 530 253 530 287 545 c 128,-1,16
 321 560 321 560 369 560 c 0,17,0
 458 560 458 560 507.5 509.5 c 128,-1,1
408 352 m 0,19,20
 408 413 408 413 388 439.5 c 128,-1,21
 368 466 368 466 330 466 c 0,22,23
 299 466 299 466 266.5 449.5 c 128,-1,24
 234 433 234 433 211 408 c 1,25,-1
 169 107 l 1,26,27
 206 84 206 84 247 84 c 0,28,29
 309 84 309 84 347.5 125 c 128,-1,30
 386 166 386 166 401 272 c 0,31,18
 408 326 408 326 408 352 c 0,19,20
EndSplineSet
EndChar

StartChar: q
Encoding: 113 113 351
Width: 608
Flags: W
LayerCount: 2
Fore
SplineSet
530 545 m 128,-1,1
 561 536 561 536 586 520 c 1,2,3
 563 494 563 494 550.5 457 c 128,-1,4
 538 420 538 420 527 340 c 2,5,-1
 448 -228 l 1,6,-1
 300 -228 l 1,7,-1
 336 30 l 1,8,9
 278 -10 278 -10 206 -10 c 0,10,11
 114 -10 114 -10 60 51.5 c 128,-1,12
 6 113 6 113 6 217 c 0,13,14
 6 319 6 319 39 397 c 128,-1,15
 72 475 72 475 132.5 517.5 c 128,-1,16
 193 560 193 560 273 560 c 0,17,18
 323 560 323 560 359 544.5 c 128,-1,19
 395 529 395 529 411 500 c 1,20,21
 431 554 431 554 471 554 c 0,22,0
 499 554 499 554 530 545 c 128,-1,1
388 401 m 1,23,-1
 390 413 l 1,24,25
 361 466 361 466 296 466 c 0,26,27
 254 466 254 466 222 434 c 128,-1,28
 190 402 190 402 172.5 344 c 128,-1,29
 155 286 155 286 155 210 c 0,30,31
 155 151 155 151 175.5 118.5 c 128,-1,32
 196 86 196 86 233 86 c 0,33,34
 299 86 299 86 352 142 c 1,35,-1
 388 401 l 1,23,-1
EndSplineSet
EndChar

StartChar: r
Encoding: 114 114 352
Width: 440
GlyphClass: 2
Flags: W
AnchorPoint: "Anchor-10" 0 0 basechar 0
AnchorPoint: "Anchor-9" 240 550 basechar 0
AnchorPoint: "Anchor-8" 0 0 basechar 0
AnchorPoint: "Anchor-7" 82 0 basechar 0
LayerCount: 2
Fore
SplineSet
418.5 541.5 m 128,-1,1
 438 526 438 526 438 492 c 0,2,3
 438 478 438 478 437 471 c 0,4,5
 435 454 435 454 428 438 c 128,-1,6
 421 422 421 422 412 412 c 1,7,8
 401 419 401 419 385.5 422 c 128,-1,9
 370 425 370 425 343 425 c 0,10,11
 279 425 279 425 241.5 385 c 128,-1,12
 204 345 204 345 193 263 c 2,13,-1
 156 0 l 1,14,-1
 8 0 l 1,15,-1
 85 550 l 1,16,-1
 233 550 l 1,17,-1
 223 477 l 1,18,19
 249 516 249 516 283.5 536.5 c 128,-1,20
 318 557 318 557 357 557 c 0,21,0
 399 557 399 557 418.5 541.5 c 128,-1,1
EndSplineSet
EndChar

StartChar: s
Encoding: 115 115 359
Width: 505
GlyphClass: 2
Flags: W
AnchorPoint: "Anchor-10" 0 0 basechar 0
AnchorPoint: "Anchor-9" 263 550 basechar 0
AnchorPoint: "Anchor-8" 0 0 basechar 0
AnchorPoint: "Anchor-7" 186 0 basechar 0
LayerCount: 2
Fore
SplineSet
41.5 17 m 128,-1,1
 -11 44 -11 44 -11 87 c 0,2,3
 -11 119 -11 119 12 141.5 c 128,-1,4
 35 164 35 164 76 166 c 1,5,6
 91 126 91 126 122 106 c 128,-1,7
 153 86 153 86 204 86 c 0,8,9
 252 86 252 86 276.5 104 c 128,-1,10
 301 122 301 122 301 151 c 0,11,12
 301 177 301 177 277 191.5 c 128,-1,13
 253 206 253 206 201 225 c 0,14,15
 150 242 150 242 118.5 258 c 128,-1,16
 87 274 87 274 64 303.5 c 128,-1,17
 41 333 41 333 41 379 c 0,18,19
 41 436 41 436 74 477 c 128,-1,20
 107 518 107 518 161.5 539 c 128,-1,21
 216 560 216 560 277 560 c 0,22,23
 350 560 350 560 401 532 c 128,-1,24
 452 504 452 504 477 457 c 1,25,26
 460 432 460 432 435 413.5 c 128,-1,27
 410 395 410 395 392 395 c 0,28,29
 382 395 382 395 375.5 398.5 c 128,-1,30
 369 402 369 402 363 410 c 0,31,32
 348 433 348 433 324 449.5 c 128,-1,33
 300 466 300 466 268 466 c 0,34,35
 229 466 229 466 205 451 c 128,-1,36
 181 436 181 436 181 408 c 0,37,38
 181 376 181 376 207.5 359 c 128,-1,39
 234 342 234 342 289 324 c 0,40,41
 337 307 337 307 368 291.5 c 128,-1,42
 399 276 399 276 420.5 248 c 128,-1,43
 442 220 442 220 442 176 c 0,44,45
 442 87 442 87 375.5 38.5 c 128,-1,46
 309 -10 309 -10 186 -10 c 0,47,0
 94 -10 94 -10 41.5 17 c 128,-1,1
EndSplineSet
EndChar

StartChar: scedilla
Encoding: 351 351 362
Width: 505
GlyphClass: 2
Flags: W
AnchorPoint: "Anchor-10" 0 0 basechar 0
AnchorPoint: "Anchor-9" 0 0 basechar 0
AnchorPoint: "Anchor-8" 0 0 basechar 0
AnchorPoint: "Anchor-7" 156 -214 basechar 0
LayerCount: 2
Fore
SplineSet
205 451 m 128,-1,1
 181 436 181 436 181 408 c 0,2,3
 181 376 181 376 207.5 359 c 128,-1,4
 234 342 234 342 289 324 c 0,5,6
 337 307 337 307 368 291.5 c 128,-1,7
 399 276 399 276 420.5 248 c 128,-1,8
 442 220 442 220 442 176 c 0,9,10
 442 95 442 95 387 47.5 c 128,-1,11
 332 0 332 0 229 -8 c 1,12,-1
 183 -51 l 1,13,-1
 194 -51 l 2,14,15
 235 -51 235 -51 260.5 -71 c 128,-1,16
 286 -91 286 -91 286 -124 c 0,17,18
 286 -181 286 -181 243 -210 c 128,-1,19
 200 -239 200 -239 129 -239 c 0,20,21
 77 -239 77 -239 54.5 -226 c 128,-1,22
 32 -213 32 -213 32 -192 c 0,23,24
 32 -179 32 -179 40 -163 c 1,25,26
 51 -168 51 -168 73.5 -171 c 128,-1,27
 96 -174 96 -174 122 -174 c 0,28,29
 151 -174 151 -174 166 -163.5 c 128,-1,30
 181 -153 181 -153 181 -135 c 0,31,32
 181 -112 181 -112 152 -112 c 0,33,34
 138 -112 138 -112 123 -117 c 1,35,-1
 92 -75 l 1,36,-1
 144 -8 l 1,37,38
 70 -2 70 -2 29.5 23.5 c 128,-1,39
 -11 49 -11 49 -11 87 c 0,40,41
 -11 119 -11 119 12 141.5 c 128,-1,42
 35 164 35 164 76 166 c 1,43,44
 91 126 91 126 122 106 c 128,-1,45
 153 86 153 86 204 86 c 0,46,47
 252 86 252 86 276.5 104 c 128,-1,48
 301 122 301 122 301 151 c 0,49,50
 301 177 301 177 277 191.5 c 128,-1,51
 253 206 253 206 201 225 c 0,52,53
 150 242 150 242 118.5 258 c 128,-1,54
 87 274 87 274 64 303.5 c 128,-1,55
 41 333 41 333 41 379 c 0,56,57
 41 436 41 436 74 477 c 128,-1,58
 107 518 107 518 161.5 539 c 128,-1,59
 216 560 216 560 277 560 c 0,60,61
 350 560 350 560 401 532 c 128,-1,62
 452 504 452 504 477 457 c 1,63,64
 460 432 460 432 435 413.5 c 128,-1,65
 410 395 410 395 392 395 c 0,66,67
 382 395 382 395 375.5 398.5 c 128,-1,68
 369 402 369 402 363 410 c 0,69,70
 348 433 348 433 324 449.5 c 128,-1,71
 300 466 300 466 268 466 c 0,72,0
 229 466 229 466 205 451 c 128,-1,1
EndSplineSet
Substitution2: "'locl' Localized Forms in Latin lookup 7 subtable" uni0219
Substitution2: "'locl' Localized Forms in Latin lookup 6 subtable" uni0219
Substitution2: "'aalt' Access All Alternates lookup 0 subtable" uni0219
EndChar

StartChar: germandbls
Encoding: 223 223 367
Width: 637
Flags: W
LayerCount: 2
Fore
SplineSet
530 307 m 128,-1,1
 556 270 556 270 556 219 c 0,2,3
 556 112 556 112 495.5 49 c 128,-1,4
 435 -14 435 -14 323 -14 c 0,5,6
 253 -14 253 -14 214.5 4 c 128,-1,7
 176 22 176 22 176 63 c 0,8,9
 176 86 176 86 186.5 102.5 c 128,-1,10
 197 119 197 119 214 123 c 1,11,12
 230 105 230 105 254.5 93.5 c 128,-1,13
 279 82 279 82 310 82 c 0,14,15
 367 82 367 82 398.5 116.5 c 128,-1,16
 430 151 430 151 430 213 c 0,17,18
 430 263 430 263 408 284 c 128,-1,19
 386 305 386 305 336 305 c 0,20,21
 326 305 326 305 308 303 c 2,22,-1
 283 302 l 2,23,24
 272 302 272 302 262 326.5 c 128,-1,25
 252 351 252 351 252 373 c 0,26,27
 252 388 252 388 254 393.5 c 128,-1,28
 256 399 256 399 261 399 c 2,29,-1
 320 399 l 2,30,31
 382 399 382 399 417.5 437 c 128,-1,32
 453 475 453 475 453 535 c 0,33,34
 453 582 453 582 427 609.5 c 128,-1,35
 401 637 401 637 348 637 c 0,36,37
 285 637 285 637 249.5 602 c 128,-1,38
 214 567 214 567 205 502 c 2,39,-1
 135 0 l 1,40,-1
 7 0 l 1,41,-1
 77 502 l 2,42,43
 93 610 93 610 167.5 670.5 c 128,-1,44
 242 731 242 731 353 731 c 0,45,46
 421 731 421 731 472.5 708.5 c 128,-1,47
 524 686 524 686 552.5 644.5 c 128,-1,48
 581 603 581 603 581 548 c 0,49,50
 581 480 581 480 548.5 430 c 128,-1,51
 516 380 516 380 458 358 c 1,52,0
 504 344 504 344 530 307 c 128,-1,1
EndSplineSet
EndChar

StartChar: t
Encoding: 116 116 368
Width: 405
GlyphClass: 2
Flags: W
AnchorPoint: "Anchor-10" 379 630 basechar 0
AnchorPoint: "Anchor-9" 205 660 basechar 0
AnchorPoint: "Anchor-8" 0 0 basechar 0
AnchorPoint: "Anchor-7" 192 0 basechar 0
LayerCount: 2
Fore
SplineSet
207 144 m 2,0,1
 205 128 205 128 205 122 c 0,2,3
 205 99 205 99 215.5 89.5 c 128,-1,4
 226 80 226 80 250 80 c 0,5,6
 285 80 285 80 328 97 c 1,7,8
 346 90 346 90 346 66 c 0,9,10
 346 43 346 43 328 26 c 0,11,12
 310 10 310 10 272.5 0 c 128,-1,13
 235 -10 235 -10 190 -10 c 0,14,15
 128 -10 128 -10 91.5 22 c 128,-1,16
 55 54 55 54 55 108 c 0,17,18
 55 115 55 115 57 131 c 2,19,-1
 103 456 l 1,20,-1
 19 456 l 1,21,-1
 32 550 l 1,22,-1
 116 550 l 1,23,-1
 137 700 l 1,24,-1
 285 700 l 1,25,-1
 264 550 l 1,26,-1
 368 550 l 1,27,-1
 355 456 l 1,28,-1
 251 456 l 1,29,-1
 207 144 l 2,0,1
EndSplineSet
EndChar

StartChar: tbar
Encoding: 359 359 369
Width: 397
GlyphClass: 2
Flags: W
AnchorPoint: "Anchor-10" 379 630 basechar 0
AnchorPoint: "Anchor-9" 205 660 basechar 0
AnchorPoint: "Anchor-8" 0 0 basechar 0
AnchorPoint: "Anchor-7" 192 0 basechar 0
LayerCount: 2
Fore
SplineSet
251 456 m 1,0,-1
 237 360 l 1,1,-1
 331 360 l 1,2,-1
 318 266 l 1,3,-1
 224 266 l 1,4,-1
 207 144 l 2,5,6
 205 128 205 128 205 122 c 0,7,8
 205 99 205 99 215.5 89.5 c 128,-1,9
 226 80 226 80 250 80 c 0,10,11
 285 80 285 80 328 97 c 1,12,13
 346 90 346 90 346 66 c 0,14,15
 346 43 346 43 328 26 c 0,16,17
 310 10 310 10 272.5 0 c 128,-1,18
 235 -10 235 -10 190 -10 c 0,19,20
 128 -10 128 -10 91.5 22 c 128,-1,21
 55 54 55 54 55 108 c 0,22,23
 55 115 55 115 57 131 c 2,24,-1
 76 266 l 1,25,-1
 -8 266 l 1,26,-1
 5 360 l 1,27,-1
 89 360 l 1,28,-1
 103 456 l 1,29,-1
 19 456 l 1,30,-1
 32 550 l 1,31,-1
 116 550 l 1,32,-1
 137 700 l 1,33,-1
 285 700 l 1,34,-1
 264 550 l 1,35,-1
 368 550 l 1,36,-1
 355 456 l 1,37,-1
 251 456 l 1,0,-1
EndSplineSet
EndChar

StartChar: uni0163
Encoding: 355 355 371
Width: 405
GlyphClass: 2
Flags: W
AnchorPoint: "Anchor-10" 379 630 basechar 0
AnchorPoint: "Anchor-9" 0 0 basechar 0
AnchorPoint: "Anchor-8" 0 0 basechar 0
AnchorPoint: "Anchor-7" 162 -214 basechar 0
LayerCount: 2
Fore
SplineSet
207 144 m 2,0,1
 205 128 205 128 205 122 c 0,2,3
 205 99 205 99 215.5 89.5 c 128,-1,4
 226 80 226 80 250 80 c 0,5,6
 285 80 285 80 328 97 c 1,7,8
 346 90 346 90 346 66 c 0,9,10
 346 43 346 43 328 26 c 0,11,12
 300 1 300 1 236 -7 c 1,13,-1
 189 -51 l 1,14,-1
 200 -51 l 2,15,16
 241 -51 241 -51 266.5 -71 c 128,-1,17
 292 -91 292 -91 292 -124 c 0,18,19
 292 -181 292 -181 249 -210 c 128,-1,20
 206 -239 206 -239 135 -239 c 0,21,22
 83 -239 83 -239 60.5 -226 c 128,-1,23
 38 -213 38 -213 38 -192 c 0,24,25
 38 -179 38 -179 46 -163 c 1,26,27
 57 -168 57 -168 79.5 -171 c 128,-1,28
 102 -174 102 -174 128 -174 c 0,29,30
 157 -174 157 -174 172 -163.5 c 128,-1,31
 187 -153 187 -153 187 -135 c 0,32,33
 187 -112 187 -112 158 -112 c 0,34,35
 144 -112 144 -112 129 -117 c 1,36,-1
 98 -75 l 1,37,-1
 151 -6 l 1,38,39
 106 3 106 3 80.5 33 c 128,-1,40
 55 63 55 63 55 108 c 0,41,42
 55 115 55 115 57 131 c 2,43,-1
 103 456 l 1,44,-1
 19 456 l 1,45,-1
 32 550 l 1,46,-1
 116 550 l 1,47,-1
 137 700 l 1,48,-1
 285 700 l 1,49,-1
 264 550 l 1,50,-1
 368 550 l 1,51,-1
 355 456 l 1,52,-1
 251 456 l 1,53,-1
 207 144 l 2,0,1
EndSplineSet
Substitution2: "'locl' Localized Forms in Latin lookup 7 subtable" uni021B
Substitution2: "'locl' Localized Forms in Latin lookup 6 subtable" uni021B
Substitution2: "'aalt' Access All Alternates lookup 0 subtable" uni021B
EndChar

StartChar: u
Encoding: 117 117 376
Width: 630
GlyphClass: 2
Flags: W
AnchorPoint: "Anchor-10" 553 523 basechar 0
AnchorPoint: "Anchor-9" 335 550 basechar 0
AnchorPoint: "Anchor-8" 517 17 basechar 0
AnchorPoint: "Anchor-7" 248 0 basechar 0
LayerCount: 2
Fore
SplineSet
518 133 m 2,0,1
 512 84 512 84 512 59 c 0,2,3
 512 35 512 35 517 17 c 1,4,5
 496 7 496 7 467.5 1 c 128,-1,6
 439 -5 439 -5 413 -5 c 0,7,8
 384 -5 384 -5 371.5 8 c 128,-1,9
 359 21 359 21 360 55 c 1,10,11
 328 24 328 24 283.5 7 c 128,-1,12
 239 -10 239 -10 190 -10 c 0,13,14
 113 -10 113 -10 73.5 26.5 c 128,-1,15
 34 63 34 63 34 134 c 0,16,17
 34 153 34 153 37 175 c 2,18,-1
 90 550 l 1,19,-1
 238 550 l 1,20,-1
 186 182 l 2,21,22
 183 163 183 163 183 148 c 0,23,24
 183 114 183 114 197.5 99 c 128,-1,25
 212 84 212 84 245 84 c 0,26,27
 316 84 316 84 373 156 c 1,28,-1
 428 550 l 1,29,-1
 577 550 l 1,30,-1
 518 133 l 2,0,1
EndSplineSet
EndChar

StartChar: uhorn
Encoding: 432 432 389
Width: 630
GlyphClass: 2
Flags: W
AnchorPoint: "Anchor-10" 553 523 basechar 0
AnchorPoint: "Anchor-9" 335 550 basechar 0
AnchorPoint: "Anchor-8" 517 17 basechar 0
AnchorPoint: "Anchor-7" 248 0 basechar 0
LayerCount: 2
Fore
SplineSet
736.5 692.5 m 128,-1,1
 757 673 757 673 757 641 c 0,2,3
 757 632 757 632 756 627 c 0,4,5
 748 565 748 565 704 526.5 c 128,-1,6
 660 488 660 488 567 481 c 1,7,-1
 518 133 l 2,8,9
 512 84 512 84 512 59 c 0,10,11
 512 35 512 35 517 17 c 1,12,13
 496 7 496 7 467.5 1 c 128,-1,14
 439 -5 439 -5 413 -5 c 0,15,16
 384 -5 384 -5 371.5 8 c 128,-1,17
 359 21 359 21 360 55 c 1,18,19
 328 24 328 24 283.5 7 c 128,-1,20
 239 -10 239 -10 190 -10 c 0,21,22
 113 -10 113 -10 73.5 26.5 c 128,-1,23
 34 63 34 63 34 134 c 0,24,25
 34 153 34 153 37 175 c 2,26,-1
 90 550 l 1,27,-1
 238 550 l 1,28,-1
 186 182 l 2,29,30
 183 163 183 163 183 148 c 0,31,32
 183 114 183 114 197.5 99 c 128,-1,33
 212 84 212 84 245 84 c 0,34,35
 316 84 316 84 373 156 c 1,36,-1
 428 550 l 1,37,-1
 557 550 l 2,38,39
 592 550 592 550 607.5 566.5 c 128,-1,40
 623 583 623 583 628 617 c 0,41,42
 632 648 632 648 606 669 c 1,43,44
 611 687 611 687 631 699.5 c 128,-1,45
 651 712 651 712 680 712 c 0,46,0
 716 712 716 712 736.5 692.5 c 128,-1,1
EndSplineSet
EndChar

StartChar: uogonek
Encoding: 371 371 397
Width: 630
GlyphClass: 2
Flags: W
AnchorPoint: "Anchor-10" 553 523 basechar 0
AnchorPoint: "Anchor-9" 335 550 basechar 0
AnchorPoint: "Anchor-8" 517 17 basechar 0
AnchorPoint: "Anchor-7" 248 0 basechar 0
LayerCount: 2
Fore
SplineSet
534 -137 m 0,1,2
 534 -164 534 -164 511 -178.5 c 128,-1,3
 488 -193 488 -193 446 -193 c 0,4,5
 344 -193 344 -193 344 -125 c 256,6,7
 344 -57 344 -57 418 -5 c 1,8,-1
 413 -5 l 2,9,10
 384 -5 384 -5 371.5 8 c 128,-1,11
 359 21 359 21 360 55 c 1,12,13
 328 24 328 24 283.5 7 c 128,-1,14
 239 -10 239 -10 190 -10 c 0,15,16
 113 -10 113 -10 73.5 26.5 c 128,-1,17
 34 63 34 63 34 134 c 0,18,19
 34 153 34 153 37 175 c 2,20,-1
 90 550 l 1,21,-1
 238 550 l 1,22,-1
 186 182 l 2,23,24
 183 163 183 163 183 148 c 0,25,26
 183 114 183 114 197.5 99 c 128,-1,27
 212 84 212 84 245 84 c 0,28,29
 316 84 316 84 373 156 c 1,30,-1
 428 550 l 1,31,-1
 577 550 l 1,32,-1
 518 133 l 2,33,34
 512 84 512 84 512 59 c 0,35,36
 512 35 512 35 517 17 c 1,37,38
 490 -12 490 -12 475 -36.5 c 128,-1,39
 460 -61 460 -61 460 -84 c 0,40,41
 460 -119 460 -119 484 -119 c 0,42,43
 502 -119 502 -119 518 -109 c 1,44,0
 534 -121 534 -121 534 -137 c 0,1,2
EndSplineSet
EndChar

StartChar: v
Encoding: 118 118 400
Width: 580
Flags: W
LayerCount: 2
Fore
SplineSet
578 550 m 1,0,1
 541 382 541 382 474.5 247 c 128,-1,2
 408 112 408 112 307 0 c 1,3,-1
 167 0 l 1,4,5
 40 200 40 200 40 473 c 0,6,7
 40 524 40 524 42 550 c 1,8,-1
 195 550 l 1,9,10
 188 484 188 484 188 439 c 0,11,12
 188 273 188 273 256 131 c 1,13,14
 322 224 322 224 362.5 326.5 c 128,-1,15
 403 429 403 429 421 550 c 1,16,-1
 578 550 l 1,0,1
EndSplineSet
EndChar

StartChar: w
Encoding: 119 119 401
Width: 800
GlyphClass: 2
Flags: W
AnchorPoint: "Anchor-10" 0 0 basechar 0
AnchorPoint: "Anchor-9" 429 550 basechar 0
AnchorPoint: "Anchor-8" 0 0 basechar 0
AnchorPoint: "Anchor-7" 343 0 basechar 0
LayerCount: 2
Fore
SplineSet
800 550 m 1,0,1
 770 389 770 389 715 253.5 c 128,-1,2
 660 118 660 118 576 0 c 1,3,-1
 471 0 l 1,4,5
 408 131 408 131 391 289 c 1,6,7
 333 136 333 136 229 0 c 1,8,-1
 124 0 l 1,9,10
 36 189 36 189 36 438 c 0,11,12
 36 498 36 498 40 550 c 1,13,-1
 186 550 l 1,14,15
 180 451 180 451 180 381 c 0,16,17
 180 309 180 309 186.5 257.5 c 128,-1,18
 193 206 193 206 208 162 c 1,19,20
 312 336 312 336 364 550 c 1,21,-1
 490 550 l 1,22,23
 489 530 489 530 489 492 c 0,24,25
 489 311 489 311 537 159 c 1,26,27
 577 227 577 227 604 317 c 128,-1,28
 631 407 631 407 656 550 c 1,29,-1
 800 550 l 1,0,1
EndSplineSet
EndChar

StartChar: x
Encoding: 120 120 406
Width: 520
Flags: W
LayerCount: 2
Fore
SplineSet
483 458.5 m 128,-1,1
 454 415 454 415 417.5 378 c 128,-1,2
 381 341 381 341 322 289 c 1,3,4
 382 220 382 220 415 158 c 128,-1,5
 448 96 448 96 448 22 c 0,6,7
 448 8 448 8 447 0 c 1,8,-1
 309 0 l 1,9,10
 312 56 312 56 292 106 c 128,-1,11
 272 156 272 156 232 208 c 1,12,13
 178 155 178 155 143.5 105.5 c 128,-1,14
 109 56 109 56 97 0 c 1,15,-1
 -41 0 l 1,16,17
 -25 81 -25 81 27.5 147.5 c 128,-1,18
 80 214 80 214 165 289 c 1,19,20
 121 341 121 341 94.5 378 c 128,-1,21
 68 415 68 415 51.5 458.5 c 128,-1,22
 35 502 35 502 38 550 c 1,23,-1
 176 550 l 1,24,25
 175 544 175 544 175 533 c 0,26,27
 175 491 175 491 195.5 451.5 c 128,-1,28
 216 412 216 412 254 367 c 1,29,30
 310 417 310 417 343 460.5 c 128,-1,31
 376 504 376 504 384 550 c 1,32,-1
 522 550 l 1,33,0
 512 502 512 502 483 458.5 c 128,-1,1
EndSplineSet
EndChar

StartChar: y
Encoding: 121 121 407
Width: 535
GlyphClass: 2
Flags: W
AnchorPoint: "Anchor-10" 0 0 basechar 0
AnchorPoint: "Anchor-9" 288 550 basechar 0
AnchorPoint: "Anchor-8" 0 0 basechar 0
AnchorPoint: "Anchor-7" 366 0 basechar 0
LayerCount: 2
Fore
SplineSet
559 550 m 1,0,-1
 263 -42 l 2,1,2
 215 -137 215 -137 163.5 -175.5 c 128,-1,3
 112 -214 112 -214 33 -214 c 0,4,5
 -16 -214 -16 -214 -42.5 -195 c 128,-1,6
 -69 -176 -69 -176 -69 -142 c 0,7,8
 -69 -123 -69 -123 -60 -106.5 c 128,-1,9
 -51 -90 -51 -90 -36 -80 c 1,10,11
 -13 -97 -13 -97 23 -97 c 0,12,13
 61 -97 61 -97 86 -74.5 c 128,-1,14
 111 -52 111 -52 139 9 c 1,15,-1
 19 550 l 1,16,-1
 169 550 l 1,17,-1
 236 182 l 1,18,-1
 405 550 l 1,19,-1
 559 550 l 1,0,-1
EndSplineSet
EndChar

StartChar: z
Encoding: 122 122 416
Width: 520
GlyphClass: 2
Flags: W
AnchorPoint: "Anchor-10" 0 0 basechar 0
AnchorPoint: "Anchor-9" 280 550 basechar 0
AnchorPoint: "Anchor-8" 0 0 basechar 0
AnchorPoint: "Anchor-7" 203 0 basechar 0
LayerCount: 2
Fore
SplineSet
490 463 m 1,0,-1
 159 98 l 1,1,-1
 446 98 l 1,2,-1
 433 0 l 1,3,-1
 -27 0 l 1,4,-1
 -15 88 l 1,5,-1
 316 452 l 1,6,-1
 62 452 l 1,7,-1
 76 550 l 1,8,-1
 502 550 l 1,9,-1
 490 463 l 1,0,-1
EndSplineSet
EndChar

StartChar: ordfeminine
Encoding: 170 170 423
Width: 380
Flags: W
LayerCount: 2
Fore
SplineSet
374 550 m 128,-1,1
 368 513 368 513 367 506 c 0,2,3
 355 436 355 436 355 410 c 0,4,5
 355 388 355 388 362 380 c 1,6,7
 329 360 329 360 284 360 c 0,8,9
 262 360 262 360 251.5 369 c 128,-1,10
 241 378 241 378 239 398 c 1,11,12
 222 380 222 380 196 369.5 c 128,-1,13
 170 359 170 359 138 359 c 0,14,15
 91 359 91 359 61.5 382 c 128,-1,16
 32 405 32 405 32 449 c 0,17,18
 32 499 32 499 61 525.5 c 128,-1,19
 90 552 90 552 139 561 c 128,-1,20
 188 570 188 570 262 571 c 1,21,22
 264 591 264 591 264 597 c 0,23,24
 264 637 264 637 219 637 c 0,25,26
 200 637 200 637 184 631.5 c 128,-1,27
 168 626 168 626 147 616 c 0,28,29
 120 603 120 603 107 603 c 256,30,31
 94 603 94 603 83 622.5 c 128,-1,32
 72 642 72 642 70 670 c 1,33,34
 159 712 159 712 244 712 c 0,35,36
 310 712 310 712 345 687 c 128,-1,37
 380 662 380 662 380 613 c 0,38,0
 380 587 380 587 374 550 c 128,-1,1
245 464 m 1,40,-1
 253 509 l 1,41,42
 195 508 195 508 172 494.5 c 128,-1,43
 149 481 149 481 149 463 c 0,44,45
 149 433 149 433 181 433 c 0,46,39
 220 433 220 433 245 464 c 1,40,-1
EndSplineSet
EndChar

StartChar: ordmasculine
Encoding: 186 186 424
Width: 380
Flags: W
LayerCount: 2
Fore
SplineSet
69.5 395 m 128,-1,1
 31 433 31 433 31 498 c 0,2,3
 31 559 31 559 55.5 607.5 c 128,-1,4
 80 656 80 656 126 683 c 128,-1,5
 172 710 172 710 233 710 c 0,6,7
 308 710 308 710 346 671.5 c 128,-1,8
 384 633 384 633 384 567 c 0,9,10
 384 506 384 506 359.5 458.5 c 128,-1,11
 335 411 335 411 289.5 384 c 128,-1,12
 244 357 244 357 184 357 c 0,13,0
 108 357 108 357 69.5 395 c 128,-1,1
252 473.5 m 128,-1,15
 269 515 269 515 269 576 c 0,16,17
 269 608 269 608 258.5 621.5 c 128,-1,18
 248 635 248 635 223 635 c 0,19,20
 182 635 182 635 164 592.5 c 128,-1,21
 146 550 146 550 146 491 c 0,22,23
 146 460 146 460 157.5 446 c 128,-1,24
 169 432 169 432 194 432 c 0,25,14
 235 432 235 432 252 473.5 c 128,-1,15
EndSplineSet
EndChar

StartChar: uni207F
Encoding: 8319 8319 425
Width: 380
Flags: W
LayerCount: 2
Fore
SplineSet
360 442 m 2,0,1
 356 418 356 418 356 403 c 0,2,3
 356 390 356 390 358 383 c 128,-1,4
 360 376 360 376 361 374 c 1,5,6
 323 360 323 360 275 360 c 0,7,8
 256 360 256 360 248 368 c 128,-1,9
 240 376 240 376 240 395 c 0,10,11
 240 411 240 411 242 421 c 2,12,-1
 266 592 l 1,13,-1
 267 601 l 2,14,15
 267 612 267 612 261.5 617 c 128,-1,16
 256 622 256 622 243 622 c 0,17,18
 208 622 208 622 162 579 c 1,19,-1
 132 363 l 1,20,-1
 17 363 l 1,21,-1
 49 593 l 2,22,23
 56 649 56 649 56 667 c 0,24,25
 56 683 56 683 54 688 c 1,26,27
 99 709 99 709 139 709 c 0,28,29
 159 709 159 709 167.5 703 c 128,-1,30
 176 697 176 697 176 683 c 0,31,32
 176 677 176 677 175 673 c 2,33,-1
 172 654 l 1,34,35
 200 680 200 680 237.5 698 c 128,-1,36
 275 716 275 716 309 716 c 0,37,38
 350 716 350 716 368 698 c 128,-1,39
 386 680 386 680 386 643 c 0,40,41
 386 634 386 634 384 612 c 2,42,-1
 360 442 l 2,0,1
EndSplineSet
EndChar

StartChar: uni0394
Encoding: 916 916 426
Width: 606
Flags: W
LayerCount: 2
Fore
SplineSet
559 70 m 1,0,-1
 549 0 l 1,1,-1
 -57 0 l 1,2,-1
 -47 70 l 1,3,-1
 291 700 l 1,4,-1
 397 700 l 1,5,-1
 559 70 l 1,0,-1
406 118 m 1,6,-1
 315 488 l 1,7,-1
 118 118 l 1,8,-1
 406 118 l 1,6,-1
EndSplineSet
EndChar

StartChar: uni03A9
Encoding: 937 937 427
Width: 716
Flags: W
LayerCount: 2
Fore
SplineSet
26 98 m 1,0,-1
 176 98 l 1,1,-1
 182 137 l 1,2,3
 106 158 106 158 61.5 221.5 c 128,-1,4
 17 285 17 285 17 372 c 0,5,6
 17 470 17 470 64 547 c 128,-1,7
 111 624 111 624 195 667 c 128,-1,8
 279 710 279 710 386 710 c 0,9,10
 480 710 480 710 551 678 c 128,-1,11
 622 646 622 646 661 587 c 128,-1,12
 700 528 700 528 700 450 c 0,13,14
 700 334 700 334 634 249 c 128,-1,15
 568 164 568 164 458 137 c 1,16,-1
 452 98 l 1,17,-1
 602 98 l 1,18,-1
 589 0 l 1,19,-1
 329 0 l 1,20,-1
 356 197 l 1,21,22
 455 213 455 213 505 275 c 128,-1,23
 555 337 555 337 555 441 c 0,24,25
 555 522 555 522 507 566.5 c 128,-1,26
 459 611 459 611 372 611 c 0,27,28
 273 611 273 611 217.5 548 c 128,-1,29
 162 485 162 485 162 372 c 0,30,31
 162 298 162 298 197.5 253.5 c 128,-1,32
 233 209 233 209 301 197 c 1,33,-1
 274 0 l 1,34,-1
 13 0 l 1,35,-1
 26 98 l 1,0,-1
EndSplineSet
EndChar

StartChar: uni03BC
Encoding: 956 956 428
Width: 630
GlyphClass: 2
Flags: W
AnchorPoint: "Anchor-6" 554 523 basechar 0
AnchorPoint: "Anchor-5" 336 550 basechar 0
AnchorPoint: "Anchor-4" 518 17 basechar 0
AnchorPoint: "Anchor-3" 249 0 basechar 0
LayerCount: 2
Fore
SplineSet
518 133 m 2,0,1
 512 84 512 84 512 59 c 0,2,3
 512 35 512 35 517 17 c 1,4,5
 496 7 496 7 467.5 1 c 128,-1,6
 439 -5 439 -5 413 -5 c 0,7,8
 385 -5 385 -5 372.5 8 c 128,-1,9
 360 21 360 21 360 54 c 1,10,11
 315 -12 315 -12 228 -12 c 0,12,13
 191 -12 191 -12 159 3 c 1,14,-1
 128 -220 l 1,15,-1
 -18 -220 l 1,16,-1
 90 550 l 1,17,-1
 238 550 l 1,18,-1
 186 180 l 2,19,20
 184 160 184 160 184 153 c 0,21,22
 184 115 184 115 202 98.5 c 128,-1,23
 220 82 220 82 255 82 c 0,24,25
 293 82 293 82 322.5 104 c 128,-1,26
 352 126 352 126 375 173 c 1,27,-1
 428 550 l 1,28,-1
 577 550 l 1,29,-1
 518 133 l 2,0,1
EndSplineSet
EndChar

StartChar: pi
Encoding: 960 960 429
Width: 640
Flags: W
LayerCount: 2
Fore
SplineSet
366 15 m 128,-1,1
 339 40 339 40 339 83 c 0,2,3
 339 90 339 90 341 106 c 2,4,-1
 389 450 l 1,5,-1
 257 450 l 1,6,-1
 194 0 l 1,7,-1
 49 0 l 1,8,-1
 112 450 l 1,9,-1
 15 450 l 1,10,-1
 29 550 l 1,11,-1
 647 550 l 1,12,-1
 633 450 l 1,13,-1
 534 450 l 1,14,-1
 488 124 l 2,15,16
 487 118 487 118 487 107 c 0,17,18
 487 86 487 86 495.5 76 c 128,-1,19
 504 66 504 66 523 66 c 0,20,21
 552 66 552 66 588 84 c 1,22,-1
 578 13 l 1,23,24
 527 -10 527 -10 451 -10 c 0,25,0
 393 -10 393 -10 366 15 c 128,-1,1
EndSplineSet
EndChar

StartChar: uni0E01
Encoding: 3585 3585 430
Width: 615
GlyphClass: 2
Flags: W
AnchorPoint: "Anchor-12" 585 550 basechar 0
AnchorPoint: "Anchor-11" 508 0 basechar 0
LayerCount: 2
Fore
SplineSet
497.5 543.5 m 128,-1,1
 564 501 564 501 564 418 c 0,2,3
 564 401 564 401 561 383 c 2,4,-1
 508 0 l 1,5,-1
 363 0 l 1,6,-1
 416 383 l 2,7,8
 418 399 418 399 418 407 c 0,9,10
 418 494 418 494 314 494 c 0,11,12
 276 494 276 494 244.5 484.5 c 128,-1,13
 213 475 213 475 195 461.5 c 128,-1,14
 177 448 177 448 177 438 c 0,15,16
 177 419 177 419 193 406.5 c 128,-1,17
 209 394 209 394 225 394 c 0,18,19
 238 394 238 394 256 400 c 0,20,21
 271 405 271 405 282 405 c 0,22,23
 294 405 294 405 307 383 c 128,-1,24
 320 361 320 361 320 343 c 0,25,26
 320 326 320 326 305 326 c 0,27,28
 266 326 266 326 243.5 316 c 128,-1,29
 221 306 221 306 208.5 282.5 c 128,-1,30
 196 259 196 259 190 216 c 2,31,-1
 160 0 l 1,32,-1
 15 0 l 1,33,-1
 45 216 l 2,34,35
 56 296 56 296 123 341 c 1,36,37
 90 356 90 356 66.5 382 c 128,-1,38
 43 408 43 408 43 436 c 0,39,40
 43 469 43 469 75 504 c 128,-1,41
 107 539 107 539 169.5 562.5 c 128,-1,42
 232 586 232 586 317 586 c 0,43,0
 431 586 431 586 497.5 543.5 c 128,-1,1
EndSplineSet
EndChar

StartChar: uni0E02
Encoding: 3586 3586 431
Width: 605
GlyphClass: 2
Flags: W
AnchorPoint: "Anchor-12" 565 550 basechar 0
AnchorPoint: "Anchor-11" 488 0 basechar 0
LayerCount: 2
Fore
SplineSet
111 23.5 m 128,-1,1
 54 56 54 56 54 127 c 0,2,3
 54 139 54 139 68 239 c 0,4,5
 71 259 71 259 98 275 c 0,6,7
 158 308 158 308 187.5 327.5 c 128,-1,8
 217 347 217 347 239 377.5 c 128,-1,9
 261 408 261 408 261 450 c 0,10,11
 261 512 261 512 190 512 c 0,12,13
 153 512 153 512 132 493 c 128,-1,14
 111 474 111 474 111 446 c 0,15,16
 111 431 111 431 117.5 422.5 c 128,-1,17
 124 414 124 414 136 414 c 0,18,19
 169 414 169 414 169 450 c 0,20,21
 169 458 169 458 165.5 466 c 128,-1,22
 162 474 162 474 157 478 c 1,23,24
 168 487 168 487 181 487 c 0,25,26
 203 487 203 487 215.5 476 c 128,-1,27
 228 465 228 465 228 443 c 0,28,29
 228 401 228 401 200.5 374.5 c 128,-1,30
 173 348 173 348 131 348 c 0,31,32
 92 348 92 348 66.5 372.5 c 128,-1,33
 41 397 41 397 41 441 c 0,34,35
 41 504 41 504 86 543 c 128,-1,36
 131 582 131 582 203 582 c 0,37,38
 276 582 276 582 316.5 550.5 c 128,-1,39
 357 519 357 519 357 458 c 0,40,41
 357 385 357 385 320.5 335 c 128,-1,42
 284 285 284 285 213 237 c 1,43,44
 202 157 202 157 202 149 c 0,45,46
 202 83 202 83 271 83 c 0,47,48
 308 83 308 83 327.5 94 c 128,-1,49
 347 105 347 105 355 124 c 128,-1,50
 363 143 363 143 368 179 c 2,51,-1
 424 576 l 1,52,-1
 569 576 l 1,53,-1
 511 163 l 2,54,55
 497 67 497 67 433.5 29 c 128,-1,56
 370 -9 370 -9 261 -9 c 0,57,0
 168 -9 168 -9 111 23.5 c 128,-1,1
EndSplineSet
EndChar

StartChar: uni0E03
Encoding: 3587 3587 432
Width: 646
GlyphClass: 2
Flags: W
AnchorPoint: "Anchor-12" 606 550 basechar 0
AnchorPoint: "Anchor-11" 529 0 basechar 0
LayerCount: 2
Fore
SplineSet
129.5 30 m 128,-1,1
 75 69 75 69 75 144 c 0,2,3
 75 156 75 156 82 209 c 0,4,5
 87 250 87 250 110 277.5 c 128,-1,6
 133 305 133 305 176 341 c 256,7,8
 219 377 219 377 240 404 c 128,-1,9
 261 431 261 431 261 470 c 0,10,11
 261 494 261 494 240 494 c 0,12,13
 222 494 222 494 202 466 c 1,14,15
 190 493 190 493 163 493 c 0,16,17
 150 493 150 493 140 483.5 c 128,-1,18
 130 474 130 474 130 457 c 0,19,20
 130 445 130 445 137 439 c 128,-1,21
 144 433 144 433 155 433 c 0,22,23
 178 433 178 433 194 453 c 1,24,25
 201 446 201 446 204.5 440.5 c 128,-1,26
 208 435 208 435 208 428 c 0,27,28
 208 406 208 406 186.5 388 c 128,-1,29
 165 370 165 370 127 370 c 0,30,31
 85 370 85 370 58.5 392.5 c 128,-1,32
 32 415 32 415 32 456 c 0,33,34
 32 507 32 507 63.5 543.5 c 128,-1,35
 95 580 95 580 142 580 c 0,36,37
 171 580 171 580 187.5 570.5 c 128,-1,38
 204 561 204 561 213 541 c 1,39,40
 227 559 227 559 250 569.5 c 128,-1,41
 273 580 273 580 303 580 c 0,42,43
 345 580 345 580 371 553 c 128,-1,44
 397 526 397 526 397 483 c 0,45,46
 397 436 397 436 374 399 c 128,-1,47
 351 362 351 362 308 316 c 0,48,49
 274 277 274 277 257.5 254 c 128,-1,50
 241 231 241 231 237 205 c 0,51,52
 230 157 230 157 230 144 c 0,53,54
 230 113 230 113 246 99 c 128,-1,55
 262 85 262 85 304 85 c 0,56,57
 359 85 359 85 380.5 107 c 128,-1,58
 402 129 402 129 409 179 c 2,59,-1
 465 576 l 1,60,-1
 610 576 l 1,61,-1
 552 169 l 2,62,63
 527 -9 527 -9 289 -9 c 0,64,0
 184 -9 184 -9 129.5 30 c 128,-1,1
EndSplineSet
EndChar

StartChar: uni0E04
Encoding: 3588 3588 433
Width: 634
GlyphClass: 2
Flags: W
AnchorPoint: "Anchor-12" 604 550 basechar 0
AnchorPoint: "Anchor-11" 527 0 basechar 0
LayerCount: 2
Fore
SplineSet
518 536.5 m 128,-1,1
 580 487 580 487 580 402 c 0,2,3
 580 384 580 384 576 350 c 2,4,-1
 527 0 l 1,5,-1
 382 0 l 1,6,-1
 430 345 l 2,7,8
 435 380 435 380 435 405 c 0,9,10
 435 447 435 447 410 470.5 c 128,-1,11
 385 494 385 494 325 494 c 0,12,13
 176 494 176 494 176 306 c 2,14,-1
 176 296 l 1,15,16
 201 327 201 327 234 345.5 c 128,-1,17
 267 364 267 364 306 364 c 0,18,19
 350 364 350 364 374.5 342.5 c 128,-1,20
 399 321 399 321 399 280 c 0,21,22
 399 230 399 230 370 202.5 c 128,-1,23
 341 175 341 175 295 175 c 0,24,25
 269 175 269 175 251 188 c 128,-1,26
 233 201 233 201 233 219 c 0,27,28
 233 232 233 232 240.5 243.5 c 128,-1,29
 248 255 248 255 261 257 c 1,30,31
 264 242 264 242 272 235.5 c 128,-1,32
 280 229 280 229 294 229 c 256,33,34
 308 229 308 229 317.5 238.5 c 128,-1,35
 327 248 327 248 329 262 c 0,36,37
 331 275 331 275 321.5 283.5 c 128,-1,38
 312 292 312 292 296 292 c 0,39,40
 240 292 240 292 206 222.5 c 128,-1,41
 172 153 172 153 147 0 c 1,42,-1
 16 0 l 2,43,44
 3 0 3 0 3 12 c 0,45,46
 3 36 3 36 18.5 67.5 c 128,-1,47
 34 99 34 99 57 136 c 0,48,49
 75 167 75 167 75 170 c 0,50,51
 75 175 75 175 64 197 c 0,52,53
 49 226 49 226 40.5 252.5 c 128,-1,54
 32 279 32 279 32 317 c 0,55,56
 32 399 32 399 69 460 c 128,-1,57
 106 521 106 521 173 553.5 c 128,-1,58
 240 586 240 586 328 586 c 0,59,0
 456 586 456 586 518 536.5 c 128,-1,1
EndSplineSet
EndChar

StartChar: uni0E05
Encoding: 3589 3589 434
Width: 640
GlyphClass: 2
Flags: W
AnchorPoint: "Anchor-12" 610 550 basechar 0
AnchorPoint: "Anchor-11" 533 0 basechar 0
LayerCount: 2
Fore
SplineSet
551 529 m 128,-1,1
 589 490 589 490 589 422 c 0,2,3
 589 394 589 394 585 370 c 2,4,-1
 533 0 l 1,5,-1
 388 0 l 1,6,-1
 440 370 l 2,7,8
 442 381 442 381 442 402 c 0,9,10
 442 461 442 461 402 476 c 1,11,-1
 378 461 l 2,12,13
 344 439 344 439 322 426 c 1,14,15
 299 441 299 441 274 461 c 2,16,-1
 253 476 l 1,17,18
 211 452 211 452 193.5 410 c 128,-1,19
 176 368 176 368 176 306 c 2,20,-1
 176 294 l 1,21,22
 201 326 201 326 236 345 c 128,-1,23
 271 364 271 364 311 364 c 0,24,25
 355 364 355 364 379.5 342.5 c 128,-1,26
 404 321 404 321 404 280 c 0,27,28
 404 230 404 230 375 202.5 c 128,-1,29
 346 175 346 175 300 175 c 0,30,31
 274 175 274 175 256 188 c 128,-1,32
 238 201 238 201 238 219 c 0,33,34
 238 232 238 232 245.5 243.5 c 128,-1,35
 253 255 253 255 266 257 c 1,36,37
 269 242 269 242 277 235.5 c 128,-1,38
 285 229 285 229 299 229 c 0,39,40
 314 229 314 229 324 239.5 c 128,-1,41
 334 250 334 250 334 265 c 0,42,43
 334 277 334 277 325 284.5 c 128,-1,44
 316 292 316 292 301 292 c 0,45,46
 245 292 245 292 208 221.5 c 128,-1,47
 171 151 171 151 147 0 c 1,48,-1
 16 0 l 2,49,50
 3 0 3 0 3 12 c 0,51,52
 3 36 3 36 18.5 67.5 c 128,-1,53
 34 99 34 99 57 136 c 0,54,55
 75 167 75 167 75 170 c 0,56,57
 75 175 75 175 64 197 c 0,58,59
 49 226 49 226 40.5 252.5 c 128,-1,60
 32 279 32 279 32 317 c 0,61,62
 32 426 32 426 95 496.5 c 128,-1,63
 158 567 158 567 268 586 c 1,64,65
 286 577 286 577 299 567 c 128,-1,66
 312 557 312 557 322.5 546.5 c 128,-1,67
 333 536 333 536 337 532 c 1,68,69
 343 536 343 536 367 554 c 128,-1,70
 391 572 391 572 419 586 c 1,71,0
 513 568 513 568 551 529 c 128,-1,1
EndSplineSet
EndChar

StartChar: uni0E06
Encoding: 3590 3590 435
Width: 707
GlyphClass: 2
Flags: W
AnchorPoint: "Anchor-12" 660 550 basechar 0
AnchorPoint: "Anchor-11" 583 0 basechar 0
LayerCount: 2
Fore
SplineSet
664 576 m 1,0,-1
 602 138 l 2,1,2
 595 77 595 77 593 44 c 0,3,4
 591 18 591 18 591 20 c 1,5,6
 588 0 588 0 573 0 c 2,7,-1
 440 0 l 1,8,9
 419 71 419 71 379 114.5 c 128,-1,10
 339 158 339 158 289 179 c 1,11,12
 285 141 285 141 284 122 c 0,13,14
 279 61 279 61 238.5 26 c 128,-1,15
 198 -9 198 -9 128 -9 c 0,16,17
 72 -9 72 -9 40.5 23 c 128,-1,18
 9 55 9 55 9 107 c 0,19,20
 9 177 9 177 53.5 222.5 c 128,-1,21
 98 268 98 268 167 277 c 1,22,23
 177 296 177 296 189 312 c 128,-1,24
 201 328 201 328 213.5 342.5 c 128,-1,25
 226 357 226 357 232 364 c 0,26,27
 254 387 254 387 267.5 415.5 c 128,-1,28
 281 444 281 444 281 470 c 0,29,30
 281 482 281 482 276.5 487.5 c 128,-1,31
 272 493 272 493 261 493 c 0,32,33
 243 493 243 493 223 466 c 1,34,35
 211 493 211 493 183 493 c 0,36,37
 169 493 169 493 159.5 485 c 128,-1,38
 150 477 150 477 150 460 c 0,39,40
 150 446 150 446 157 439.5 c 128,-1,41
 164 433 164 433 175 433 c 0,42,43
 198 433 198 433 214 453 c 1,44,45
 228 443 228 443 228 427 c 0,46,47
 228 404 228 404 209 387 c 128,-1,48
 190 370 190 370 151 370 c 0,49,50
 107 370 107 370 79.5 395 c 128,-1,51
 52 420 52 420 52 462 c 0,52,53
 52 512 52 512 82.5 546 c 128,-1,54
 113 580 113 580 160 580 c 0,55,56
 189 580 189 580 205.5 570.5 c 128,-1,57
 222 561 222 561 231 541 c 1,58,59
 243 559 243 559 266 569.5 c 128,-1,60
 289 580 289 580 321 580 c 0,61,62
 364 580 364 580 390.5 554 c 128,-1,63
 417 528 417 528 417 483 c 0,64,65
 417 419 417 419 360 340 c 0,66,67
 321 285 321 285 309 259 c 1,68,69
 355 242 355 242 394.5 215 c 128,-1,70
 434 188 434 188 459 152 c 1,71,-1
 519 576 l 1,72,-1
 664 576 l 1,0,-1
132.5 78 m 128,-1,74
 140 93 140 93 141 117 c 2,75,-1
 146 195 l 1,76,77
 115 187 115 187 99.5 167 c 128,-1,78
 84 147 84 147 84 109 c 0,79,80
 84 88 84 88 91 75.5 c 128,-1,81
 98 63 98 63 110 63 c 0,82,73
 125 63 125 63 132.5 78 c 128,-1,74
EndSplineSet
EndChar

StartChar: uni0E07
Encoding: 3591 3591 436
Width: 560
GlyphClass: 2
Flags: W
AnchorPoint: "Anchor-12" 515 550 basechar 0
AnchorPoint: "Anchor-11" 397 0 basechar 0
LayerCount: 2
Fore
SplineSet
140 -0.5 m 128,-1,1
 102 8 102 8 102 20 c 0,2,3
 95 129 95 129 71.5 210 c 128,-1,4
 48 291 48 291 4 365 c 1,5,6
 15 387 15 387 39.5 400 c 128,-1,7
 64 413 64 413 92 413 c 0,8,9
 130 413 130 413 148.5 396.5 c 128,-1,10
 167 380 167 380 175 352 c 0,11,12
 191 293 191 293 199 235.5 c 128,-1,13
 207 178 207 178 209 86 c 0,14,15
 209 77 209 77 248 77 c 0,16,17
 286 77 286 77 289 87 c 0,18,19
 312 169 312 169 337.5 292 c 128,-1,20
 363 415 363 415 363 458 c 0,21,22
 363 480 363 480 355.5 491 c 128,-1,23
 348 502 348 502 330 502 c 0,24,25
 314 502 314 502 305 494 c 128,-1,26
 296 486 296 486 296 472 c 0,27,28
 296 461 296 461 302.5 454.5 c 128,-1,29
 309 448 309 448 320 448 c 0,30,31
 330 448 330 448 344 454 c 1,32,33
 348 449 348 449 348 440 c 0,34,35
 348 421 348 421 333 409 c 128,-1,36
 318 397 318 397 290 397 c 0,37,38
 258 397 258 397 238 419 c 128,-1,39
 218 441 218 441 218 473 c 0,40,41
 218 523 218 523 253 552.5 c 128,-1,42
 288 582 288 582 357 582 c 0,43,44
 430 582 430 582 470 548 c 128,-1,45
 510 514 510 514 510 455 c 0,46,47
 510 407 510 407 484 316.5 c 128,-1,48
 458 226 458 226 406 64 c 0,49,50
 401 51 401 51 397.5 39.5 c 128,-1,51
 394 28 394 28 391 20 c 0,52,53
 387 8 387 8 338 -0.5 c 128,-1,54
 289 -9 289 -9 232 -9 c 0,55,0
 178 -9 178 -9 140 -0.5 c 128,-1,1
EndSplineSet
EndChar

StartChar: uni0E08
Encoding: 3592 3592 437
Width: 618
GlyphClass: 2
Flags: W
AnchorPoint: "Anchor-12" 588 550 basechar 0
AnchorPoint: "Anchor-11" 445 0 basechar 0
LayerCount: 2
Fore
SplineSet
213 -0.5 m 128,-1,1
 181 8 181 8 182 20 c 0,2,3
 186 131 186 131 186 217 c 0,4,5
 186 271 186 271 153 271 c 0,6,7
 139 271 139 271 129.5 262 c 128,-1,8
 120 253 120 253 120 241 c 0,9,10
 120 228 120 228 127 220 c 128,-1,11
 134 212 134 212 145 212 c 0,12,13
 158 212 158 212 168 217 c 1,14,15
 172 211 172 211 172 205 c 0,16,17
 172 187 172 187 160.5 176.5 c 128,-1,18
 149 166 149 166 126 166 c 0,19,20
 96 166 96 166 75 187 c 128,-1,21
 54 208 54 208 54 244 c 0,22,23
 54 289 54 289 84 318 c 128,-1,24
 114 347 114 347 165 347 c 0,25,26
 291 347 291 347 291 208 c 0,27,28
 291 115 291 115 289 86 c 0,29,30
 289 77 289 77 311 77 c 0,31,32
 323 77 323 77 328 79.5 c 128,-1,33
 333 82 333 82 335 87 c 0,34,35
 379 205 379 205 396.5 263.5 c 128,-1,36
 414 322 414 322 414 376 c 0,37,38
 414 427 414 427 390 454.5 c 128,-1,39
 366 482 366 482 313 482 c 0,40,41
 275 482 275 482 246 471 c 128,-1,42
 217 460 217 460 165 434 c 0,43,44
 162 433 162 433 153 428 c 128,-1,45
 144 423 144 423 135.5 421 c 128,-1,46
 127 419 127 419 118 419 c 0,47,48
 100 419 100 419 82 449.5 c 128,-1,49
 64 480 64 480 59 517 c 1,50,51
 105 546 105 546 173.5 566 c 128,-1,52
 242 586 242 586 319 586 c 0,53,54
 388 586 388 586 443.5 559.5 c 128,-1,55
 499 533 499 533 530.5 487 c 128,-1,56
 562 441 562 441 562 385 c 0,57,58
 562 328 562 328 546 280.5 c 128,-1,59
 530 233 530 233 491 150 c 0,60,61
 448 56 448 56 433 20 c 0,62,63
 428 8 428 8 388 -0.5 c 128,-1,64
 348 -9 348 -9 298 -9 c 0,65,0
 245 -9 245 -9 213 -0.5 c 128,-1,1
EndSplineSet
EndChar

StartChar: uni0E09
Encoding: 3593 3593 438
Width: 647
GlyphClass: 2
Flags: W
AnchorPoint: "Anchor-12" 617 550 basechar 0
AnchorPoint: "Anchor-11" 540 0 basechar 0
LayerCount: 2
Fore
SplineSet
599 123 m 0,1,2
 599 61 599 61 563.5 28.5 c 128,-1,3
 528 -4 528 -4 457 -4 c 0,4,5
 407 -4 407 -4 377.5 24 c 128,-1,6
 348 52 348 52 348 92 c 0,7,8
 348 137 348 137 375 173 c 1,9,10
 328 154 328 154 291 105.5 c 128,-1,11
 254 57 254 57 247 0 c 1,12,-1
 137 0 l 2,13,14
 123 0 123 0 118 6 c 128,-1,15
 113 12 113 12 115 26 c 2,16,-1
 124 86 l 2,17,18
 128 112 128 112 142 157 c 0,19,20
 148 177 148 177 154.5 200.5 c 128,-1,21
 161 224 161 224 164 252 c 0,22,23
 166 270 166 270 158 281.5 c 128,-1,24
 150 293 150 293 131 293 c 256,25,26
 112 293 112 293 100 281 c 128,-1,27
 88 269 88 269 88 250 c 0,28,29
 88 234 88 234 96 225.5 c 128,-1,30
 104 217 104 217 117 217 c 0,31,32
 134 217 134 217 143 223 c 1,33,34
 146 217 146 217 146 209 c 0,35,36
 146 193 146 193 132.5 180.5 c 128,-1,37
 119 168 119 168 94 168 c 0,38,39
 64 168 64 168 43 189.5 c 128,-1,40
 22 211 22 211 22 245 c 0,41,42
 22 298 22 298 61 329 c 128,-1,43
 100 360 100 360 163 360 c 0,44,45
 225 360 225 360 258.5 330.5 c 128,-1,46
 292 301 292 301 292 253 c 0,47,48
 292 234 292 234 287 209 c 1,49,50
 348 256 348 256 429 258 c 1,51,-1
 433 278 l 1,52,-1
 448 378 l 2,53,54
 449 388 449 388 449 400 c 0,55,56
 449 482 449 482 335 482 c 0,57,58
 285 482 285 482 243.5 466.5 c 128,-1,59
 202 451 202 451 161 427 c 0,60,61
 157 424 157 424 149 419 c 128,-1,62
 141 414 141 414 134 411.5 c 128,-1,63
 127 409 127 409 120 409 c 0,64,65
 104 409 104 409 86 433.5 c 128,-1,66
 68 458 68 458 59 496 c 1,67,68
 108 533 108 533 184 559.5 c 128,-1,69
 260 586 260 586 351 586 c 0,70,71
 461 586 461 586 528.5 541 c 128,-1,72
 596 496 596 496 596 415 c 0,73,74
 596 406 596 406 594 388 c 2,75,-1
 577 273 l 2,76,77
 573 244 573 244 550 221 c 1,78,0
 599 183 599 183 599 123 c 0,1,2
506 73.5 m 128,-1,80
 519 89 519 89 519 117 c 0,81,82
 519 154 519 154 484 171 c 1,83,84
 459 153 459 153 446 136.5 c 128,-1,85
 433 120 433 120 433 97 c 0,86,87
 433 78 433 78 443 68 c 128,-1,88
 453 58 453 58 470 58 c 0,89,79
 493 58 493 58 506 73.5 c 128,-1,80
EndSplineSet
EndChar

StartChar: uni0E0A
Encoding: 3594 3594 439
Width: 615
GlyphClass: 2
Flags: W
AnchorPoint: "Anchor-12" 564 550 basechar 0
AnchorPoint: "Anchor-11" 487 0 basechar 0
LayerCount: 2
Fore
SplineSet
560 467.5 m 128,-1,1
 525 423 525 423 471 406 c 1,2,3
 498 396 498 396 514.5 374 c 128,-1,4
 531 352 531 352 531 319 c 0,5,6
 531 312 531 312 529 296 c 2,7,-1
 511 163 l 2,8,9
 486 -9 486 -9 257 -9 c 0,10,11
 174 -9 174 -9 114 25 c 128,-1,12
 54 59 54 59 54 128 c 0,13,14
 54 135 54 135 56 151 c 2,15,-1
 68 239 l 2,16,17
 71 261 71 261 98 275 c 0,18,19
 155 305 155 305 186.5 325 c 128,-1,20
 218 345 218 345 239 373.5 c 128,-1,21
 260 402 260 402 260 440 c 0,22,23
 260 473 260 473 241 491 c 128,-1,24
 222 509 222 509 187 509 c 256,25,26
 152 509 152 509 130 490.5 c 128,-1,27
 108 472 108 472 108 446 c 0,28,29
 108 428 108 428 116.5 417.5 c 128,-1,30
 125 407 125 407 139 407 c 0,31,32
 155 407 155 407 164.5 416 c 128,-1,33
 174 425 174 425 174 441 c 0,34,35
 174 458 174 458 170 470 c 1,36,37
 176 473 176 473 186 473 c 0,38,39
 205 473 205 473 216.5 461.5 c 128,-1,40
 228 450 228 450 228 426 c 0,41,42
 228 390 228 390 202.5 366 c 128,-1,43
 177 342 177 342 133 342 c 0,44,45
 92 342 92 342 65.5 369.5 c 128,-1,46
 39 397 39 397 39 443 c 0,47,48
 39 509 39 509 85 544 c 128,-1,49
 131 579 131 579 201 579 c 0,50,51
 262 579 262 579 307 544 c 128,-1,52
 352 509 352 509 356 452 c 1,53,54
 409 468 409 468 444.5 512 c 128,-1,55
 480 556 480 556 492 631 c 1,56,57
 595 631 595 631 595 566 c 0,58,0
 595 512 595 512 560 467.5 c 128,-1,1
388 334 m 0,60,61
 388 371 388 371 362 371 c 2,62,-1
 345 370 l 1,63,64
 329 331 329 331 297.5 301.5 c 128,-1,65
 266 272 266 272 213 237 c 1,66,-1
 204 172 l 2,67,68
 202 158 202 158 202 151 c 0,69,70
 202 119 202 119 219.5 101 c 128,-1,71
 237 83 237 83 271 83 c 0,72,73
 319 83 319 83 340 106 c 128,-1,74
 361 129 361 129 368 179 c 2,75,-1
 387 316 l 2,76,59
 388 323 388 323 388 334 c 0,60,61
EndSplineSet
EndChar

StartChar: uni0E0B
Encoding: 3595 3595 440
Width: 655
GlyphClass: 2
Flags: W
AnchorPoint: "Anchor-12" 606 550 basechar 0
AnchorPoint: "Anchor-11" 528 0 basechar 0
LayerCount: 2
Fore
SplineSet
605.5 471.5 m 128,-1,1
 574 430 574 430 527 410 c 1,2,3
 572 385 572 385 572 323 c 0,4,5
 572 316 572 316 570 296 c 2,6,-1
 552 169 l 2,7,8
 540 83 540 83 477 37 c 128,-1,9
 414 -9 414 -9 284 -9 c 0,10,11
 177 -9 177 -9 116.5 31.5 c 128,-1,12
 56 72 56 72 56 149 c 0,13,14
 56 168 56 168 58 179 c 2,15,-1
 65 215 l 2,16,17
 74 263 74 263 101.5 293.5 c 128,-1,18
 129 324 129 324 179 361 c 0,19,20
 222 393 222 393 241.5 415 c 128,-1,21
 261 437 261 437 261 470 c 0,22,23
 261 494 261 494 240 494 c 0,24,25
 222 494 222 494 202 466 c 1,26,27
 190 493 190 493 161 493 c 0,28,29
 148 493 148 493 139 484.5 c 128,-1,30
 130 476 130 476 130 460 c 0,31,32
 130 447 130 447 137 440 c 128,-1,33
 144 433 144 433 155 433 c 0,34,35
 178 433 178 433 194 453 c 1,36,37
 206 444 206 444 203 424 c 0,38,39
 201 403 201 403 178 386.5 c 128,-1,40
 155 370 155 370 119 370 c 0,41,42
 81 370 81 370 56.5 394 c 128,-1,43
 32 418 32 418 32 458 c 0,44,45
 32 509 32 509 62 544.5 c 128,-1,46
 92 580 92 580 139 580 c 0,47,48
 167 580 167 580 184 570 c 128,-1,49
 201 560 201 560 211 541 c 1,50,51
 224 559 224 559 246.5 569.5 c 128,-1,52
 269 580 269 580 299 580 c 0,53,54
 345 580 345 580 371 556.5 c 128,-1,55
 397 533 397 533 397 490 c 0,56,57
 397 472 397 472 392 454 c 1,58,59
 448 473 448 473 478 514 c 128,-1,60
 508 555 508 555 523 631 c 1,61,62
 637 631 637 631 637 561 c 0,63,0
 637 513 637 513 605.5 471.5 c 128,-1,1
429 334 m 0,65,66
 429 371 429 371 403 371 c 0,67,68
 394 371 394 371 381.5 369 c 128,-1,69
 369 367 369 367 362 367 c 0,70,71
 358 367 358 367 349 376 c 1,72,73
 338 362 338 362 322 346 c 128,-1,74
 306 330 306 330 299 322 c 0,75,76
 264 287 264 287 245 262.5 c 128,-1,77
 226 238 226 238 220 211 c 2,78,-1
 213 179 l 2,79,80
 211 170 211 170 211 155 c 0,81,82
 211 120 211 120 232 102.5 c 128,-1,83
 253 85 253 85 299 85 c 0,84,85
 355 85 355 85 378.5 107.5 c 128,-1,86
 402 130 402 130 409 179 c 2,87,-1
 428 316 l 2,88,64
 429 323 429 323 429 334 c 0,65,66
EndSplineSet
EndChar

StartChar: uni0E0C
Encoding: 3596 3596 441
Width: 910
GlyphClass: 2
Flags: W
AnchorPoint: "Anchor-12" 863 550 basechar 0
AnchorPoint: "Anchor-11" 786 0 basechar 0
LayerCount: 2
Fore
SplineSet
867 576 m 1,0,-1
 805 138 l 2,1,2
 798 77 798 77 796 44 c 0,3,4
 794 18 794 18 794 20 c 1,5,6
 791 0 791 0 776 0 c 2,7,-1
 643 0 l 1,8,9
 605 125 605 125 525 162 c 1,10,-1
 519 118 l 2,11,12
 511 54 511 54 483.5 22.5 c 128,-1,13
 456 -9 456 -9 390 -9 c 0,14,15
 359 -9 359 -9 333.5 7 c 128,-1,16
 308 23 308 23 295 53 c 1,17,18
 267 -7 267 -7 167 -7 c 0,19,20
 103 -7 103 -7 62 24 c 128,-1,21
 21 55 21 55 21 106 c 0,22,23
 21 122 21 122 22 131 c 2,24,-1
 36 221 l 2,25,26
 46 299 46 299 109 342 c 1,27,28
 81 357 81 357 62 383.5 c 128,-1,29
 43 410 43 410 43 437 c 0,30,31
 43 469 43 469 77 504 c 128,-1,32
 111 539 111 539 171 562.5 c 128,-1,33
 231 586 231 586 307 586 c 0,34,35
 435 586 435 586 497 542 c 128,-1,36
 559 498 559 498 559 417 c 0,37,38
 559 401 559 401 556 383 c 2,39,-1
 537 243 l 1,40,41
 618 211 618 211 660 142 c 1,42,-1
 722 576 l 1,43,-1
 867 576 l 1,0,-1
326.5 216.5 m 128,-1,45
 354 240 354 240 393 250 c 1,46,-1
 411 383 l 2,47,48
 413 399 413 399 413 407 c 0,49,50
 413 448 413 448 386.5 471 c 128,-1,51
 360 494 360 494 304 494 c 0,52,53
 266 494 266 494 237 484.5 c 128,-1,54
 208 475 208 475 192.5 461.5 c 128,-1,55
 177 448 177 448 177 438 c 0,56,57
 177 420 177 420 188.5 409 c 128,-1,58
 200 398 200 398 215 398 c 0,59,60
 223 398 223 398 231 399.5 c 128,-1,61
 239 401 239 401 242 401 c 0,62,63
 251 404 251 404 263 404 c 256,64,65
 275 404 275 404 290.5 379 c 128,-1,66
 306 354 306 354 306 334 c 0,67,68
 306 315 306 315 295 315 c 0,69,70
 237 315 237 315 212.5 295 c 128,-1,71
 188 275 188 275 181 221 c 2,72,-1
 166 118 l 2,73,74
 164 102 164 102 164 98 c 0,75,76
 164 82 164 82 172.5 72.5 c 128,-1,77
 181 63 181 63 198 63 c 0,78,79
 232 63 232 63 232 101 c 0,80,81
 232 115 232 115 224.5 122.5 c 128,-1,82
 217 130 217 130 203 130 c 0,83,84
 193 130 193 130 182 127 c 1,85,86
 180 133 180 133 180 136 c 0,87,88
 180 158 180 158 195 171 c 128,-1,89
 210 184 210 184 236 184 c 0,90,91
 269 184 269 184 288 160 c 1,92,44
 299 193 299 193 326.5 216.5 c 128,-1,45
367 73.5 m 128,-1,94
 371 84 371 84 376 122 c 2,95,-1
 382 168 l 1,96,97
 339 152 339 152 339 99 c 0,98,99
 339 84 339 84 344 73.5 c 128,-1,100
 349 63 349 63 356 63 c 256,101,93
 363 63 363 63 367 73.5 c 128,-1,94
EndSplineSet
EndChar

StartChar: uni0E240E45
Encoding: 65537 -1 442
Width: 936
Flags: W
LayerCount: 2
Fore
SplineSet
411 383 m 2,0,1
 413 399 413 399 413 407 c 0,2,3
 413 448 413 448 386.5 471 c 128,-1,4
 360 494 360 494 304 494 c 0,5,6
 266 494 266 494 237 484.5 c 128,-1,7
 208 475 208 475 192.5 461.5 c 128,-1,8
 177 448 177 448 177 438 c 0,9,10
 177 420 177 420 188.5 409 c 128,-1,11
 200 398 200 398 215 398 c 0,12,13
 223 398 223 398 231 399.5 c 128,-1,14
 239 401 239 401 242 401 c 0,15,16
 251 404 251 404 263 404 c 256,17,18
 275 404 275 404 290.5 379 c 128,-1,19
 306 354 306 354 306 334 c 0,20,21
 306 315 306 315 295 315 c 0,22,23
 237 315 237 315 213 295.5 c 128,-1,24
 189 276 189 276 181 221 c 2,25,-1
 166 118 l 2,26,27
 164 102 164 102 164 98 c 0,28,29
 164 82 164 82 172.5 72.5 c 128,-1,30
 181 63 181 63 198 63 c 0,31,32
 232 63 232 63 232 101 c 0,33,34
 232 115 232 115 224.5 122.5 c 128,-1,35
 217 130 217 130 203 130 c 0,36,37
 193 130 193 130 182 127 c 1,38,39
 180 133 180 133 180 136 c 0,40,41
 180 158 180 158 195 171 c 128,-1,42
 210 184 210 184 236 184 c 0,43,44
 266 184 266 184 286 163 c 128,-1,45
 306 142 306 142 306 110 c 0,46,47
 306 -7 306 -7 167 -7 c 0,48,49
 103 -7 103 -7 62 24 c 128,-1,50
 21 55 21 55 21 106 c 0,51,52
 21 122 21 122 22 131 c 2,53,-1
 36 221 l 2,54,55
 49 303 49 303 109 342 c 1,56,57
 81 357 81 357 62 383.5 c 128,-1,58
 43 410 43 410 43 437 c 0,59,60
 43 469 43 469 77 504 c 128,-1,61
 111 539 111 539 171 562.5 c 128,-1,62
 231 586 231 586 307 586 c 0,63,64
 451 586 451 586 513 529 c 1,65,66
 610 586 610 586 703 586 c 0,67,68
 793 586 793 586 840 548 c 128,-1,69
 887 510 887 510 887 437 c 0,70,71
 887 419 887 419 884 399 c 2,72,-1
 798 -220 l 1,73,-1
 653 -220 l 1,74,-1
 740 402 l 2,75,76
 742 416 742 416 742 423 c 0,77,78
 742 483 742 483 676 483 c 0,79,80
 621 483 621 483 558 437 c 1,81,82
 559 431 559 431 559 417 c 0,83,84
 559 401 559 401 556 383 c 2,85,-1
 472 -220 l 1,86,-1
 327 -220 l 1,87,-1
 411 383 l 2,0,1
EndSplineSet
Ligature2: "'liga' Standard Ligatures lookup 13 subtable" uni0E24 uni0E45
EndChar

StartChar: uni0E260E45
Encoding: 65538 -1 443
Width: 936
Flags: W
LayerCount: 2
Fore
SplineSet
416 383 m 2,0,1
 418 399 418 399 418 407 c 0,2,3
 418 494 418 494 314 494 c 0,4,5
 276 494 276 494 247 484.5 c 128,-1,6
 218 475 218 475 202.5 461.5 c 128,-1,7
 187 448 187 448 187 438 c 0,8,9
 187 419 187 419 198.5 410 c 128,-1,10
 210 401 210 401 226 401 c 0,11,12
 239 401 239 401 257 405 c 256,13,14
 275 409 275 409 283 409 c 0,15,16
 295 409 295 409 307.5 384.5 c 128,-1,17
 320 360 320 360 320 339 c 0,18,19
 320 320 320 320 309 320 c 0,20,21
 260 320 260 320 237.5 300.5 c 128,-1,22
 215 281 215 281 215 237 c 0,23,24
 215 224 215 224 216 212 c 128,-1,25
 217 200 217 200 218 190 c 0,26,27
 222 154 222 154 222 135 c 0,28,29
 222 72 222 72 182 32.5 c 128,-1,30
 142 -7 142 -7 70 -7 c 0,31,32
 13 -7 13 -7 -16.5 18.5 c 128,-1,33
 -46 44 -46 44 -46 82 c 0,34,35
 -46 125 -46 125 -24 145.5 c 128,-1,36
 -2 166 -2 166 32 166 c 0,37,38
 72 166 72 166 72 126 c 1,39,-1
 55 126 l 2,40,41
 39 126 39 126 29 115.5 c 128,-1,42
 19 105 19 105 19 89 c 0,43,44
 19 77 19 77 26.5 70 c 128,-1,45
 34 63 34 63 46 63 c 0,46,47
 65 63 65 63 74.5 77.5 c 128,-1,48
 84 92 84 92 84 115 c 0,49,50
 84 152 84 152 75 197 c 0,51,52
 69 225 69 225 69 240 c 0,53,54
 69 319 69 319 137 347 c 1,55,56
 101 360 101 360 77 384 c 128,-1,57
 53 408 53 408 53 436 c 0,58,59
 53 469 53 469 82.5 504 c 128,-1,60
 112 539 112 539 172 562.5 c 128,-1,61
 232 586 232 586 317 586 c 0,62,63
 455 586 455 586 517 531 c 1,64,65
 611 586 611 586 703 586 c 0,66,67
 793 586 793 586 840 548 c 128,-1,68
 887 510 887 510 887 437 c 0,69,70
 887 419 887 419 884 399 c 2,71,-1
 798 -220 l 1,72,-1
 653 -220 l 1,73,-1
 740 402 l 2,74,75
 742 416 742 416 742 423 c 0,76,77
 742 483 742 483 676 483 c 0,78,79
 624 483 624 483 563 440 c 1,80,81
 564 433 564 433 564 418 c 0,82,83
 564 401 564 401 561 383 c 2,84,-1
 477 -220 l 1,85,-1
 332 -220 l 1,86,-1
 416 383 l 2,0,1
EndSplineSet
Ligature2: "'liga' Standard Ligatures lookup 13 subtable" uni0E26 uni0E45
EndChar

StartChar: uni0E0D
Encoding: 3597 3597 444
Width: 940
GlyphClass: 2
Flags: W
AnchorPoint: "Anchor-12" 900 550 basechar 0
AnchorPoint: "Anchor-11" 752 -250 basechar 0
LayerCount: 2
Fore
SplineSet
467.5 3 m 128,-1,1
 422 15 422 15 400.5 44 c 128,-1,2
 379 73 379 73 379 126 c 0,3,4
 379 153 379 153 383 180 c 2,5,-1
 411 383 l 2,6,7
 413 399 413 399 413 407 c 0,8,9
 413 448 413 448 386.5 471 c 128,-1,10
 360 494 360 494 304 494 c 0,11,12
 266 494 266 494 237 484.5 c 128,-1,13
 208 475 208 475 192.5 461.5 c 128,-1,14
 177 448 177 448 177 438 c 0,15,16
 177 420 177 420 188.5 409 c 128,-1,17
 200 398 200 398 215 398 c 0,18,19
 223 398 223 398 231 399.5 c 128,-1,20
 239 401 239 401 242 401 c 0,21,22
 251 404 251 404 263 404 c 256,23,24
 275 404 275 404 290.5 379 c 128,-1,25
 306 354 306 354 306 334 c 0,26,27
 306 315 306 315 295 315 c 0,28,29
 237 315 237 315 213 295.5 c 128,-1,30
 189 276 189 276 181 221 c 2,31,-1
 166 118 l 2,32,33
 164 102 164 102 164 98 c 0,34,35
 164 82 164 82 172.5 72.5 c 128,-1,36
 181 63 181 63 198 63 c 0,37,38
 232 63 232 63 232 101 c 0,39,40
 232 115 232 115 224.5 122.5 c 128,-1,41
 217 130 217 130 203 130 c 0,42,43
 193 130 193 130 182 127 c 1,44,45
 180 133 180 133 180 136 c 0,46,47
 180 158 180 158 195 171 c 128,-1,48
 210 184 210 184 236 184 c 0,49,50
 266 184 266 184 286 163 c 128,-1,51
 306 142 306 142 306 110 c 0,52,53
 306 -7 306 -7 167 -7 c 0,54,55
 103 -7 103 -7 62 24 c 128,-1,56
 21 55 21 55 21 106 c 0,57,58
 21 122 21 122 22 131 c 2,59,-1
 36 221 l 2,60,61
 49 303 49 303 109 342 c 1,62,63
 81 357 81 357 62 383.5 c 128,-1,64
 43 410 43 410 43 437 c 0,65,66
 43 469 43 469 77 504 c 128,-1,67
 111 539 111 539 171 562.5 c 128,-1,68
 231 586 231 586 307 586 c 0,69,70
 435 586 435 586 497 542 c 128,-1,71
 559 498 559 498 559 417 c 0,72,73
 559 401 559 401 556 383 c 2,74,-1
 527 173 l 2,75,76
 524 154 524 154 524 138 c 0,77,78
 524 106 524 106 541.5 93.5 c 128,-1,79
 559 81 559 81 603 81 c 0,80,81
 640 81 640 81 659.5 90.5 c 128,-1,82
 679 100 679 100 688 119.5 c 128,-1,83
 697 139 697 139 702 176 c 2,84,-1
 759 576 l 1,85,-1
 904 576 l 1,86,-1
 849 190 l 2,87,88
 838 111 838 111 809.5 68 c 128,-1,89
 781 25 781 25 729.5 8 c 128,-1,90
 678 -9 678 -9 590 -9 c 0,91,0
 513 -9 513 -9 467.5 3 c 128,-1,1
408.5 -236 m 128,-1,93
 363 -206 363 -206 363 -148 c 0,94,95
 363 -108 363 -108 393.5 -78.5 c 128,-1,96
 424 -49 424 -49 470 -49 c 0,97,98
 509 -49 509 -49 532.5 -66.5 c 128,-1,99
 556 -84 556 -84 556 -113 c 0,100,101
 556 -136 556 -136 541.5 -151 c 128,-1,102
 527 -166 527 -166 508 -166 c 0,103,104
 499 -166 499 -166 491.5 -162.5 c 128,-1,105
 484 -159 484 -159 481 -154 c 1,106,107
 488 -150 488 -150 493.5 -141.5 c 128,-1,108
 499 -133 499 -133 499 -125 c 0,109,110
 499 -115 499 -115 494 -109 c 128,-1,111
 489 -103 489 -103 479 -103 c 0,112,113
 466 -103 466 -103 457.5 -111 c 128,-1,114
 449 -119 449 -119 449 -135 c 0,115,116
 449 -158 449 -158 468.5 -172 c 128,-1,117
 488 -186 488 -186 532 -186 c 0,118,119
 584 -186 584 -186 618 -161.5 c 128,-1,120
 652 -137 652 -137 673 -91 c 0,121,122
 679 -78 679 -78 685 -73 c 128,-1,123
 691 -68 691 -68 699 -68 c 0,124,125
 720 -68 720 -68 747 -76 c 128,-1,126
 774 -84 774 -84 786 -91 c 1,127,128
 765 -181 765 -181 692.5 -223.5 c 128,-1,129
 620 -266 620 -266 528 -266 c 0,130,92
 454 -266 454 -266 408.5 -236 c 128,-1,93
EndSplineSet
Substitution2: "Single Substitution lookup 14 subtable" yoYingthai.less
Substitution2: "'aalt' Access All Alternates lookup 0 subtable" yoYingthai.less
EndChar

StartChar: yoYingthai.less
Encoding: 65539 -1 445
Width: 940
GlyphClass: 2
Flags: W
AnchorPoint: "Anchor-12" 900 550 basechar 0
AnchorPoint: "Anchor-11" 823 0 basechar 0
LayerCount: 2
Fore
SplineSet
467.5 3 m 128,-1,1
 422 15 422 15 400.5 44 c 128,-1,2
 379 73 379 73 379 126 c 0,3,4
 379 153 379 153 383 180 c 2,5,-1
 411 383 l 2,6,7
 413 399 413 399 413 407 c 0,8,9
 413 448 413 448 386.5 471 c 128,-1,10
 360 494 360 494 304 494 c 0,11,12
 266 494 266 494 237 484.5 c 128,-1,13
 208 475 208 475 192.5 461.5 c 128,-1,14
 177 448 177 448 177 438 c 0,15,16
 177 420 177 420 188.5 409 c 128,-1,17
 200 398 200 398 215 398 c 0,18,19
 223 398 223 398 231 399.5 c 128,-1,20
 239 401 239 401 242 401 c 0,21,22
 251 404 251 404 263 404 c 256,23,24
 275 404 275 404 290.5 379 c 128,-1,25
 306 354 306 354 306 334 c 0,26,27
 306 315 306 315 295 315 c 0,28,29
 237 315 237 315 213 295.5 c 128,-1,30
 189 276 189 276 181 221 c 2,31,-1
 166 118 l 2,32,33
 164 102 164 102 164 98 c 0,34,35
 164 82 164 82 172.5 72.5 c 128,-1,36
 181 63 181 63 198 63 c 0,37,38
 232 63 232 63 232 101 c 0,39,40
 232 115 232 115 224.5 122.5 c 128,-1,41
 217 130 217 130 203 130 c 0,42,43
 193 130 193 130 182 127 c 1,44,45
 180 133 180 133 180 136 c 0,46,47
 180 158 180 158 195 171 c 128,-1,48
 210 184 210 184 236 184 c 0,49,50
 266 184 266 184 286 163 c 128,-1,51
 306 142 306 142 306 110 c 0,52,53
 306 -7 306 -7 167 -7 c 0,54,55
 103 -7 103 -7 62 24 c 128,-1,56
 21 55 21 55 21 106 c 0,57,58
 21 122 21 122 22 131 c 2,59,-1
 36 221 l 2,60,61
 49 303 49 303 109 342 c 1,62,63
 81 357 81 357 62 383.5 c 128,-1,64
 43 410 43 410 43 437 c 0,65,66
 43 469 43 469 77 504 c 128,-1,67
 111 539 111 539 171 562.5 c 128,-1,68
 231 586 231 586 307 586 c 0,69,70
 435 586 435 586 497 542 c 128,-1,71
 559 498 559 498 559 417 c 0,72,73
 559 401 559 401 556 383 c 2,74,-1
 527 173 l 2,75,76
 524 154 524 154 524 138 c 0,77,78
 524 106 524 106 541.5 93.5 c 128,-1,79
 559 81 559 81 603 81 c 0,80,81
 640 81 640 81 659.5 90.5 c 128,-1,82
 679 100 679 100 688 119.5 c 128,-1,83
 697 139 697 139 702 176 c 2,84,-1
 759 576 l 1,85,-1
 904 576 l 1,86,-1
 849 190 l 2,87,88
 838 111 838 111 809.5 68 c 128,-1,89
 781 25 781 25 729.5 8 c 128,-1,90
 678 -9 678 -9 590 -9 c 0,91,0
 513 -9 513 -9 467.5 3 c 128,-1,1
EndSplineSet
EndChar

StartChar: uni0E0E
Encoding: 3598 3598 446
Width: 614
GlyphClass: 2
Flags: W
AnchorPoint: "Anchor-12" 585 550 basechar 0
AnchorPoint: "Anchor-11" 473 -245 basechar 0
LayerCount: 2
Fore
SplineSet
500 544 m 128,-1,1
 564 502 564 502 564 418 c 0,2,3
 564 401 564 401 561 383 c 2,4,-1
 473 -245 l 1,5,-1
 327 -245 l 1,6,7
 300 -199 300 -199 253 -168 c 1,8,9
 219 -205 219 -205 171.5 -227.5 c 128,-1,10
 124 -250 124 -250 66 -250 c 0,11,12
 11 -250 11 -250 -21 -227.5 c 128,-1,13
 -53 -205 -53 -205 -53 -165 c 0,14,15
 -53 -113 -53 -113 -4 -81 c 128,-1,16
 45 -49 45 -49 122 -49 c 0,17,18
 166 -49 166 -49 203 -58 c 1,19,20
 212 -27 212 -27 217 0 c 1,21,22
 266 0 266 0 285 -11 c 128,-1,23
 304 -22 304 -22 304 -49 c 0,24,25
 304 -70 304 -70 296 -96 c 1,26,27
 326 -115 326 -115 343 -139 c 1,28,-1
 416 383 l 2,29,30
 418 399 418 399 418 407 c 0,31,32
 418 494 418 494 314 494 c 0,33,34
 276 494 276 494 247 484.5 c 128,-1,35
 218 475 218 475 202.5 461.5 c 128,-1,36
 187 448 187 448 187 438 c 0,37,38
 187 419 187 419 198.5 410 c 128,-1,39
 210 401 210 401 226 401 c 0,40,41
 239 401 239 401 257 405 c 256,42,43
 275 409 275 409 283 409 c 0,44,45
 295 409 295 409 307.5 384.5 c 128,-1,46
 320 360 320 360 320 339 c 0,47,48
 320 320 320 320 309 320 c 0,49,50
 260 320 260 320 237.5 300.5 c 128,-1,51
 215 281 215 281 215 237 c 0,52,53
 215 224 215 224 216 212 c 128,-1,54
 217 200 217 200 218 190 c 0,55,56
 222 154 222 154 222 135 c 0,57,58
 222 72 222 72 182 32.5 c 128,-1,59
 142 -7 142 -7 70 -7 c 0,60,61
 13 -7 13 -7 -16.5 18.5 c 128,-1,62
 -46 44 -46 44 -46 82 c 0,63,64
 -46 125 -46 125 -24 145.5 c 128,-1,65
 -2 166 -2 166 32 166 c 0,66,67
 72 166 72 166 72 126 c 1,68,-1
 55 126 l 2,69,70
 39 126 39 126 29 115.5 c 128,-1,71
 19 105 19 105 19 89 c 0,72,73
 19 77 19 77 26.5 70 c 128,-1,74
 34 63 34 63 46 63 c 0,75,76
 65 63 65 63 74.5 77.5 c 128,-1,77
 84 92 84 92 84 115 c 0,78,79
 84 152 84 152 75 197 c 0,80,81
 69 225 69 225 69 240 c 0,82,83
 69 319 69 319 137 347 c 1,84,85
 101 360 101 360 77 384 c 128,-1,86
 53 408 53 408 53 436 c 0,87,88
 53 469 53 469 82.5 504 c 128,-1,89
 112 539 112 539 172 562.5 c 128,-1,90
 232 586 232 586 317 586 c 0,91,0
 436 586 436 586 500 544 c 128,-1,1
171 -132 m 1,93,94
 146 -126 146 -126 117 -126 c 0,95,96
 90 -126 90 -126 73.5 -134 c 128,-1,97
 57 -142 57 -142 57 -157 c 0,98,99
 57 -168 57 -168 67 -174.5 c 128,-1,100
 77 -181 77 -181 94 -181 c 0,101,92
 140 -181 140 -181 171 -132 c 1,93,94
EndSplineSet
Substitution2: "Single Substitution lookup 14 subtable" doChadathai.short
Substitution2: "'aalt' Access All Alternates lookup 0 subtable" doChadathai.short
EndChar

StartChar: doChadathai.short
Encoding: 65540 -1 447
Width: 614
GlyphClass: 2
Flags: W
AnchorPoint: "Anchor-12" 585 550 basechar 0
AnchorPoint: "Anchor-11" 480 -195 basechar 0
LayerCount: 2
Fore
SplineSet
500 544 m 128,-1,1
 564 502 564 502 564 418 c 0,2,3
 564 401 564 401 561 383 c 2,4,-1
 480 -195 l 1,5,-1
 334 -195 l 1,6,7
 307 -149 307 -149 260 -118 c 1,8,9
 226 -155 226 -155 178.5 -177.5 c 128,-1,10
 131 -200 131 -200 73 -200 c 0,11,12
 18 -200 18 -200 -14 -177.5 c 128,-1,13
 -46 -155 -46 -155 -46 -115 c 0,14,15
 -46 -64 -46 -64 2.5 -36.5 c 128,-1,16
 51 -9 51 -9 129 -9 c 0,17,18
 169 -9 169 -9 207 -17 c 1,19,20
 218 16 218 16 224 50 c 1,21,22
 273 50 273 50 292 39 c 128,-1,23
 311 28 311 28 311 1 c 0,24,25
 311 -24 311 -24 300 -52 c 1,26,27
 333 -70 333 -70 350 -92 c 1,28,-1
 416 383 l 2,29,30
 418 399 418 399 418 407 c 0,31,32
 418 494 418 494 314 494 c 0,33,34
 276 494 276 494 247 484.5 c 128,-1,35
 218 475 218 475 202.5 461.5 c 128,-1,36
 187 448 187 448 187 438 c 0,37,38
 187 419 187 419 198.5 410 c 128,-1,39
 210 401 210 401 226 401 c 0,40,41
 239 401 239 401 257 405 c 256,42,43
 275 409 275 409 283 409 c 0,44,45
 295 409 295 409 307.5 384.5 c 128,-1,46
 320 360 320 360 320 339 c 0,47,48
 320 320 320 320 309 320 c 0,49,50
 260 320 260 320 237.5 300.5 c 128,-1,51
 215 281 215 281 215 237 c 0,52,53
 215 224 215 224 216 212 c 128,-1,54
 217 200 217 200 218 190 c 0,55,56
 222 154 222 154 222 135 c 0,57,58
 222 72 222 72 182 32.5 c 128,-1,59
 142 -7 142 -7 70 -7 c 0,60,61
 13 -7 13 -7 -16.5 18.5 c 128,-1,62
 -46 44 -46 44 -46 82 c 0,63,64
 -46 125 -46 125 -24 145.5 c 128,-1,65
 -2 166 -2 166 32 166 c 0,66,67
 72 166 72 166 72 126 c 1,68,-1
 55 126 l 2,69,70
 39 126 39 126 29 115.5 c 128,-1,71
 19 105 19 105 19 89 c 0,72,73
 19 77 19 77 26.5 70 c 128,-1,74
 34 63 34 63 46 63 c 0,75,76
 65 63 65 63 74.5 77.5 c 128,-1,77
 84 92 84 92 84 115 c 0,78,79
 84 152 84 152 75 197 c 0,80,81
 69 225 69 225 69 240 c 0,82,83
 69 319 69 319 137 347 c 1,84,85
 101 360 101 360 77 384 c 128,-1,86
 53 408 53 408 53 436 c 0,87,88
 53 469 53 469 82.5 504 c 128,-1,89
 112 539 112 539 172 562.5 c 128,-1,90
 232 586 232 586 317 586 c 0,91,0
 436 586 436 586 500 544 c 128,-1,1
178 -82 m 1,93,94
 153 -76 153 -76 124 -76 c 0,95,96
 97 -76 97 -76 80.5 -84 c 128,-1,97
 64 -92 64 -92 64 -107 c 0,98,99
 64 -118 64 -118 74 -124.5 c 128,-1,100
 84 -131 84 -131 101 -131 c 0,101,92
 147 -131 147 -131 178 -82 c 1,93,94
EndSplineSet
EndChar

StartChar: uni0E0F
Encoding: 3599 3599 448
Width: 614
GlyphClass: 2
Flags: W
AnchorPoint: "Anchor-12" 585 550 basechar 0
AnchorPoint: "Anchor-11" 471 -250 basechar 0
LayerCount: 2
Fore
SplineSet
500 544 m 128,-1,1
 564 502 564 502 564 418 c 0,2,3
 564 401 564 401 561 383 c 2,4,-1
 471 -250 l 1,5,-1
 323 -250 l 1,6,-1
 283 -205 l 1,7,-1
 226 -247 l 1,8,-1
 184 -204 l 1,9,10
 150 -227 150 -227 110.5 -240 c 128,-1,11
 71 -253 71 -253 33 -253 c 0,12,13
 -23 -253 -23 -253 -54.5 -230.5 c 128,-1,14
 -86 -208 -86 -208 -86 -171 c 0,15,16
 -86 -126 -86 -126 -44.5 -100 c 128,-1,17
 -3 -74 -3 -74 58 -74 c 0,18,19
 110 -74 110 -74 152 -95 c 1,20,21
 167 -48 167 -48 167 -6 c 1,22,23
 215 -6 215 -6 241.5 -23.5 c 128,-1,24
 268 -41 268 -41 268 -71 c 0,25,26
 268 -118 268 -118 233 -159 c 1,27,-1
 242 -167 l 1,28,-1
 293 -139 l 1,29,-1
 340 -165 l 1,30,-1
 416 383 l 2,31,32
 418 399 418 399 418 407 c 0,33,34
 418 494 418 494 314 494 c 0,35,36
 276 494 276 494 247 484.5 c 128,-1,37
 218 475 218 475 202.5 461.5 c 128,-1,38
 187 448 187 448 187 438 c 0,39,40
 187 419 187 419 198.5 410 c 128,-1,41
 210 401 210 401 226 401 c 0,42,43
 239 401 239 401 257 405 c 256,44,45
 275 409 275 409 283 409 c 0,46,47
 295 409 295 409 307.5 384.5 c 128,-1,48
 320 360 320 360 320 339 c 0,49,50
 320 320 320 320 309 320 c 0,51,52
 260 320 260 320 237.5 300.5 c 128,-1,53
 215 281 215 281 215 237 c 0,54,55
 215 224 215 224 216 212 c 128,-1,56
 217 200 217 200 218 190 c 0,57,58
 222 154 222 154 222 135 c 0,59,60
 222 72 222 72 182 32.5 c 128,-1,61
 142 -7 142 -7 70 -7 c 0,62,63
 13 -7 13 -7 -16.5 18.5 c 128,-1,64
 -46 44 -46 44 -46 82 c 0,65,66
 -46 125 -46 125 -24 145.5 c 128,-1,67
 -2 166 -2 166 32 166 c 0,68,69
 72 166 72 166 72 126 c 1,70,-1
 55 126 l 2,71,72
 39 126 39 126 29 115.5 c 128,-1,73
 19 105 19 105 19 89 c 0,74,75
 19 77 19 77 26.5 70 c 128,-1,76
 34 63 34 63 46 63 c 0,77,78
 65 63 65 63 74.5 77.5 c 128,-1,79
 84 92 84 92 84 115 c 0,80,81
 84 152 84 152 75 197 c 0,82,83
 69 225 69 225 69 240 c 0,84,85
 69 319 69 319 137 347 c 1,86,87
 101 360 101 360 77 384 c 128,-1,88
 53 408 53 408 53 436 c 0,89,90
 53 469 53 469 82.5 504 c 128,-1,91
 112 539 112 539 172 562.5 c 128,-1,92
 232 586 232 586 317 586 c 0,93,0
 436 586 436 586 500 544 c 128,-1,1
123 -154 m 1,95,96
 96 -138 96 -138 72 -138 c 0,97,98
 55 -138 55 -138 43.5 -145 c 128,-1,99
 32 -152 32 -152 32 -166 c 0,100,101
 32 -177 32 -177 41 -183 c 128,-1,102
 50 -189 50 -189 66 -189 c 0,103,94
 98 -189 98 -189 123 -154 c 1,95,96
EndSplineSet
Substitution2: "Single Substitution lookup 14 subtable" toPatakthai.short
Substitution2: "'aalt' Access All Alternates lookup 0 subtable" toPatakthai.short
EndChar

StartChar: toPatakthai.short
Encoding: 65541 -1 449
Width: 614
GlyphClass: 2
Flags: W
AnchorPoint: "Anchor-12" 585 550 basechar 0
AnchorPoint: "Anchor-11" 480 -197 basechar 0
LayerCount: 2
Fore
SplineSet
500 544 m 128,-1,1
 564 502 564 502 564 418 c 0,2,3
 564 401 564 401 561 383 c 2,4,-1
 480 -197 l 1,5,-1
 332 -197 l 1,6,-1
 292 -152 l 1,7,-1
 235 -194 l 1,8,-1
 196 -155 l 1,9,10
 164 -176 164 -176 123.5 -188 c 128,-1,11
 83 -200 83 -200 42 -200 c 0,12,13
 -14 -200 -14 -200 -45.5 -177.5 c 128,-1,14
 -77 -155 -77 -155 -77 -118 c 0,15,16
 -77 -73 -77 -73 -35.5 -47 c 128,-1,17
 6 -21 6 -21 67 -21 c 0,18,19
 124 -21 124 -21 171 -47 c 1,20,21
 176 -25 176 -25 176 -3 c 1,22,23
 226 -3 226 -3 247.5 -14.5 c 128,-1,24
 269 -26 269 -26 269 -55 c 0,25,26
 269 -83 269 -83 247 -110 c 1,27,-1
 251 -114 l 1,28,-1
 302 -86 l 1,29,-1
 347 -121 l 1,30,-1
 416 383 l 2,31,32
 418 399 418 399 418 407 c 0,33,34
 418 494 418 494 314 494 c 0,35,36
 276 494 276 494 247 484.5 c 128,-1,37
 218 475 218 475 202.5 461.5 c 128,-1,38
 187 448 187 448 187 438 c 0,39,40
 187 419 187 419 198.5 410 c 128,-1,41
 210 401 210 401 226 401 c 0,42,43
 239 401 239 401 257 405 c 256,44,45
 275 409 275 409 283 409 c 0,46,47
 295 409 295 409 307.5 384.5 c 128,-1,48
 320 360 320 360 320 339 c 0,49,50
 320 320 320 320 309 320 c 0,51,52
 260 320 260 320 237.5 300.5 c 128,-1,53
 215 281 215 281 215 237 c 0,54,55
 215 224 215 224 216 212 c 128,-1,56
 217 200 217 200 218 190 c 0,57,58
 222 154 222 154 222 135 c 0,59,60
 222 72 222 72 182 32.5 c 128,-1,61
 142 -7 142 -7 70 -7 c 0,62,63
 13 -7 13 -7 -16.5 18.5 c 128,-1,64
 -46 44 -46 44 -46 82 c 0,65,66
 -46 125 -46 125 -24 145.5 c 128,-1,67
 -2 166 -2 166 32 166 c 0,68,69
 72 166 72 166 72 126 c 1,70,-1
 55 126 l 2,71,72
 39 126 39 126 29 115.5 c 128,-1,73
 19 105 19 105 19 89 c 0,74,75
 19 77 19 77 26.5 70 c 128,-1,76
 34 63 34 63 46 63 c 0,77,78
 65 63 65 63 74.5 77.5 c 128,-1,79
 84 92 84 92 84 115 c 0,80,81
 84 152 84 152 75 197 c 0,82,83
 69 225 69 225 69 240 c 0,84,85
 69 319 69 319 137 347 c 1,86,87
 101 360 101 360 77 384 c 128,-1,88
 53 408 53 408 53 436 c 0,89,90
 53 469 53 469 82.5 504 c 128,-1,91
 112 539 112 539 172 562.5 c 128,-1,92
 232 586 232 586 317 586 c 0,93,0
 436 586 436 586 500 544 c 128,-1,1
143 -107 m 1,95,96
 107 -85 107 -85 81 -85 c 0,97,98
 64 -85 64 -85 52.5 -92 c 128,-1,99
 41 -99 41 -99 41 -113 c 0,100,101
 41 -124 41 -124 50 -130 c 128,-1,102
 59 -136 59 -136 75 -136 c 0,103,94
 116 -136 116 -136 143 -107 c 1,95,96
EndSplineSet
EndChar

StartChar: uni0E10
Encoding: 3600 3600 450
Width: 589
GlyphClass: 2
Flags: W
AnchorPoint: "Anchor-12" 556 550 basechar 0
AnchorPoint: "Anchor-11" 429 -282 basechar 0
LayerCount: 2
Fore
SplineSet
201.5 465.5 m 128,-1,1
 187 453 187 453 187 433 c 0,2,3
 187 425 187 425 190 413 c 1,4,5
 241 412 241 412 299.5 406 c 128,-1,6
 358 400 358 400 405 388 c 0,7,8
 453 376 453 376 477 348.5 c 128,-1,9
 501 321 501 321 501 269 c 0,10,11
 501 225 501 225 486.5 177 c 128,-1,12
 472 129 472 129 445 59 c 2,13,-1
 430 20 l 2,14,15
 425 8 425 8 382 -0.5 c 128,-1,16
 339 -9 339 -9 288 -9 c 0,17,18
 234 -9 234 -9 198.5 -0.5 c 128,-1,19
 163 8 163 8 164 20 c 2,20,-1
 167 57 l 2,21,22
 168 69 168 69 171 108.5 c 128,-1,23
 174 148 174 148 174 178 c 0,24,25
 174 215 174 215 145 215 c 0,26,27
 130 215 130 215 121 207.5 c 128,-1,28
 112 200 112 200 112 186 c 0,29,30
 112 173 112 173 118.5 166 c 128,-1,31
 125 159 125 159 136 159 c 0,32,33
 150 159 150 159 162 167 c 1,34,35
 167 159 167 159 167 152 c 0,36,37
 167 138 167 138 154 127.5 c 128,-1,38
 141 117 141 117 117 117 c 0,39,40
 85 117 85 117 63.5 136.5 c 128,-1,41
 42 156 42 156 42 189 c 0,42,43
 42 237 42 237 75 261.5 c 128,-1,44
 108 286 108 286 158 286 c 0,45,46
 210 286 210 286 241.5 257.5 c 128,-1,47
 273 229 273 229 274 187 c 0,48,49
 275 149 275 149 271 86 c 0,50,51
 271 77 271 77 294 77 c 0,52,53
 315 77 315 77 318 87 c 0,54,55
 329 122 329 122 341.5 174 c 128,-1,56
 354 226 354 226 354 245 c 0,57,58
 354 273 354 273 338 285.5 c 128,-1,59
 322 298 322 298 286 304 c 0,60,61
 239 311 239 311 175 315 c 128,-1,62
 111 319 111 319 61 319 c 1,63,64
 52 335 52 335 47 357 c 128,-1,65
 42 379 42 379 42 402 c 0,66,67
 42 453 42 453 63 495 c 128,-1,68
 84 537 84 537 122.5 561.5 c 128,-1,69
 161 586 161 586 212 586 c 0,70,71
 267 586 267 586 347 570 c 0,72,73
 408 559 408 559 434 559 c 0,74,75
 508 559 508 559 549 589 c 1,76,77
 561 575 561 575 568.5 557.5 c 128,-1,78
 576 540 576 540 576 522 c 0,79,80
 576 477 576 477 548 451 c 128,-1,81
 520 425 520 425 473 425 c 0,82,83
 442 425 442 425 412 432.5 c 128,-1,84
 382 440 382 440 339 454 c 0,85,86
 306 466 306 466 283 472 c 128,-1,87
 260 478 260 478 239 478 c 0,88,0
 216 478 216 478 201.5 465.5 c 128,-1,1
430.5 -61.5 m 128,-1,90
 459 -85 459 -85 459 -122 c 0,91,92
 459 -144 459 -144 453.5 -161 c 128,-1,93
 448 -178 448 -178 437 -204 c 0,94,95
 417 -244 417 -244 411 -282 c 1,96,-1
 268 -282 l 1,97,-1
 232 -247 l 1,98,-1
 186 -284 l 1,99,-1
 151 -245 l 1,100,101
 101 -284 101 -284 40 -284 c 0,102,103
 -3 -284 -3 -284 -30.5 -258 c 128,-1,104
 -58 -232 -58 -232 -58 -196 c 0,105,106
 -58 -153 -58 -153 -28.5 -129.5 c 128,-1,107
 1 -106 1 -106 47 -106 c 0,108,109
 87 -106 87 -106 118 -126 c 1,110,111
 123 -103 123 -103 125 -68 c 1,112,113
 169 -68 169 -68 193.5 -78.5 c 128,-1,114
 218 -89 218 -89 218 -117 c 0,115,116
 218 -160 218 -160 194 -198 c 1,117,-1
 200 -204 l 1,118,-1
 240 -181 l 1,119,-1
 296 -219 l 1,120,121
 301 -207 301 -207 309 -196 c 128,-1,122
 317 -185 317 -185 326 -175 c 0,123,124
 341 -157 341 -157 348 -145 c 128,-1,125
 355 -133 355 -133 355 -117 c 0,126,127
 355 -94 355 -94 331 -94 c 0,128,129
 318 -94 318 -94 309.5 -102.5 c 128,-1,130
 301 -111 301 -111 301 -124 c 0,131,132
 301 -146 301 -146 326 -150 c 1,133,134
 319 -171 319 -171 295 -171 c 0,135,136
 274 -171 274 -171 260 -157.5 c 128,-1,137
 246 -144 246 -144 246 -123 c 0,138,139
 246 -82 246 -82 276 -60 c 128,-1,140
 306 -38 306 -38 355 -38 c 0,141,89
 402 -38 402 -38 430.5 -61.5 c 128,-1,90
96 -188 m 1,143,144
 77 -170 77 -170 59 -170 c 0,145,146
 30 -170 30 -170 30 -195 c 0,147,148
 30 -206 30 -206 37 -212.5 c 128,-1,149
 44 -219 44 -219 55 -219 c 0,150,142
 78 -219 78 -219 96 -188 c 1,143,144
EndSplineSet
Substitution2: "Single Substitution lookup 14 subtable" thoThanthai.less
Substitution2: "'aalt' Access All Alternates lookup 0 subtable" thoThanthai.less
EndChar

StartChar: thoThanthai.less
Encoding: 65542 -1 451
Width: 585
GlyphClass: 2
Flags: W
AnchorPoint: "Anchor-12" 556 550 basechar 0
AnchorPoint: "Anchor-11" 457 0 basechar 0
LayerCount: 2
Fore
SplineSet
198.5 -0.5 m 128,-1,1
 163 8 163 8 164 20 c 2,2,-1
 167 57 l 2,3,4
 168 69 168 69 171 108.5 c 128,-1,5
 174 148 174 148 174 178 c 0,6,7
 174 215 174 215 145 215 c 0,8,9
 130 215 130 215 121 207.5 c 128,-1,10
 112 200 112 200 112 186 c 0,11,12
 112 173 112 173 118.5 166 c 128,-1,13
 125 159 125 159 136 159 c 0,14,15
 150 159 150 159 162 167 c 1,16,17
 167 159 167 159 167 152 c 0,18,19
 167 138 167 138 154 127.5 c 128,-1,20
 141 117 141 117 117 117 c 0,21,22
 85 117 85 117 63.5 136.5 c 128,-1,23
 42 156 42 156 42 189 c 0,24,25
 42 237 42 237 75 261.5 c 128,-1,26
 108 286 108 286 158 286 c 0,27,28
 210 286 210 286 241.5 257.5 c 128,-1,29
 273 229 273 229 274 187 c 0,30,31
 275 149 275 149 271 86 c 0,32,33
 271 77 271 77 294 77 c 0,34,35
 315 77 315 77 318 87 c 0,36,37
 329 122 329 122 341.5 174 c 128,-1,38
 354 226 354 226 354 245 c 0,39,40
 354 273 354 273 338 285.5 c 128,-1,41
 322 298 322 298 286 304 c 0,42,43
 239 311 239 311 175 315 c 128,-1,44
 111 319 111 319 61 319 c 1,45,46
 52 335 52 335 47 357 c 128,-1,47
 42 379 42 379 42 402 c 0,48,49
 42 453 42 453 63 495 c 128,-1,50
 84 537 84 537 122.5 561.5 c 128,-1,51
 161 586 161 586 212 586 c 0,52,53
 267 586 267 586 347 570 c 0,54,55
 408 559 408 559 434 559 c 0,56,57
 508 559 508 559 549 589 c 1,58,59
 561 575 561 575 568.5 557.5 c 128,-1,60
 576 540 576 540 576 522 c 0,61,62
 576 477 576 477 548 451 c 128,-1,63
 520 425 520 425 473 425 c 0,64,65
 442 425 442 425 412 432.5 c 128,-1,66
 382 440 382 440 339 454 c 0,67,68
 306 466 306 466 283 472 c 128,-1,69
 260 478 260 478 239 478 c 0,70,71
 216 478 216 478 201.5 465.5 c 128,-1,72
 187 453 187 453 187 433 c 0,73,74
 187 425 187 425 190 413 c 1,75,76
 241 412 241 412 299.5 406 c 128,-1,77
 358 400 358 400 405 388 c 0,78,79
 453 376 453 376 477 348.5 c 128,-1,80
 501 321 501 321 501 269 c 0,81,82
 501 225 501 225 486.5 177 c 128,-1,83
 472 129 472 129 445 59 c 2,84,-1
 430 20 l 2,85,86
 425 8 425 8 382 -0.5 c 128,-1,87
 339 -9 339 -9 288 -9 c 0,88,0
 234 -9 234 -9 198.5 -0.5 c 128,-1,1
EndSplineSet
EndChar

StartChar: uni0E11
Encoding: 3601 3601 452
Width: 680
GlyphClass: 2
Flags: W
AnchorPoint: "Anchor-12" 650 550 basechar 0
AnchorPoint: "Anchor-11" 573 0 basechar 0
LayerCount: 2
Fore
SplineSet
600.5 545 m 128,-1,1
 634 510 634 510 634 453 c 0,2,3
 634 445 634 445 632 425 c 2,4,-1
 573 0 l 1,5,-1
 428 0 l 1,6,-1
 481 379 l 2,7,8
 486 412 486 412 486 431 c 0,9,10
 486 452 486 452 477.5 459 c 128,-1,11
 469 466 469 466 451 466 c 0,12,13
 434 466 434 466 419 457 c 128,-1,14
 404 448 404 448 381.5 425 c 128,-1,15
 359 402 359 402 305 342 c 0,16,17
 269 301 269 301 252.5 269 c 128,-1,18
 236 237 236 237 230 192 c 2,19,-1
 202 0 l 1,20,-1
 73 0 l 2,21,22
 56 0 56 0 56 16 c 0,23,24
 56 29 56 29 62 51 c 0,25,26
 70 89 70 89 73 106 c 2,27,-1
 87 206 l 2,28,29
 92 241 92 241 105.5 267.5 c 128,-1,30
 119 294 119 294 135 312.5 c 128,-1,31
 151 331 151 331 186 366 c 0,32,33
 242 420 242 420 242 463 c 0,34,35
 242 479 242 479 235.5 486.5 c 128,-1,36
 229 494 229 494 215 494 c 0,37,38
 197 494 197 494 177 466 c 1,39,40
 165 493 165 493 140 493 c 0,41,42
 127 493 127 493 118 484.5 c 128,-1,43
 109 476 109 476 109 461 c 0,44,45
 109 448 109 448 116 440.5 c 128,-1,46
 123 433 123 433 134 433 c 0,47,48
 146 433 146 433 153.5 438 c 128,-1,49
 161 443 161 443 169 453 c 1,50,51
 184 444 184 444 184 425 c 0,52,53
 184 403 184 403 164 386.5 c 128,-1,54
 144 370 144 370 106 370 c 0,55,56
 69 370 69 370 43 393.5 c 128,-1,57
 17 417 17 417 17 461 c 0,58,59
 17 512 17 512 47.5 546 c 128,-1,60
 78 580 78 580 126 580 c 0,61,62
 155 580 155 580 171.5 570.5 c 128,-1,63
 188 561 188 561 197 541 c 1,64,65
 226 580 226 580 282 580 c 0,66,67
 311 580 311 580 333 565.5 c 128,-1,68
 355 551 355 551 365 525 c 1,69,70
 423 580 423 580 508 580 c 0,71,0
 567 580 567 580 600.5 545 c 128,-1,1
EndSplineSet
EndChar

StartChar: uni0E12
Encoding: 3602 3602 453
Width: 970
GlyphClass: 2
Flags: W
AnchorPoint: "Anchor-12" 923 550 basechar 0
AnchorPoint: "Anchor-11" 846 0 basechar 0
LayerCount: 2
Fore
SplineSet
927 576 m 1,0,-1
 865 138 l 2,1,2
 858 92 858 92 856 42 c 0,3,4
 854 18 854 18 854 20 c 1,5,6
 851 0 851 0 836 0 c 2,7,-1
 703 0 l 1,8,9
 686 55 686 55 655.5 94 c 128,-1,10
 625 133 625 133 586 154 c 1,11,-1
 582 114 l 2,12,13
 576 58 576 58 543.5 24.5 c 128,-1,14
 511 -9 511 -9 444 -9 c 0,15,16
 398 -9 398 -9 369.5 25.5 c 128,-1,17
 341 60 341 60 341 110 c 0,18,19
 341 164 341 164 372 200.5 c 128,-1,20
 403 237 403 237 453 250 c 1,21,-1
 470 370 l 2,22,23
 472 384 472 384 472 397 c 0,24,25
 472 432 472 432 460.5 451 c 128,-1,26
 449 470 449 470 418 476 c 1,27,28
 412 472 412 472 356 439 c 2,29,-1
 333 426 l 1,30,31
 310 441 310 441 285 461 c 2,32,-1
 264 476 l 1,33,34
 218 455 218 455 198.5 412 c 128,-1,35
 179 369 179 369 179 306 c 0,36,37
 179 247 179 247 210 183 c 1,38,39
 222 193 222 193 242.5 204.5 c 128,-1,40
 263 216 263 216 271 221 c 0,41,42
 308 241 308 241 324 259 c 128,-1,43
 340 277 340 277 340 304 c 0,44,45
 340 320 340 320 331.5 328.5 c 128,-1,46
 323 337 323 337 309 337 c 0,47,48
 291 337 291 337 280.5 327.5 c 128,-1,49
 270 318 270 318 270 300 c 0,50,51
 270 287 270 287 276.5 277 c 128,-1,52
 283 267 283 267 293 262 c 1,53,54
 283 252 283 252 276 248 c 128,-1,55
 269 244 269 244 255 244 c 0,56,57
 236 244 236 244 221.5 260.5 c 128,-1,58
 207 277 207 277 207 301 c 0,59,60
 207 344 207 344 238 370.5 c 128,-1,61
 269 397 269 397 320 397 c 0,62,63
 361 397 361 397 386 371.5 c 128,-1,64
 411 346 411 346 411 307 c 0,65,66
 411 276 411 276 398.5 254 c 128,-1,67
 386 232 386 232 366.5 216 c 128,-1,68
 347 200 347 200 312 177 c 2,69,-1
 287 161 l 2,70,71
 251 137 251 137 233.5 118 c 128,-1,72
 216 99 216 99 207.5 74 c 128,-1,73
 199 49 199 49 192 0 c 1,74,-1
 55 0 l 2,75,76
 50 0 50 0 47 2 c 128,-1,77
 44 4 44 4 45 11 c 0,78,79
 48 33 48 33 56.5 51 c 128,-1,80
 65 69 65 69 78 88 c 0,81,82
 94 111 94 111 94 122 c 0,83,84
 94 129 94 129 88.5 141.5 c 128,-1,85
 83 154 83 154 76 167 c 0,86,87
 56 208 56 208 45 239.5 c 128,-1,88
 34 271 34 271 34 311 c 0,89,90
 34 554 34 554 268 586 c 1,91,92
 306 567 306 567 344 531 c 1,93,94
 380 558 380 558 439 586 c 1,95,96
 533 574 533 574 575.5 531 c 128,-1,97
 618 488 618 488 618 416 c 0,98,99
 618 394 618 394 615 370 c 2,100,-1
 597 241 l 1,101,102
 679 213 679 213 722 153 c 1,103,-1
 782 576 l 1,104,-1
 927 576 l 1,0,-1
434.5 74.5 m 128,-1,106
 439 86 439 86 440 118 c 0,107,108
 440 132 440 132 441 144.5 c 128,-1,109
 442 157 442 157 443 166 c 1,110,111
 424 156 424 156 414 140 c 128,-1,112
 404 124 404 124 404 104 c 0,113,114
 404 63 404 63 421 63 c 0,115,105
 430 63 430 63 434.5 74.5 c 128,-1,106
EndSplineSet
EndChar

StartChar: uni0E13
Encoding: 3603 3603 454
Width: 940
GlyphClass: 2
Flags: W
AnchorPoint: "Anchor-12" 900 550 basechar 0
AnchorPoint: "Anchor-11" 823 0 basechar 0
LayerCount: 2
Fore
SplineSet
888 200.5 m 128,-1,1
 906 172 906 172 906 135 c 0,2,3
 906 67 906 67 864.5 31.5 c 128,-1,4
 823 -4 823 -4 757 -4 c 0,5,6
 699 -4 699 -4 664.5 28.5 c 128,-1,7
 630 61 630 61 630 110 c 0,8,9
 630 138 630 138 638.5 157 c 128,-1,10
 647 176 647 176 663 195 c 1,11,12
 625 183 625 183 590 151.5 c 128,-1,13
 555 120 555 120 531.5 79 c 128,-1,14
 508 38 508 38 503 0 c 1,15,-1
 375 0 l 2,16,17
 358 0 358 0 358 15 c 0,18,19
 358 16 358 16 362 40 c 0,20,21
 371 76 371 76 375 113 c 2,22,-1
 411 383 l 2,23,24
 413 399 413 399 413 407 c 0,25,26
 413 448 413 448 386.5 471 c 128,-1,27
 360 494 360 494 304 494 c 0,28,29
 266 494 266 494 237 484.5 c 128,-1,30
 208 475 208 475 192.5 461.5 c 128,-1,31
 177 448 177 448 177 438 c 0,32,33
 177 420 177 420 188.5 409 c 128,-1,34
 200 398 200 398 215 398 c 0,35,36
 223 398 223 398 231 399.5 c 128,-1,37
 239 401 239 401 242 401 c 0,38,39
 251 404 251 404 263 404 c 256,40,41
 275 404 275 404 290.5 379 c 128,-1,42
 306 354 306 354 306 334 c 0,43,44
 306 315 306 315 295 315 c 0,45,46
 237 315 237 315 212.5 295 c 128,-1,47
 188 275 188 275 181 221 c 2,48,-1
 166 118 l 2,49,50
 164 102 164 102 164 98 c 0,51,52
 164 82 164 82 172.5 72.5 c 128,-1,53
 181 63 181 63 198 63 c 0,54,55
 232 63 232 63 232 101 c 0,56,57
 232 115 232 115 224.5 122.5 c 128,-1,58
 217 130 217 130 203 130 c 0,59,60
 193 130 193 130 182 127 c 1,61,62
 180 133 180 133 180 136 c 0,63,64
 180 158 180 158 195 171 c 128,-1,65
 210 184 210 184 236 184 c 0,66,67
 266 184 266 184 286 163 c 128,-1,68
 306 142 306 142 306 110 c 0,69,70
 306 -7 306 -7 167 -7 c 0,71,72
 103 -7 103 -7 62 24 c 128,-1,73
 21 55 21 55 21 106 c 0,74,75
 21 122 21 122 22 131 c 2,76,-1
 36 221 l 2,77,78
 49 302 49 302 109 342 c 1,79,80
 81 357 81 357 62 383.5 c 128,-1,81
 43 410 43 410 43 437 c 0,82,83
 43 469 43 469 77 504 c 128,-1,84
 111 539 111 539 171 562.5 c 128,-1,85
 231 586 231 586 307 586 c 0,86,87
 435 586 435 586 497 542 c 128,-1,88
 559 498 559 498 559 417 c 0,89,90
 559 401 559 401 556 383 c 2,91,-1
 531 206 l 1,92,93
 599 274 599 274 716 277 c 1,94,95
 718 284 718 284 720 298 c 2,96,-1
 759 576 l 1,97,-1
 904 576 l 1,98,-1
 867 313 l 2,99,100
 862 275 862 275 840 247 c 1,101,0
 870 229 870 229 888 200.5 c 128,-1,1
809 83.5 m 128,-1,103
 825 101 825 101 825 128 c 0,104,105
 825 151 825 151 810.5 167.5 c 128,-1,106
 796 184 796 184 769 192 c 1,107,108
 742 174 742 174 728 157.5 c 128,-1,109
 714 141 714 141 714 119 c 0,110,111
 714 93 714 93 728 79.5 c 128,-1,112
 742 66 742 66 764 66 c 0,113,102
 793 66 793 66 809 83.5 c 128,-1,103
EndSplineSet
EndChar

StartChar: uni0E14
Encoding: 3604 3604 455
Width: 652
GlyphClass: 2
Flags: W
AnchorPoint: "Anchor-12" 622 550 basechar 0
AnchorPoint: "Anchor-11" 545 0 basechar 0
LayerCount: 2
Fore
SplineSet
525.5 532 m 128,-1,1
 595 478 595 478 595 381 c 0,2,3
 595 354 595 354 591 330 c 2,4,-1
 545 0 l 1,5,-1
 400 0 l 1,6,-1
 445 325 l 2,7,8
 449 352 449 352 449 379 c 0,9,10
 449 436 449 436 418.5 465.5 c 128,-1,11
 388 495 388 495 331 495 c 0,12,13
 250 495 250 495 214.5 446.5 c 128,-1,14
 179 398 179 398 179 306 c 0,15,16
 179 243 179 243 202 186 c 1,17,18
 218 200 218 200 251 217 c 0,19,20
 255 219 255 219 260.5 222.5 c 128,-1,21
 266 226 266 226 273 230 c 0,22,23
 310 250 310 250 326 268 c 128,-1,24
 342 286 342 286 342 313 c 0,25,26
 342 341 342 341 312 341 c 0,27,28
 294 341 294 341 282.5 329.5 c 128,-1,29
 271 318 271 318 271 299 c 0,30,31
 271 278 271 278 293 265 c 1,32,33
 283 255 283 255 276 251 c 128,-1,34
 269 247 269 247 255 247 c 0,35,36
 236 247 236 247 222 261.5 c 128,-1,37
 208 276 208 276 208 300 c 0,38,39
 208 343 208 343 240 372 c 128,-1,40
 272 401 272 401 323 401 c 0,41,42
 367 401 367 401 390 378.5 c 128,-1,43
 413 356 413 356 413 322 c 0,44,45
 413 285 413 285 397.5 258 c 128,-1,46
 382 231 382 231 357 211 c 128,-1,47
 332 191 332 191 287 163 c 0,48,49
 246 137 246 137 227 118 c 128,-1,50
 208 99 208 99 198.5 73.5 c 128,-1,51
 189 48 189 48 182 0 c 1,52,-1
 45 0 l 2,53,54
 40 0 40 0 37 2 c 128,-1,55
 34 4 34 4 35 11 c 0,56,57
 40 47 40 47 68 87 c 0,58,59
 75 97 75 97 79.5 106 c 128,-1,60
 84 115 84 115 84 122 c 0,61,62
 84 135 84 135 69 167 c 0,63,64
 53 204 53 204 43.5 237.5 c 128,-1,65
 34 271 34 271 34 311 c 0,66,67
 34 392 34 392 72 454.5 c 128,-1,68
 110 517 110 517 178 551.5 c 128,-1,69
 246 586 246 586 334 586 c 0,70,0
 456 586 456 586 525.5 532 c 128,-1,1
EndSplineSet
EndChar

StartChar: uni0E15
Encoding: 3605 3605 456
Width: 660
GlyphClass: 2
Flags: W
AnchorPoint: "Anchor-12" 630 550 basechar 0
AnchorPoint: "Anchor-11" 553 0 basechar 0
LayerCount: 2
Fore
SplineSet
570.5 533 m 128,-1,1
 608 491 608 491 608 416 c 0,2,3
 608 394 608 394 605 370 c 2,4,-1
 553 0 l 1,5,-1
 408 0 l 1,6,-1
 460 370 l 2,7,8
 462 384 462 384 462 397 c 0,9,10
 462 460 462 460 413 476 c 1,11,-1
 389 461 l 2,12,13
 355 439 355 439 333 426 c 1,14,15
 310 441 310 441 285 461 c 2,16,-1
 264 476 l 1,17,18
 218 455 218 455 198.5 412 c 128,-1,19
 179 369 179 369 179 306 c 0,20,21
 179 247 179 247 211 183 c 1,22,23
 221 191 221 191 249 206 c 2,24,-1
 272 219 l 2,25,26
 309 240 309 240 325.5 257.5 c 128,-1,27
 342 275 342 275 342 302 c 0,28,29
 342 318 342 318 333.5 326.5 c 128,-1,30
 325 335 325 335 311 335 c 0,31,32
 293 335 293 335 282 324.5 c 128,-1,33
 271 314 271 314 271 296 c 0,34,35
 271 286 271 286 277.5 276 c 128,-1,36
 284 266 284 266 294 260 c 1,37,38
 284 250 284 250 277 246 c 128,-1,39
 270 242 270 242 256 242 c 0,40,41
 237 242 237 242 222.5 257.5 c 128,-1,42
 208 273 208 273 208 297 c 0,43,44
 208 340 208 340 240 367.5 c 128,-1,45
 272 395 272 395 323 395 c 0,46,47
 364 395 364 395 388.5 369.5 c 128,-1,48
 413 344 413 344 413 305 c 0,49,50
 413 274 413 274 400 252 c 128,-1,51
 387 230 387 230 367.5 214 c 128,-1,52
 348 198 348 198 311 175 c 2,53,-1
 286 159 l 2,54,55
 250 135 250 135 233 117 c 128,-1,56
 216 99 216 99 207.5 74 c 128,-1,57
 199 49 199 49 192 0 c 1,58,-1
 55 0 l 2,59,60
 50 0 50 0 47 2 c 128,-1,61
 44 4 44 4 45 11 c 0,62,63
 48 33 48 33 56.5 51 c 128,-1,64
 65 69 65 69 78 88 c 0,65,66
 94 111 94 111 94 122 c 0,67,68
 94 129 94 129 88.5 141.5 c 128,-1,69
 83 154 83 154 76 167 c 0,70,71
 56 208 56 208 45 239.5 c 128,-1,72
 34 271 34 271 34 311 c 0,73,74
 34 554 34 554 268 586 c 1,75,76
 306 567 306 567 344 531 c 1,77,78
 388 564 388 564 434 586 c 1,79,0
 533 575 533 575 570.5 533 c 128,-1,1
EndSplineSet
EndChar

StartChar: uni0E16
Encoding: 3606 3606 457
Width: 610
GlyphClass: 2
Flags: W
AnchorPoint: "Anchor-12" 580 550 basechar 0
AnchorPoint: "Anchor-11" 503 0 basechar 0
LayerCount: 2
Fore
SplineSet
497 542 m 128,-1,1
 559 498 559 498 559 417 c 0,2,3
 559 401 559 401 556 383 c 2,4,-1
 503 0 l 1,5,-1
 358 0 l 1,6,-1
 411 383 l 2,7,8
 413 399 413 399 413 407 c 0,9,10
 413 448 413 448 386.5 471 c 128,-1,11
 360 494 360 494 304 494 c 0,12,13
 266 494 266 494 237 484.5 c 128,-1,14
 208 475 208 475 192.5 461.5 c 128,-1,15
 177 448 177 448 177 438 c 0,16,17
 177 420 177 420 188.5 409 c 128,-1,18
 200 398 200 398 215 398 c 0,19,20
 223 398 223 398 231 399.5 c 128,-1,21
 239 401 239 401 242 401 c 0,22,23
 251 404 251 404 263 404 c 256,24,25
 275 404 275 404 290.5 379 c 128,-1,26
 306 354 306 354 306 334 c 0,27,28
 306 315 306 315 295 315 c 0,29,30
 237 315 237 315 213 295.5 c 128,-1,31
 189 276 189 276 181 221 c 2,32,-1
 166 118 l 2,33,34
 164 102 164 102 164 98 c 0,35,36
 164 82 164 82 172.5 72.5 c 128,-1,37
 181 63 181 63 198 63 c 0,38,39
 232 63 232 63 232 101 c 0,40,41
 232 115 232 115 224.5 122.5 c 128,-1,42
 217 130 217 130 203 130 c 0,43,44
 193 130 193 130 182 127 c 1,45,46
 180 133 180 133 180 136 c 0,47,48
 180 158 180 158 195 171 c 128,-1,49
 210 184 210 184 236 184 c 0,50,51
 266 184 266 184 286 163 c 128,-1,52
 306 142 306 142 306 110 c 0,53,54
 306 -7 306 -7 167 -7 c 0,55,56
 103 -7 103 -7 62 24 c 128,-1,57
 21 55 21 55 21 106 c 0,58,59
 21 122 21 122 22 131 c 2,60,-1
 36 221 l 2,61,62
 49 302 49 302 109 342 c 1,63,64
 81 357 81 357 62 383.5 c 128,-1,65
 43 410 43 410 43 437 c 0,66,67
 43 469 43 469 77 504 c 128,-1,68
 111 539 111 539 171 562.5 c 128,-1,69
 231 586 231 586 307 586 c 0,70,0
 435 586 435 586 497 542 c 128,-1,1
EndSplineSet
EndChar

StartChar: uni0E17
Encoding: 3607 3607 458
Width: 715
GlyphClass: 2
Flags: W
AnchorPoint: "Anchor-12" 685 550 basechar 0
AnchorPoint: "Anchor-11" 608 0 basechar 0
LayerCount: 2
Fore
SplineSet
647.5 560.5 m 128,-1,1
 674 535 674 535 674 487 c 0,2,3
 674 479 674 479 672 459 c 2,4,-1
 608 0 l 1,5,-1
 463 0 l 1,6,-1
 518 395 l 2,7,8
 521 413 521 413 521 425 c 0,9,10
 521 438 521 438 516.5 444 c 128,-1,11
 512 450 512 450 502 450 c 0,12,13
 464 450 464 450 400 347 c 0,14,15
 281 156 281 156 263 42 c 2,16,-1
 256 0 l 1,17,-1
 122 0 l 2,18,19
 114 0 114 0 111 4 c 128,-1,20
 108 8 108 8 109 18 c 0,21,22
 110 24 110 24 116 50 c 128,-1,23
 122 76 122 76 127 112 c 2,24,-1
 174 446 l 2,25,26
 178 468 178 468 178 485 c 0,27,28
 178 500 178 500 169 509 c 128,-1,29
 160 518 160 518 144 518 c 0,30,31
 127 518 127 518 117 508 c 128,-1,32
 107 498 107 498 107 481 c 0,33,34
 107 463 107 463 117 453 c 128,-1,35
 127 443 127 443 144 443 c 2,36,-1
 162 443 l 1,37,38
 162 420 162 420 150 407 c 128,-1,39
 138 394 138 394 114 394 c 0,40,41
 83 394 83 394 61 415 c 128,-1,42
 39 436 39 436 39 470 c 0,43,44
 39 522 39 522 80 554 c 128,-1,45
 121 586 121 586 185 586 c 256,46,47
 249 586 249 586 286 556.5 c 128,-1,48
 323 527 323 527 323 476 c 0,49,50
 323 467 323 467 320 440 c 2,51,-1
 302 318 l 1,52,53
 342 393 342 393 386 455 c 0,54,55
 435 524 435 524 475 555 c 128,-1,56
 515 586 515 586 574 586 c 0,57,0
 621 586 621 586 647.5 560.5 c 128,-1,1
EndSplineSet
EndChar

StartChar: uni0E18
Encoding: 3608 3608 459
Width: 590
GlyphClass: 2
Flags: W
AnchorPoint: "Anchor-12" 540 550 basechar 0
AnchorPoint: "Anchor-11" 453 0 basechar 0
LayerCount: 2
Fore
SplineSet
83 19.5 m 128,-1,1
 32 48 32 48 32 118 c 0,2,3
 32 134 32 134 36.5 169 c 128,-1,4
 41 204 41 204 50 264 c 1,5,6
 86 273 86 273 125 273 c 0,7,8
 157 273 157 273 174.5 261.5 c 128,-1,9
 192 250 192 250 189 231 c 2,10,-1
 185 202 l 2,11,12
 177 143 177 143 177 133 c 0,13,14
 177 107 177 107 192.5 96 c 128,-1,15
 208 85 208 85 248 85 c 0,16,17
 297 85 297 85 319.5 99 c 128,-1,18
 342 113 342 113 347 146 c 0,19,20
 359 215 359 215 359 237 c 0,21,22
 359 267 359 267 342.5 280 c 128,-1,23
 326 293 326 293 290 298 c 0,24,25
 233 305 233 305 165.5 310 c 128,-1,26
 98 315 98 315 69 314 c 1,27,28
 58 331 58 331 50.5 356 c 128,-1,29
 43 381 43 381 43 406 c 0,30,31
 43 492 43 492 87.5 537 c 128,-1,32
 132 582 132 582 217 582 c 0,33,34
 256 582 256 582 289 578 c 128,-1,35
 322 574 322 574 327 573 c 0,36,37
 385 565 385 565 415 565 c 0,38,39
 455 565 455 565 484 572 c 128,-1,40
 513 579 513 579 535 595 c 1,41,42
 544 579 544 579 549 559 c 128,-1,43
 554 539 554 539 554 520 c 0,44,45
 554 510 554 510 553 505 c 0,46,47
 548 470 548 470 525 450.5 c 128,-1,48
 502 431 502 431 463 431 c 0,49,50
 431 431 431 431 402 438.5 c 128,-1,51
 373 446 373 446 338 459 c 0,52,53
 302 471 302 471 283 476 c 128,-1,54
 264 481 264 481 244 481 c 0,55,56
 185 481 185 481 185 420 c 0,57,58
 185 416 185 416 187 408 c 1,59,60
 236 407 236 407 297.5 400.5 c 128,-1,61
 359 394 359 394 406 382 c 0,62,63
 455 369 455 369 480.5 341 c 128,-1,64
 506 313 506 313 506 260 c 0,65,66
 506 244 506 244 497 180 c 0,67,68
 495 159 495 159 493 150 c 0,69,70
 480 60 480 60 417.5 25.5 c 128,-1,71
 355 -9 355 -9 238 -9 c 0,72,0
 134 -9 134 -9 83 19.5 c 128,-1,1
EndSplineSet
EndChar

StartChar: uni0E19
Encoding: 3609 3609 460
Width: 687
GlyphClass: 2
Flags: W
AnchorPoint: "Anchor-12" 647 550 basechar 0
AnchorPoint: "Anchor-11" 570 0 basechar 0
LayerCount: 2
Fore
SplineSet
635 200.5 m 128,-1,1
 653 172 653 172 653 135 c 0,2,3
 653 67 653 67 611.5 31.5 c 128,-1,4
 570 -4 570 -4 504 -4 c 0,5,6
 446 -4 446 -4 411.5 28.5 c 128,-1,7
 377 61 377 61 377 110 c 0,8,9
 377 139 377 139 385.5 157.5 c 128,-1,10
 394 176 394 176 411 197 c 1,11,12
 371 187 371 187 333 157.5 c 128,-1,13
 295 128 295 128 269 86.5 c 128,-1,14
 243 45 243 45 237 0 c 1,15,-1
 109 0 l 2,16,17
 92 0 92 0 92 15 c 0,18,19
 92 21 92 21 97 44 c 0,20,21
 107 96 107 96 109 113 c 2,22,-1
 154 446 l 2,23,24
 155 452 155 452 156.5 464.5 c 128,-1,25
 158 477 158 477 158 485 c 0,26,27
 158 500 158 500 149 509 c 128,-1,28
 140 518 140 518 124 518 c 0,29,30
 107 518 107 518 97 508 c 128,-1,31
 87 498 87 498 87 481 c 0,32,33
 87 463 87 463 97 453 c 128,-1,34
 107 443 107 443 124 443 c 2,35,-1
 142 443 l 1,36,37
 142 420 142 420 130 407 c 128,-1,38
 118 394 118 394 94 394 c 0,39,40
 63 394 63 394 41 415 c 128,-1,41
 19 436 19 436 19 470 c 0,42,43
 19 522 19 522 60 554 c 128,-1,44
 101 586 101 586 165 586 c 256,45,46
 229 586 229 586 266 556.5 c 128,-1,47
 303 527 303 527 303 476 c 0,48,49
 303 467 303 467 300 440 c 2,50,-1
 264 194 l 1,51,52
 301 232 301 232 351.5 254 c 128,-1,53
 402 276 402 276 463 277 c 1,54,55
 465 284 465 284 467 298 c 2,56,-1
 506 576 l 1,57,-1
 651 576 l 1,58,-1
 614 313 l 2,59,60
 609 275 609 275 587 247 c 1,61,0
 617 229 617 229 635 200.5 c 128,-1,1
556 83.5 m 128,-1,63
 572 101 572 101 572 128 c 0,64,65
 572 151 572 151 557.5 167.5 c 128,-1,66
 543 184 543 184 516 192 c 1,67,68
 489 174 489 174 475 157.5 c 128,-1,69
 461 141 461 141 461 119 c 0,70,71
 461 93 461 93 475 79.5 c 128,-1,72
 489 66 489 66 511 66 c 0,73,62
 540 66 540 66 556 83.5 c 128,-1,63
EndSplineSet
EndChar

StartChar: uni0E1A
Encoding: 3610 3610 461
Width: 705
GlyphClass: 2
Flags: W
AnchorPoint: "Anchor-12" 665 550 basechar 0
AnchorPoint: "Anchor-11" 588 0 basechar 0
LayerCount: 2
Fore
SplineSet
204 7 m 128,-1,1
 147 23 147 23 129 50 c 0,2,3
 112 76 112 76 112 118 c 0,4,5
 112 140 112 140 117 180 c 2,6,-1
 155 446 l 2,7,8
 158 463 158 463 158 485 c 0,9,10
 158 500 158 500 149 509 c 128,-1,11
 140 518 140 518 124 518 c 0,12,13
 107 518 107 518 97 508 c 128,-1,14
 87 498 87 498 87 481 c 0,15,16
 87 463 87 463 97 453 c 128,-1,17
 107 443 107 443 124 443 c 2,18,-1
 142 443 l 1,19,20
 142 420 142 420 130 407 c 128,-1,21
 118 394 118 394 94 394 c 0,22,23
 63 394 63 394 41 415 c 128,-1,24
 19 436 19 436 19 470 c 0,25,26
 19 522 19 522 60 554 c 128,-1,27
 101 586 101 586 165 586 c 256,28,29
 229 586 229 586 266 556.5 c 128,-1,30
 303 527 303 527 303 476 c 0,31,32
 303 467 303 467 300 440 c 2,33,-1
 261 173 l 2,34,35
 257 143 257 143 257 133 c 0,36,37
 257 112 257 112 267 102 c 0,38,39
 288 81 288 81 353 81 c 0,40,41
 417 81 417 81 441 102 c 0,42,43
 454 113 454 113 458.5 129.5 c 128,-1,44
 463 146 463 146 467 176 c 2,45,-1
 524 576 l 1,46,-1
 669 576 l 1,47,-1
 614 190 l 2,48,49
 606 132 606 132 595.5 102 c 128,-1,50
 585 72 585 72 563 50 c 0,51,52
 536 24 536 24 472.5 7.5 c 128,-1,53
 409 -9 409 -9 340 -9 c 0,54,0
 261 -9 261 -9 204 7 c 128,-1,1
EndSplineSet
EndChar

StartChar: uni0E1B
Encoding: 3611 3611 462
Width: 705
GlyphClass: 2
Flags: W
AnchorPoint: "Anchor-12" 467 550 basechar 0
AnchorPoint: "Anchor-11" 588 0 basechar 0
LayerCount: 2
Fore
SplineSet
204 7 m 128,-1,1
 147 23 147 23 129 50 c 0,2,3
 112 76 112 76 112 118 c 0,4,5
 112 140 112 140 117 180 c 2,6,-1
 154 446 l 2,7,8
 158 468 158 468 158 485 c 0,9,10
 158 500 158 500 149 509 c 128,-1,11
 140 518 140 518 124 518 c 0,12,13
 107 518 107 518 97 508 c 128,-1,14
 87 498 87 498 87 481 c 0,15,16
 87 463 87 463 97 453 c 128,-1,17
 107 443 107 443 124 443 c 2,18,-1
 142 443 l 1,19,20
 142 420 142 420 130 407 c 128,-1,21
 118 394 118 394 94 394 c 0,22,23
 63 394 63 394 41 415 c 128,-1,24
 19 436 19 436 19 470 c 0,25,26
 19 522 19 522 60 554 c 128,-1,27
 101 586 101 586 165 586 c 256,28,29
 229 586 229 586 266 556.5 c 128,-1,30
 303 527 303 527 303 476 c 0,31,32
 303 467 303 467 300 440 c 2,33,-1
 261 173 l 2,34,35
 257 143 257 143 257 133 c 0,36,37
 257 112 257 112 267 102 c 0,38,39
 288 81 288 81 353 81 c 0,40,41
 417 81 417 81 441 102 c 0,42,43
 454 113 454 113 458.5 129.5 c 128,-1,44
 463 146 463 146 467 176 c 2,45,-1
 553 783 l 1,46,-1
 698 783 l 1,47,-1
 614 190 l 2,48,49
 606 132 606 132 595.5 102 c 128,-1,50
 585 72 585 72 563 50 c 0,51,52
 536 24 536 24 472.5 7.5 c 128,-1,53
 409 -9 409 -9 340 -9 c 0,54,0
 261 -9 261 -9 204 7 c 128,-1,1
EndSplineSet
EndChar

StartChar: uni0E1C
Encoding: 3612 3612 463
Width: 664
GlyphClass: 2
Flags: W
AnchorPoint: "Anchor-12" 620 550 basechar 0
AnchorPoint: "Anchor-11" 543 0 basechar 0
LayerCount: 2
Fore
SplineSet
624 576 m 1,0,-1
 561 132 l 2,1,2
 553 74 553 74 552 52 c 128,-1,3
 551 30 551 30 550 22 c 0,4,5
 549 10 549 10 545 5 c 128,-1,6
 541 0 541 0 532 0 c 2,7,-1
 401 0 l 1,8,9
 404 24 404 24 404 36 c 0,10,11
 404 82 404 82 379 131.5 c 128,-1,12
 354 181 354 181 305 228 c 1,13,14
 236 178 236 178 192.5 121 c 128,-1,15
 149 64 149 64 142 14 c 2,16,-1
 140 0 l 1,17,-1
 9 0 l 2,18,19
 0 0 0 0 -3.5 3 c 128,-1,20
 -7 6 -7 6 -7 13 c 256,21,22
 -7 20 -7 20 -3.5 33.5 c 128,-1,23
 0 47 0 47 1 54 c 0,24,25
 13 100 13 100 18 135 c 2,26,-1
 60 433 l 2,27,28
 69 504 69 504 111 545 c 128,-1,29
 153 586 153 586 223 586 c 0,30,31
 291 586 291 586 325.5 560.5 c 128,-1,32
 360 535 360 535 360 491 c 0,33,34
 360 441 360 441 332.5 414.5 c 128,-1,35
 305 388 305 388 265 388 c 0,36,37
 241 388 241 388 226.5 398.5 c 128,-1,38
 212 409 212 409 212 424 c 0,39,40
 212 435 212 435 218 443 c 1,41,42
 230 439 230 439 245 439 c 0,43,44
 262 439 262 439 272 449 c 128,-1,45
 282 459 282 459 282 477 c 0,46,47
 282 490 282 490 273.5 498 c 128,-1,48
 265 506 265 506 251 506 c 0,49,50
 234 506 234 506 223 494 c 128,-1,51
 212 482 212 482 209 462 c 2,52,-1
 177 238 l 1,53,54
 203 270 203 270 235.5 296.5 c 128,-1,55
 268 323 268 323 313 351 c 1,56,-1
 324 351 l 1,57,58
 393 291 393 291 428 218 c 1,59,-1
 479 576 l 1,60,-1
 624 576 l 1,0,-1
EndSplineSet
EndChar

StartChar: uni0E1D
Encoding: 3613 3613 464
Width: 664
GlyphClass: 2
Flags: W
AnchorPoint: "Anchor-12" 425 550 basechar 0
AnchorPoint: "Anchor-11" 543 0 basechar 0
LayerCount: 2
Fore
SplineSet
654 783 m 1,0,-1
 561 132 l 2,1,2
 553 75 553 75 552 53 c 128,-1,3
 551 31 551 31 550 22 c 0,4,5
 549 10 549 10 545 5 c 128,-1,6
 541 0 541 0 532 0 c 2,7,-1
 401 0 l 1,8,9
 404 24 404 24 404 36 c 0,10,11
 404 82 404 82 379 131.5 c 128,-1,12
 354 181 354 181 305 228 c 1,13,14
 236 178 236 178 192.5 121 c 128,-1,15
 149 64 149 64 142 14 c 2,16,-1
 140 0 l 1,17,-1
 9 0 l 2,18,19
 0 0 0 0 -3.5 3 c 128,-1,20
 -7 6 -7 6 -7 13 c 256,21,22
 -7 20 -7 20 -3.5 33.5 c 128,-1,23
 0 47 0 47 1 54 c 0,24,25
 13 100 13 100 18 135 c 2,26,-1
 60 433 l 2,27,28
 69 504 69 504 111 545 c 128,-1,29
 153 586 153 586 223 586 c 0,30,31
 291 586 291 586 325.5 560.5 c 128,-1,32
 360 535 360 535 360 491 c 0,33,34
 360 441 360 441 332.5 414.5 c 128,-1,35
 305 388 305 388 265 388 c 0,36,37
 241 388 241 388 226.5 398.5 c 128,-1,38
 212 409 212 409 212 424 c 0,39,40
 212 435 212 435 218 443 c 1,41,42
 230 439 230 439 245 439 c 0,43,44
 262 439 262 439 272 449 c 128,-1,45
 282 459 282 459 282 477 c 0,46,47
 282 490 282 490 273.5 498 c 128,-1,48
 265 506 265 506 251 506 c 0,49,50
 234 506 234 506 223 494 c 128,-1,51
 212 482 212 482 209 462 c 2,52,-1
 177 238 l 1,53,54
 203 270 203 270 235.5 296.5 c 128,-1,55
 268 323 268 323 313 351 c 1,56,-1
 324 351 l 1,57,58
 395 289 395 289 428 218 c 1,59,-1
 509 783 l 1,60,-1
 654 783 l 1,0,-1
EndSplineSet
EndChar

StartChar: uni0E1E
Encoding: 3614 3614 465
Width: 778
GlyphClass: 2
Flags: W
AnchorPoint: "Anchor-12" 734 550 basechar 0
AnchorPoint: "Anchor-11" 657 0 basechar 0
LayerCount: 2
Fore
SplineSet
738 576 m 1,0,-1
 683 190 l 2,1,2
 669 87 669 87 667 56.5 c 128,-1,3
 665 26 665 26 664 20 c 0,4,5
 661 0 661 0 646 0 c 2,6,-1
 514 0 l 1,7,8
 518 28 518 28 518 40 c 0,9,10
 518 141 518 141 430 335 c 1,11,12
 267 104 267 104 255 14 c 2,13,-1
 253 0 l 1,14,-1
 118 0 l 2,15,16
 106 0 106 0 106 14 c 0,17,18
 106 24 106 24 112 48 c 0,19,20
 127 118 127 118 138 190 c 2,21,-1
 174 446 l 2,22,23
 175 452 175 452 176.5 464.5 c 128,-1,24
 178 477 178 477 178 485 c 0,25,26
 178 500 178 500 169 509 c 128,-1,27
 160 518 160 518 144 518 c 0,28,29
 127 518 127 518 117 508 c 128,-1,30
 107 498 107 498 107 481 c 0,31,32
 107 463 107 463 117 453 c 128,-1,33
 127 443 127 443 144 443 c 2,34,-1
 162 443 l 1,35,36
 162 420 162 420 150 407 c 128,-1,37
 138 394 138 394 114 394 c 0,38,39
 83 394 83 394 61 415 c 128,-1,40
 39 436 39 436 39 470 c 0,41,42
 39 522 39 522 80 554 c 128,-1,43
 121 586 121 586 185 586 c 256,44,45
 249 586 249 586 286 556.5 c 128,-1,46
 323 527 323 527 323 476 c 0,47,48
 323 467 323 467 320 440 c 2,49,-1
 298 290 l 1,50,51
 350 394 350 394 441 520 c 1,52,-1
 455 520 l 1,53,54
 486 466 486 466 511.5 403 c 128,-1,55
 537 340 537 340 551 281 c 1,56,-1
 593 576 l 1,57,-1
 738 576 l 1,0,-1
EndSplineSet
EndChar

StartChar: uni0E1F
Encoding: 3615 3615 466
Width: 778
GlyphClass: 2
Flags: W
AnchorPoint: "Anchor-12" 540 550 basechar 0
AnchorPoint: "Anchor-11" 657 0 basechar 0
LayerCount: 2
Fore
SplineSet
766 783 m 1,0,-1
 683 190 l 2,1,2
 669 87 669 87 667 56.5 c 128,-1,3
 665 26 665 26 664 20 c 0,4,5
 661 0 661 0 646 0 c 2,6,-1
 514 0 l 1,7,8
 518 28 518 28 518 40 c 0,9,10
 518 141 518 141 430 335 c 1,11,12
 267 104 267 104 255 14 c 2,13,-1
 253 0 l 1,14,-1
 118 0 l 2,15,16
 106 0 106 0 106 14 c 0,17,18
 106 24 106 24 112 48 c 0,19,20
 127 118 127 118 138 190 c 2,21,-1
 174 446 l 2,22,23
 175 452 175 452 176.5 464.5 c 128,-1,24
 178 477 178 477 178 485 c 0,25,26
 178 500 178 500 169 509 c 128,-1,27
 160 518 160 518 144 518 c 0,28,29
 127 518 127 518 117 508 c 128,-1,30
 107 498 107 498 107 481 c 0,31,32
 107 463 107 463 117 453 c 128,-1,33
 127 443 127 443 144 443 c 2,34,-1
 162 443 l 1,35,36
 162 420 162 420 150 407 c 128,-1,37
 138 394 138 394 114 394 c 0,38,39
 83 394 83 394 61 415 c 128,-1,40
 39 436 39 436 39 470 c 0,41,42
 39 522 39 522 80 554 c 128,-1,43
 121 586 121 586 185 586 c 256,44,45
 249 586 249 586 286 556.5 c 128,-1,46
 323 527 323 527 323 476 c 0,47,48
 323 467 323 467 320 440 c 2,49,-1
 298 290 l 1,50,51
 350 394 350 394 441 520 c 1,52,-1
 455 520 l 1,53,54
 486 465 486 465 511.5 403 c 128,-1,55
 537 341 537 341 551 282 c 1,56,-1
 621 783 l 1,57,-1
 766 783 l 1,0,-1
EndSplineSet
EndChar

StartChar: uni0E20
Encoding: 3616 3616 467
Width: 615
GlyphClass: 2
Flags: W
AnchorPoint: "Anchor-12" 585 550 basechar 0
AnchorPoint: "Anchor-11" 508 0 basechar 0
LayerCount: 2
Fore
SplineSet
500 544 m 128,-1,1
 564 502 564 502 564 418 c 0,2,3
 564 401 564 401 561 383 c 2,4,-1
 508 0 l 1,5,-1
 363 0 l 1,6,-1
 416 383 l 2,7,8
 418 399 418 399 418 407 c 0,9,10
 418 494 418 494 314 494 c 0,11,12
 276 494 276 494 247 484.5 c 128,-1,13
 218 475 218 475 202.5 461.5 c 128,-1,14
 187 448 187 448 187 438 c 0,15,16
 187 419 187 419 198.5 410 c 128,-1,17
 210 401 210 401 226 401 c 0,18,19
 239 401 239 401 257 405 c 256,20,21
 275 409 275 409 283 409 c 0,22,23
 295 409 295 409 307.5 384.5 c 128,-1,24
 320 360 320 360 320 339 c 0,25,26
 320 320 320 320 309 320 c 0,27,28
 260 320 260 320 237.5 300.5 c 128,-1,29
 215 281 215 281 215 237 c 0,30,31
 215 224 215 224 216 212 c 128,-1,32
 217 200 217 200 218 190 c 0,33,34
 222 154 222 154 222 135 c 0,35,36
 222 72 222 72 182 32.5 c 128,-1,37
 142 -7 142 -7 70 -7 c 0,38,39
 13 -7 13 -7 -16.5 18.5 c 128,-1,40
 -46 44 -46 44 -46 82 c 0,41,42
 -46 125 -46 125 -24 145.5 c 128,-1,43
 -2 166 -2 166 32 166 c 0,44,45
 72 166 72 166 72 126 c 1,46,-1
 55 126 l 2,47,48
 39 126 39 126 29 115.5 c 128,-1,49
 19 105 19 105 19 89 c 0,50,51
 19 77 19 77 26.5 70 c 128,-1,52
 34 63 34 63 46 63 c 0,53,54
 65 63 65 63 74.5 77.5 c 128,-1,55
 84 92 84 92 84 115 c 0,56,57
 84 152 84 152 75 197 c 0,58,59
 69 225 69 225 69 240 c 0,60,61
 69 319 69 319 137 347 c 1,62,63
 101 360 101 360 77 384 c 128,-1,64
 53 408 53 408 53 436 c 0,65,66
 53 469 53 469 82.5 504 c 128,-1,67
 112 539 112 539 172 562.5 c 128,-1,68
 232 586 232 586 317 586 c 0,69,0
 436 586 436 586 500 544 c 128,-1,1
EndSplineSet
EndChar

StartChar: uni0E21
Encoding: 3617 3617 468
Width: 707
GlyphClass: 2
Flags: W
AnchorPoint: "Anchor-12" 659 550 basechar 0
AnchorPoint: "Anchor-11" 582 0 basechar 0
LayerCount: 2
Fore
SplineSet
664 576 m 1,0,-1
 602 138 l 2,1,2
 595 77 595 77 593 44 c 0,3,4
 591 18 591 18 591 20 c 1,5,6
 588 0 588 0 573 0 c 2,7,-1
 440 0 l 1,8,9
 433 54 433 54 410.5 93 c 128,-1,10
 388 132 388 132 358.5 154 c 128,-1,11
 329 176 329 176 303 180 c 1,12,-1
 298 120 l 1,13,14
 280 -9 280 -9 137 -9 c 0,15,16
 81 -9 81 -9 49.5 20 c 128,-1,17
 18 49 18 49 18 100 c 0,18,19
 18 148 18 148 39 185.5 c 128,-1,20
 60 223 60 223 95 244 c 128,-1,21
 130 265 130 265 171 268 c 1,22,23
 172 287 172 287 177 320 c 2,24,-1
 194 446 l 2,25,26
 195 452 195 452 196.5 464.5 c 128,-1,27
 198 477 198 477 198 485 c 0,28,29
 198 500 198 500 189 509 c 128,-1,30
 180 518 180 518 164 518 c 0,31,32
 147 518 147 518 137 508 c 128,-1,33
 127 498 127 498 127 481 c 0,34,35
 127 463 127 463 137 453 c 128,-1,36
 147 443 147 443 164 443 c 2,37,-1
 182 443 l 1,38,39
 182 420 182 420 170 407 c 128,-1,40
 158 394 158 394 134 394 c 0,41,42
 103 394 103 394 81 415 c 128,-1,43
 59 436 59 436 59 470 c 0,44,45
 59 522 59 522 100 554 c 128,-1,46
 141 586 141 586 205 586 c 256,47,48
 269 586 269 586 306 556.5 c 128,-1,49
 343 527 343 527 343 476 c 0,50,51
 343 467 343 467 340 440 c 2,52,-1
 315 270 l 1,53,54
 353 263 353 263 395 235.5 c 128,-1,55
 437 208 437 208 461 165 c 1,56,-1
 519 576 l 1,57,-1
 664 576 l 1,0,-1
161 187 m 1,59,60
 127 182 127 182 110.5 158 c 128,-1,61
 94 134 94 134 94 99 c 0,62,63
 94 63 94 63 120 63 c 0,64,65
 136 63 136 63 144 76.5 c 128,-1,66
 152 90 152 90 157 127 c 0,67,58
 161 165 161 165 161 187 c 1,59,60
EndSplineSet
EndChar

StartChar: uni0E22
Encoding: 3618 3618 469
Width: 660
GlyphClass: 2
Flags: W
AnchorPoint: "Anchor-12" 620 550 basechar 0
AnchorPoint: "Anchor-11" 543 0 basechar 0
LayerCount: 2
Fore
SplineSet
624 576 m 1,0,-1
 571 204 l 2,1,2
 563 146 563 146 545 108 c 128,-1,3
 527 70 527 70 490 44 c 0,4,5
 415 -9 415 -9 275 -9 c 0,6,7
 132 -9 132 -9 70 44 c 0,8,9
 32 77 32 77 32 131 c 0,10,11
 32 153 32 153 38 183 c 0,12,13
 52 260 52 260 136 284 c 1,14,15
 103 299 103 299 81.5 333.5 c 128,-1,16
 60 368 60 368 60 412 c 0,17,18
 60 466 60 466 85.5 505.5 c 128,-1,19
 111 545 111 545 154.5 565.5 c 128,-1,20
 198 586 198 586 250 586 c 0,21,22
 308 586 308 586 336.5 559 c 128,-1,23
 365 532 365 532 365 493 c 0,24,25
 365 450 365 450 338 426 c 128,-1,26
 311 402 311 402 268 402 c 0,27,28
 244 402 244 402 231 412 c 128,-1,29
 218 422 218 422 218 439 c 0,30,31
 218 452 218 452 225 465 c 1,32,33
 240 454 240 454 257 454 c 0,34,35
 273 454 273 454 284 463.5 c 128,-1,36
 295 473 295 473 295 490 c 0,37,38
 295 518 295 518 265 518 c 0,39,40
 231 518 231 518 211.5 492.5 c 128,-1,41
 192 467 192 467 192 427 c 0,42,43
 192 373 192 373 229 350.5 c 128,-1,44
 266 328 266 328 358 328 c 0,45,46
 366 328 366 328 366 317 c 0,47,48
 366 304 366 304 356 283.5 c 128,-1,49
 346 263 346 263 331 247.5 c 128,-1,50
 316 232 316 232 302 232 c 0,51,52
 292 232 292 232 270 238 c 0,53,54
 246 244 246 244 231 244 c 0,55,56
 213 244 213 244 199.5 227 c 128,-1,57
 186 210 186 210 183 185 c 0,58,59
 179 157 179 157 179 148 c 0,60,61
 179 122 179 122 189 111 c 0,62,63
 201 97 201 97 222.5 91 c 128,-1,64
 244 85 244 85 285 85 c 256,65,66
 326 85 326 85 349.5 91 c 128,-1,67
 373 97 373 97 390 111 c 0,68,69
 416 131 416 131 425 194 c 2,70,-1
 479 576 l 1,71,-1
 624 576 l 1,0,-1
EndSplineSet
EndChar

StartChar: uni0E23
Encoding: 3619 3619 470
Width: 538
GlyphClass: 2
Flags: W
AnchorPoint: "Anchor-12" 500 550 basechar 0
AnchorPoint: "Anchor-11" 396 0 basechar 0
LayerCount: 2
Fore
SplineSet
150.5 22.5 m 128,-1,1
 118 52 118 52 118 97 c 256,2,3
 118 142 118 142 141.5 165.5 c 128,-1,4
 165 189 165 189 200 189 c 0,5,6
 257 189 257 189 251 138 c 1,7,-1
 227 140 l 2,8,9
 210 140 210 140 200 130 c 128,-1,10
 190 120 190 120 190 102 c 0,11,12
 190 89 190 89 199.5 81 c 128,-1,13
 209 73 209 73 224 73 c 0,14,15
 246 73 246 73 257.5 87 c 128,-1,16
 269 101 269 101 274 130 c 0,17,18
 285 199 285 199 285 212 c 0,19,20
 285 250 285 250 265.5 268 c 128,-1,21
 246 286 246 286 209 292 c 0,22,23
 116 306 116 306 53 304 c 1,24,25
 44 318 44 318 38 341 c 128,-1,26
 32 364 32 364 32 391 c 0,27,28
 32 449 32 449 58 492.5 c 128,-1,29
 84 536 84 536 128 559 c 128,-1,30
 172 582 172 582 226 582 c 0,31,32
 261 582 261 582 291.5 578 c 128,-1,33
 322 574 322 574 327 573 c 0,34,35
 379 565 379 565 405 565 c 0,36,37
 433 565 433 565 455.5 572 c 128,-1,38
 478 579 478 579 500 595 c 1,39,40
 515 574 515 574 515 533 c 0,41,42
 515 489 515 489 491.5 460 c 128,-1,43
 468 431 468 431 423 431 c 0,44,45
 395 431 395 431 372.5 438 c 128,-1,46
 350 445 350 445 318 459 c 0,47,48
 291 471 291 471 276 476 c 128,-1,49
 261 481 261 481 244 481 c 0,50,51
 213 481 213 481 194 463.5 c 128,-1,52
 175 446 175 446 175 413 c 0,53,54
 175 402 175 402 176 398 c 0,55,56
 244 397 244 397 326 376 c 0,57,58
 432 349 432 349 432 236 c 0,59,60
 432 210 432 210 419 134 c 0,61,62
 408 65 408 65 362 29 c 128,-1,63
 316 -7 316 -7 241 -7 c 0,64,0
 183 -7 183 -7 150.5 22.5 c 128,-1,1
EndSplineSet
EndChar

StartChar: uni0E24
Encoding: 3620 3620 471
Width: 610
GlyphClass: 2
Flags: W
AnchorPoint: "Anchor-12" 580 550 basechar 0
AnchorPoint: "Anchor-11" 472 -220 basechar 0
LayerCount: 2
Fore
SplineSet
411 383 m 2,0,1
 413 399 413 399 413 407 c 0,2,3
 413 448 413 448 386.5 471 c 128,-1,4
 360 494 360 494 304 494 c 0,5,6
 266 494 266 494 237 484.5 c 128,-1,7
 208 475 208 475 192.5 461.5 c 128,-1,8
 177 448 177 448 177 438 c 0,9,10
 177 420 177 420 188.5 409 c 128,-1,11
 200 398 200 398 215 398 c 0,12,13
 223 398 223 398 231 399.5 c 128,-1,14
 239 401 239 401 242 401 c 0,15,16
 251 404 251 404 263 404 c 256,17,18
 275 404 275 404 290.5 379 c 128,-1,19
 306 354 306 354 306 334 c 0,20,21
 306 315 306 315 295 315 c 0,22,23
 237 315 237 315 213 295.5 c 128,-1,24
 189 276 189 276 181 221 c 2,25,-1
 166 118 l 2,26,27
 164 102 164 102 164 98 c 0,28,29
 164 82 164 82 172.5 72.5 c 128,-1,30
 181 63 181 63 198 63 c 0,31,32
 232 63 232 63 232 101 c 0,33,34
 232 115 232 115 224.5 122.5 c 128,-1,35
 217 130 217 130 203 130 c 0,36,37
 193 130 193 130 182 127 c 1,38,39
 180 133 180 133 180 136 c 0,40,41
 180 158 180 158 195 171 c 128,-1,42
 210 184 210 184 236 184 c 0,43,44
 266 184 266 184 286 163 c 128,-1,45
 306 142 306 142 306 110 c 0,46,47
 306 -7 306 -7 167 -7 c 0,48,49
 103 -7 103 -7 62 24 c 128,-1,50
 21 55 21 55 21 106 c 0,51,52
 21 122 21 122 22 131 c 2,53,-1
 36 221 l 2,54,55
 49 303 49 303 109 342 c 1,56,57
 81 357 81 357 62 383.5 c 128,-1,58
 43 410 43 410 43 437 c 0,59,60
 43 469 43 469 77 504 c 128,-1,61
 111 539 111 539 171 562.5 c 128,-1,62
 231 586 231 586 307 586 c 0,63,64
 435 586 435 586 497 542 c 128,-1,65
 559 498 559 498 559 417 c 0,66,67
 559 401 559 401 556 383 c 2,68,-1
 472 -220 l 1,69,-1
 327 -220 l 1,70,-1
 411 383 l 2,0,1
EndSplineSet
Substitution2: "Single Substitution lookup 14 subtable" uni0E24.short
Substitution2: "'aalt' Access All Alternates lookup 0 subtable" uni0E24.short
EndChar

StartChar: uni0E24.short
Encoding: 65543 -1 472
Width: 609
GlyphClass: 2
Flags: W
AnchorPoint: "Anchor-12" 580 550 basechar 0
AnchorPoint: "Anchor-11" 480 -160 basechar 0
LayerCount: 2
Fore
SplineSet
411 383 m 2,0,1
 413 399 413 399 413 407 c 0,2,3
 413 448 413 448 386.5 471 c 128,-1,4
 360 494 360 494 304 494 c 0,5,6
 266 494 266 494 237 484.5 c 128,-1,7
 208 475 208 475 192.5 461.5 c 128,-1,8
 177 448 177 448 177 438 c 0,9,10
 177 420 177 420 188.5 409 c 128,-1,11
 200 398 200 398 215 398 c 0,12,13
 223 398 223 398 231 399.5 c 128,-1,14
 239 401 239 401 242 401 c 0,15,16
 251 404 251 404 263 404 c 256,17,18
 275 404 275 404 290.5 379 c 128,-1,19
 306 354 306 354 306 334 c 0,20,21
 306 315 306 315 295 315 c 0,22,23
 237 315 237 315 213 295.5 c 128,-1,24
 189 276 189 276 181 221 c 2,25,-1
 166 118 l 2,26,27
 164 102 164 102 164 98 c 0,28,29
 164 82 164 82 172.5 72.5 c 128,-1,30
 181 63 181 63 198 63 c 0,31,32
 232 63 232 63 232 101 c 0,33,34
 232 115 232 115 224.5 122.5 c 128,-1,35
 217 130 217 130 203 130 c 0,36,37
 193 130 193 130 182 127 c 1,38,39
 180 133 180 133 180 136 c 0,40,41
 180 158 180 158 195 171 c 128,-1,42
 210 184 210 184 236 184 c 0,43,44
 266 184 266 184 286 163 c 128,-1,45
 306 142 306 142 306 110 c 0,46,47
 306 -7 306 -7 167 -7 c 0,48,49
 103 -7 103 -7 62 24 c 128,-1,50
 21 55 21 55 21 106 c 0,51,52
 21 122 21 122 22 131 c 2,53,-1
 36 221 l 2,54,55
 49 303 49 303 109 342 c 1,56,57
 81 357 81 357 62 383.5 c 128,-1,58
 43 410 43 410 43 437 c 0,59,60
 43 469 43 469 77 504 c 128,-1,61
 111 539 111 539 171 562.5 c 128,-1,62
 231 586 231 586 307 586 c 0,63,64
 435 586 435 586 497 542 c 128,-1,65
 559 498 559 498 559 417 c 0,66,67
 559 401 559 401 556 383 c 2,68,-1
 480 -160 l 1,69,-1
 335 -160 l 1,70,-1
 411 383 l 2,0,1
EndSplineSet
EndChar

StartChar: uni0E25
Encoding: 3621 3621 473
Width: 648
GlyphClass: 2
Flags: W
AnchorPoint: "Anchor-12" 602 550 basechar 0
AnchorPoint: "Anchor-11" 524 0 basechar 0
LayerCount: 2
Fore
SplineSet
463.5 564.5 m 128,-1,1
 520 543 520 543 552 502.5 c 128,-1,2
 584 462 584 462 584 409 c 0,3,4
 584 385 584 385 579 356.5 c 128,-1,5
 574 328 574 328 562 278 c 0,6,7
 544 204 544 204 539 167 c 0,8,9
 536 136 536 136 534 92 c 0,10,11
 532 35 532 35 529 19 c 0,12,13
 527 0 527 0 515 0 c 2,14,-1
 376 0 l 1,15,16
 384 62 384 62 384 105 c 0,17,18
 384 199 384 199 354.5 244.5 c 128,-1,19
 325 290 325 290 276 290 c 0,20,21
 219 290 219 290 194 248 c 128,-1,22
 169 206 169 206 169 138 c 0,23,24
 169 103 169 103 181 83 c 128,-1,25
 193 63 193 63 215 63 c 0,26,27
 251 63 251 63 251 99 c 0,28,29
 251 128 251 128 224 128 c 0,30,31
 206 128 206 128 196 121 c 1,32,33
 193 127 193 127 193 134 c 0,34,35
 193 152 193 152 207.5 165 c 128,-1,36
 222 178 222 178 247 178 c 0,37,38
 277 178 277 178 299 157 c 128,-1,39
 321 136 321 136 321 103 c 0,40,41
 321 47 321 47 288.5 19 c 128,-1,42
 256 -9 256 -9 193 -9 c 0,43,44
 123 -9 123 -9 76.5 33 c 128,-1,45
 30 75 30 75 30 146 c 0,46,47
 30 214 30 214 60.5 268.5 c 128,-1,48
 91 323 91 323 143.5 353.5 c 128,-1,49
 196 384 196 384 260 384 c 0,50,51
 380 384 380 384 421 301 c 1,52,53
 435 379 435 379 435 397 c 0,54,55
 435 482 435 482 330 482 c 0,56,57
 286 482 286 482 249.5 470 c 128,-1,58
 213 458 213 458 176 437 c 0,59,60
 171 434 171 434 162.5 429 c 128,-1,61
 154 424 154 424 147.5 421.5 c 128,-1,62
 141 419 141 419 134 419 c 0,63,64
 117 419 117 419 98 444.5 c 128,-1,65
 79 470 79 470 70 508 c 1,66,67
 120 542 120 542 188.5 564 c 128,-1,68
 257 586 257 586 335 586 c 0,69,0
 407 586 407 586 463.5 564.5 c 128,-1,1
EndSplineSet
EndChar

StartChar: uni0E26
Encoding: 3622 3622 474
Width: 615
GlyphClass: 2
Flags: W
AnchorPoint: "Anchor-12" 585 550 basechar 0
AnchorPoint: "Anchor-11" 477 -220 basechar 0
LayerCount: 2
Fore
SplineSet
416 383 m 2,0,1
 418 399 418 399 418 407 c 0,2,3
 418 494 418 494 314 494 c 0,4,5
 276 494 276 494 247 484.5 c 128,-1,6
 218 475 218 475 202.5 461.5 c 128,-1,7
 187 448 187 448 187 438 c 0,8,9
 187 419 187 419 198.5 410 c 128,-1,10
 210 401 210 401 226 401 c 0,11,12
 239 401 239 401 257 405 c 256,13,14
 275 409 275 409 283 409 c 0,15,16
 295 409 295 409 307.5 384.5 c 128,-1,17
 320 360 320 360 320 339 c 0,18,19
 320 320 320 320 309 320 c 0,20,21
 260 320 260 320 237.5 300.5 c 128,-1,22
 215 281 215 281 215 237 c 0,23,24
 215 224 215 224 216 212 c 128,-1,25
 217 200 217 200 218 190 c 0,26,27
 222 154 222 154 222 135 c 0,28,29
 222 72 222 72 182 32.5 c 128,-1,30
 142 -7 142 -7 70 -7 c 0,31,32
 13 -7 13 -7 -16.5 18.5 c 128,-1,33
 -46 44 -46 44 -46 82 c 0,34,35
 -46 125 -46 125 -24 145.5 c 128,-1,36
 -2 166 -2 166 32 166 c 0,37,38
 72 166 72 166 72 126 c 1,39,-1
 55 126 l 2,40,41
 39 126 39 126 29 115.5 c 128,-1,42
 19 105 19 105 19 89 c 0,43,44
 19 77 19 77 26.5 70 c 128,-1,45
 34 63 34 63 46 63 c 0,46,47
 65 63 65 63 74.5 77.5 c 128,-1,48
 84 92 84 92 84 115 c 0,49,50
 84 152 84 152 75 197 c 0,51,52
 69 225 69 225 69 240 c 0,53,54
 69 319 69 319 137 347 c 1,55,56
 101 360 101 360 77 384 c 128,-1,57
 53 408 53 408 53 436 c 0,58,59
 53 469 53 469 82.5 504 c 128,-1,60
 112 539 112 539 172 562.5 c 128,-1,61
 232 586 232 586 317 586 c 0,62,63
 436 586 436 586 500 544 c 128,-1,64
 564 502 564 502 564 418 c 0,65,66
 564 401 564 401 561 383 c 2,67,-1
 477 -220 l 1,68,-1
 332 -220 l 1,69,-1
 416 383 l 2,0,1
EndSplineSet
Substitution2: "Single Substitution lookup 14 subtable" uni0E26.short
Substitution2: "'aalt' Access All Alternates lookup 0 subtable" uni0E26.short
EndChar

StartChar: uni0E26.short
Encoding: 65544 -1 475
Width: 614
GlyphClass: 2
Flags: W
AnchorPoint: "Anchor-12" 585 550 basechar 0
AnchorPoint: "Anchor-11" 485 -160 basechar 0
LayerCount: 2
Fore
SplineSet
416 383 m 2,0,1
 418 399 418 399 418 407 c 0,2,3
 418 494 418 494 314 494 c 0,4,5
 276 494 276 494 247 484.5 c 128,-1,6
 218 475 218 475 202.5 461.5 c 128,-1,7
 187 448 187 448 187 438 c 0,8,9
 187 419 187 419 198.5 410 c 128,-1,10
 210 401 210 401 226 401 c 0,11,12
 239 401 239 401 257 405 c 256,13,14
 275 409 275 409 283 409 c 0,15,16
 295 409 295 409 307.5 384.5 c 128,-1,17
 320 360 320 360 320 339 c 0,18,19
 320 320 320 320 309 320 c 0,20,21
 260 320 260 320 237.5 300.5 c 128,-1,22
 215 281 215 281 215 237 c 0,23,24
 215 224 215 224 216 212 c 128,-1,25
 217 200 217 200 218 190 c 0,26,27
 222 154 222 154 222 135 c 0,28,29
 222 72 222 72 182 32.5 c 128,-1,30
 142 -7 142 -7 70 -7 c 0,31,32
 13 -7 13 -7 -16.5 18.5 c 128,-1,33
 -46 44 -46 44 -46 82 c 0,34,35
 -46 125 -46 125 -24 145.5 c 128,-1,36
 -2 166 -2 166 32 166 c 0,37,38
 72 166 72 166 72 126 c 1,39,-1
 55 126 l 2,40,41
 39 126 39 126 29 115.5 c 128,-1,42
 19 105 19 105 19 89 c 0,43,44
 19 77 19 77 26.5 70 c 128,-1,45
 34 63 34 63 46 63 c 0,46,47
 65 63 65 63 74.5 77.5 c 128,-1,48
 84 92 84 92 84 115 c 0,49,50
 84 152 84 152 75 197 c 0,51,52
 69 225 69 225 69 240 c 0,53,54
 69 319 69 319 137 347 c 1,55,56
 101 360 101 360 77 384 c 128,-1,57
 53 408 53 408 53 436 c 0,58,59
 53 469 53 469 82.5 504 c 128,-1,60
 112 539 112 539 172 562.5 c 128,-1,61
 232 586 232 586 317 586 c 0,62,63
 436 586 436 586 500 544 c 128,-1,64
 564 502 564 502 564 418 c 0,65,66
 564 401 564 401 561 383 c 2,67,-1
 485 -160 l 1,68,-1
 340 -160 l 1,69,-1
 416 383 l 2,0,1
EndSplineSet
EndChar

StartChar: uni0E27
Encoding: 3623 3623 476
Width: 528
GlyphClass: 2
Flags: W
AnchorPoint: "Anchor-12" 488 550 basechar 0
AnchorPoint: "Anchor-11" 411 0 basechar 0
LayerCount: 2
Fore
SplineSet
154 22 m 128,-1,1
 118 51 118 51 118 97 c 0,2,3
 118 141 118 141 143.5 165 c 128,-1,4
 169 189 169 189 206 189 c 0,5,6
 229 189 229 189 242.5 178.5 c 128,-1,7
 256 168 256 168 256 150 c 0,8,9
 256 140 256 140 252 135 c 1,10,11
 235 140 235 140 228 140 c 0,12,13
 190 140 190 140 190 104 c 0,14,15
 190 91 190 91 200.5 82 c 128,-1,16
 211 73 211 73 226 73 c 0,17,18
 276 73 276 73 286 147 c 2,19,-1
 318 374 l 2,20,21
 321 392 321 392 321 408 c 0,22,23
 321 445 321 445 305 463.5 c 128,-1,24
 289 482 289 482 252 482 c 0,25,26
 221 482 221 482 195 469 c 128,-1,27
 169 456 169 456 137 432 c 0,28,29
 127 424 127 424 118 421 c 128,-1,30
 109 418 109 418 97 418 c 0,31,32
 79 418 79 418 61.5 441.5 c 128,-1,33
 44 465 44 465 30 505 c 1,34,35
 141 586 141 586 271 586 c 0,36,37
 364 586 364 586 415 543.5 c 128,-1,38
 466 501 466 501 466 420 c 0,39,40
 466 392 466 392 464 380 c 2,41,-1
 430 140 l 2,42,43
 419 66 419 66 370.5 29.5 c 128,-1,44
 322 -7 322 -7 254 -7 c 0,45,0
 190 -7 190 -7 154 22 c 128,-1,1
EndSplineSet
EndChar

StartChar: uni0E28
Encoding: 3624 3624 477
Width: 634
GlyphClass: 2
Flags: W
AnchorPoint: "Anchor-12" 604 550 basechar 0
AnchorPoint: "Anchor-11" 527 0 basechar 0
LayerCount: 2
Fore
SplineSet
647.5 513 m 128,-1,1
 617 490 617 490 562 483 c 1,2,3
 580 447 580 447 580 402 c 0,4,5
 580 384 580 384 576 350 c 2,6,-1
 527 0 l 1,7,-1
 382 0 l 1,8,-1
 430 345 l 2,9,10
 435 380 435 380 435 405 c 0,11,12
 435 447 435 447 410 470.5 c 128,-1,13
 385 494 385 494 325 494 c 0,14,15
 176 494 176 494 176 306 c 2,16,-1
 176 296 l 1,17,18
 201 327 201 327 234 345.5 c 128,-1,19
 267 364 267 364 306 364 c 0,20,21
 350 364 350 364 374.5 342.5 c 128,-1,22
 399 321 399 321 399 280 c 0,23,24
 399 230 399 230 370 202.5 c 128,-1,25
 341 175 341 175 295 175 c 0,26,27
 269 175 269 175 251 188 c 128,-1,28
 233 201 233 201 233 219 c 0,29,30
 233 232 233 232 240.5 243.5 c 128,-1,31
 248 255 248 255 261 257 c 1,32,33
 264 242 264 242 272 235.5 c 128,-1,34
 280 229 280 229 294 229 c 256,35,36
 308 229 308 229 317.5 238.5 c 128,-1,37
 327 248 327 248 329 262 c 0,38,39
 331 275 331 275 321.5 283.5 c 128,-1,40
 312 292 312 292 296 292 c 0,41,42
 240 292 240 292 206 222.5 c 128,-1,43
 172 153 172 153 147 0 c 1,44,-1
 16 0 l 2,45,46
 3 0 3 0 3 12 c 0,47,48
 3 36 3 36 18.5 67.5 c 128,-1,49
 34 99 34 99 57 136 c 0,50,51
 75 167 75 167 75 170 c 0,52,53
 75 175 75 175 64 197 c 0,54,55
 49 226 49 226 40.5 252.5 c 128,-1,56
 32 279 32 279 32 317 c 0,57,58
 32 399 32 399 69 460 c 128,-1,59
 106 521 106 521 173 553.5 c 128,-1,60
 240 586 240 586 328 586 c 0,61,62
 423 586 423 586 485 556 c 1,63,64
 527 566 527 566 559 592.5 c 128,-1,65
 591 619 591 619 610 651 c 1,66,67
 641 647 641 647 659.5 626.5 c 128,-1,68
 678 606 678 606 678 580 c 0,69,0
 678 536 678 536 647.5 513 c 128,-1,1
EndSplineSet
EndChar

StartChar: uni0E29
Encoding: 3625 3625 478
Width: 705
GlyphClass: 2
Flags: W
AnchorPoint: "Anchor-12" 665 550 basechar 0
AnchorPoint: "Anchor-11" 588 0 basechar 0
LayerCount: 2
Fore
SplineSet
669 576 m 1,0,-1
 614 190 l 2,1,2
 606 132 606 132 595.5 102 c 128,-1,3
 585 72 585 72 563 50 c 0,4,5
 536 24 536 24 472.5 7.5 c 128,-1,6
 409 -9 409 -9 340 -9 c 0,7,8
 261 -9 261 -9 204 7 c 128,-1,9
 147 23 147 23 129 50 c 0,10,11
 112 76 112 76 112 118 c 0,12,13
 112 140 112 140 117 180 c 2,14,-1
 155 446 l 2,15,16
 158 463 158 463 158 485 c 0,17,18
 158 500 158 500 149 509 c 128,-1,19
 140 518 140 518 124 518 c 0,20,21
 107 518 107 518 97 508 c 128,-1,22
 87 498 87 498 87 481 c 0,23,24
 87 463 87 463 97 453 c 128,-1,25
 107 443 107 443 124 443 c 2,26,-1
 142 443 l 1,27,28
 142 420 142 420 130 407 c 128,-1,29
 118 394 118 394 94 394 c 0,30,31
 63 394 63 394 41 415 c 128,-1,32
 19 436 19 436 19 470 c 0,33,34
 19 522 19 522 60 554 c 128,-1,35
 101 586 101 586 165 586 c 256,36,37
 229 586 229 586 266 556.5 c 128,-1,38
 303 527 303 527 303 476 c 0,39,40
 303 467 303 467 300 440 c 2,41,-1
 284 330 l 1,42,43
 299 352 299 352 324.5 362.5 c 128,-1,44
 350 373 350 373 376 373 c 0,45,46
 412 373 412 373 434.5 356 c 128,-1,47
 457 339 457 339 457 310 c 0,48,49
 457 283 457 283 441.5 268.5 c 128,-1,50
 426 254 426 254 401 254 c 0,51,52
 393 254 393 254 386.5 259 c 128,-1,53
 380 264 380 264 376 270 c 1,54,55
 389 275 389 275 395 281.5 c 128,-1,56
 401 288 401 288 401 300 c 0,57,58
 401 309 401 309 395.5 314.5 c 128,-1,59
 390 320 390 320 381 320 c 0,60,61
 367 320 367 320 357.5 310.5 c 128,-1,62
 348 301 348 301 348 282 c 0,63,64
 348 261 348 261 361.5 249 c 128,-1,65
 375 237 375 237 401 237 c 0,66,67
 436 237 436 237 457.5 256.5 c 128,-1,68
 479 276 479 276 488 323 c 2,69,-1
 524 576 l 1,70,-1
 669 576 l 1,0,-1
458.5 129.5 m 128,-1,72
 463 146 463 146 467 176 c 2,73,-1
 470 197 l 1,74,75
 442 167 442 167 387 167 c 0,76,77
 348 167 348 167 314.5 184 c 128,-1,78
 281 201 281 201 270 232 c 1,79,-1
 261 173 l 2,80,81
 257 143 257 143 257 133 c 0,82,83
 257 112 257 112 267 102 c 0,84,85
 288 81 288 81 353 81 c 0,86,87
 417 81 417 81 441 102 c 0,88,71
 454 113 454 113 458.5 129.5 c 128,-1,72
EndSplineSet
EndChar

StartChar: uni0E2A
Encoding: 3626 3626 479
Width: 648
GlyphClass: 2
Flags: W
AnchorPoint: "Anchor-12" 601 550 basechar 0
AnchorPoint: "Anchor-11" 524 0 basechar 0
LayerCount: 2
Fore
SplineSet
565 484 m 1,1,2
 584 449 584 449 584 409 c 0,3,4
 584 385 584 385 579 356.5 c 128,-1,5
 574 328 574 328 562 278 c 0,6,7
 544 204 544 204 539 167 c 0,8,9
 536 136 536 136 534 92 c 0,10,11
 532 35 532 35 529 19 c 0,12,13
 527 0 527 0 515 0 c 2,14,-1
 376 0 l 1,15,16
 384 62 384 62 384 105 c 0,17,18
 384 199 384 199 354.5 244.5 c 128,-1,19
 325 290 325 290 276 290 c 0,20,21
 219 290 219 290 194 248 c 128,-1,22
 169 206 169 206 169 138 c 0,23,24
 169 103 169 103 181 83 c 128,-1,25
 193 63 193 63 215 63 c 0,26,27
 251 63 251 63 251 99 c 0,28,29
 251 128 251 128 224 128 c 0,30,31
 206 128 206 128 196 121 c 1,32,33
 193 127 193 127 193 134 c 0,34,35
 193 152 193 152 207.5 165 c 128,-1,36
 222 178 222 178 247 178 c 0,37,38
 277 178 277 178 299 157 c 128,-1,39
 321 136 321 136 321 103 c 0,40,41
 321 47 321 47 288.5 19 c 128,-1,42
 256 -9 256 -9 193 -9 c 0,43,44
 123 -9 123 -9 76.5 33 c 128,-1,45
 30 75 30 75 30 146 c 0,46,47
 30 214 30 214 60.5 268.5 c 128,-1,48
 91 323 91 323 143.5 353.5 c 128,-1,49
 196 384 196 384 260 384 c 0,50,51
 380 384 380 384 421 301 c 1,52,53
 435 379 435 379 435 397 c 0,54,55
 435 482 435 482 330 482 c 0,56,57
 286 482 286 482 249.5 470 c 128,-1,58
 213 458 213 458 176 437 c 0,59,60
 171 434 171 434 162.5 429 c 128,-1,61
 154 424 154 424 147.5 421.5 c 128,-1,62
 141 419 141 419 134 419 c 0,63,64
 117 419 117 419 98 444.5 c 128,-1,65
 79 470 79 470 70 508 c 1,66,67
 120 542 120 542 188.5 564 c 128,-1,68
 257 586 257 586 335 586 c 0,69,70
 418 586 418 586 483 556 c 1,71,72
 525 566 525 566 558 593 c 128,-1,73
 591 620 591 620 610 651 c 1,74,75
 641 647 641 647 659.5 626.5 c 128,-1,76
 678 606 678 606 678 580 c 0,77,0
 678 499 678 499 565 484 c 1,1,2
EndSplineSet
EndChar

